%TF.GenerationSoftware,KiCad,Pcbnew,5.1.6+dfsg1-1*%
%TF.CreationDate,2021-01-11T22:17:59-08:00*%
%TF.ProjectId,high-current-sense-relay,68696768-2d63-4757-9272-656e742d7365,rev?*%
%TF.SameCoordinates,Original*%
%TF.FileFunction,Copper,L2,Bot*%
%TF.FilePolarity,Positive*%
%FSLAX46Y46*%
G04 Gerber Fmt 4.6, Leading zero omitted, Abs format (unit mm)*
G04 Created by KiCad (PCBNEW 5.1.6+dfsg1-1) date 2021-01-11 22:17:59*
%MOMM*%
%LPD*%
G01*
G04 APERTURE LIST*
%TA.AperFunction,ComponentPad*%
%ADD10C,12.800000*%
%TD*%
%TA.AperFunction,ComponentPad*%
%ADD11C,0.900000*%
%TD*%
%TA.AperFunction,ComponentPad*%
%ADD12C,1.250000*%
%TD*%
%TA.AperFunction,ComponentPad*%
%ADD13O,1.400000X1.400000*%
%TD*%
%TA.AperFunction,ComponentPad*%
%ADD14C,1.400000*%
%TD*%
%TA.AperFunction,ComponentPad*%
%ADD15C,1.333500*%
%TD*%
%TA.AperFunction,ComponentPad*%
%ADD16R,1.333500X1.333500*%
%TD*%
%TA.AperFunction,ComponentPad*%
%ADD17C,1.300000*%
%TD*%
%TA.AperFunction,ComponentPad*%
%ADD18R,1.700000X1.700000*%
%TD*%
%TA.AperFunction,ComponentPad*%
%ADD19O,1.700000X1.700000*%
%TD*%
%TA.AperFunction,ComponentPad*%
%ADD20R,1.600000X1.600000*%
%TD*%
%TA.AperFunction,ComponentPad*%
%ADD21O,1.600000X1.600000*%
%TD*%
%TA.AperFunction,ComponentPad*%
%ADD22C,0.800000*%
%TD*%
%TA.AperFunction,ComponentPad*%
%ADD23C,1.500000*%
%TD*%
%TA.AperFunction,ComponentPad*%
%ADD24R,1.500000X1.500000*%
%TD*%
%TA.AperFunction,ComponentPad*%
%ADD25O,6.000000X9.000000*%
%TD*%
%TA.AperFunction,ComponentPad*%
%ADD26O,6.000001X9.000000*%
%TD*%
%TA.AperFunction,Conductor*%
%ADD27C,0.250000*%
%TD*%
%TA.AperFunction,Conductor*%
%ADD28C,0.254000*%
%TD*%
G04 APERTURE END LIST*
D10*
%TO.P,J1,1*%
%TO.N,IP-*%
X155829000Y-43434000D03*
D11*
X151029000Y-43434000D03*
X152434887Y-40039887D03*
X155829000Y-38634000D03*
X159223113Y-40039887D03*
X160629000Y-43434000D03*
X159223113Y-46828113D03*
X155829000Y-48234000D03*
X152434887Y-46828113D03*
%TD*%
D10*
%TO.P,J2,1*%
%TO.N,IP+*%
X155702000Y-23749000D03*
D11*
X150902000Y-23749000D03*
X152307887Y-20354887D03*
X155702000Y-18949000D03*
X159096113Y-20354887D03*
X160502000Y-23749000D03*
X159096113Y-27143113D03*
X155702000Y-28549000D03*
X152307887Y-27143113D03*
%TD*%
D12*
%TO.P,C2,1*%
%TO.N,+3V3*%
X119507000Y-31028000D03*
%TO.P,C2,2*%
%TO.N,GND*%
X119507000Y-36028000D03*
%TD*%
D13*
%TO.P,R2,2*%
%TO.N,IP+*%
X127889000Y-27051000D03*
D14*
%TO.P,R2,1*%
%TO.N,Net-(D1-Pad2)*%
X120269000Y-27051000D03*
%TD*%
D13*
%TO.P,R1,2*%
%TO.N,Net-(D1-Pad2)*%
X120269000Y-40386000D03*
D14*
%TO.P,R1,1*%
%TO.N,IP-*%
X127889000Y-40386000D03*
%TD*%
D12*
%TO.P,C1,1*%
%TO.N,+3V3*%
X110149000Y-26797000D03*
%TO.P,C1,2*%
%TO.N,GND*%
X115149000Y-26797000D03*
%TD*%
D15*
%TO.P,D1,1*%
%TO.N,+3V3*%
X107315000Y-40386000D03*
D16*
%TO.P,D1,2*%
%TO.N,Net-(D1-Pad2)*%
X117475000Y-40386000D03*
%TD*%
D17*
%TO.P,D2,2*%
%TO.N,Net-(D2-Pad2)*%
X117729000Y-45212000D03*
%TO.P,D2,1*%
%TO.N,GND*%
X120269000Y-45212000D03*
%TD*%
%TO.P,D3,1*%
%TO.N,GND*%
X120142000Y-21844000D03*
%TO.P,D3,2*%
%TO.N,Net-(D3-Pad2)*%
X117602000Y-21844000D03*
%TD*%
D18*
%TO.P,J3,1*%
%TO.N,+3V3*%
X104394000Y-29591000D03*
D19*
%TO.P,J3,2*%
%TO.N,GND*%
X104394000Y-32131000D03*
%TO.P,J3,3*%
%TO.N,SDA*%
X104394000Y-34671000D03*
%TO.P,J3,4*%
%TO.N,SCL*%
X104394000Y-37211000D03*
%TD*%
D14*
%TO.P,R3,1*%
%TO.N,+3V3*%
X112522000Y-45212000D03*
D13*
%TO.P,R3,2*%
%TO.N,Net-(D2-Pad2)*%
X114422000Y-45212000D03*
%TD*%
%TO.P,R4,2*%
%TO.N,Net-(D3-Pad2)*%
X114676000Y-21844000D03*
D14*
%TO.P,R4,1*%
%TO.N,IOn*%
X112776000Y-21844000D03*
%TD*%
D20*
%TO.P,U1,1*%
%TO.N,Net-(U1-Pad1)*%
X108204000Y-37211000D03*
D21*
%TO.P,U1,5*%
%TO.N,SDA*%
X115824000Y-29591000D03*
%TO.P,U1,2*%
%TO.N,ISense*%
X110744000Y-37211000D03*
%TO.P,U1,6*%
%TO.N,IOn*%
X113284000Y-29591000D03*
%TO.P,U1,3*%
%TO.N,VSense*%
X113284000Y-37211000D03*
%TO.P,U1,7*%
%TO.N,SCL*%
X110744000Y-29591000D03*
%TO.P,U1,4*%
%TO.N,GND*%
X115824000Y-37211000D03*
%TO.P,U1,8*%
%TO.N,+3V3*%
X108204000Y-29591000D03*
%TD*%
D22*
%TO.P,U3,4*%
%TO.N,IP-*%
X143325000Y-42610000D03*
X146005000Y-36660000D03*
X146005000Y-37990000D03*
X146005000Y-39330000D03*
X146005000Y-40660000D03*
X141905000Y-36660000D03*
X141905000Y-37990000D03*
X141905000Y-39330000D03*
X141905000Y-40660000D03*
X144585000Y-42610000D03*
X145615000Y-41860000D03*
X142295000Y-41860000D03*
%TA.AperFunction,ComponentPad*%
G36*
G01*
X144222477Y-34540953D02*
X144222477Y-34540953D01*
G75*
G02*
X144754047Y-34347477I362523J-169047D01*
G01*
X144754047Y-34347477D01*
G75*
G02*
X144947523Y-34879047I-169047J-362523D01*
G01*
X144947523Y-34879047D01*
G75*
G02*
X144415953Y-35072523I-362523J169047D01*
G01*
X144415953Y-35072523D01*
G75*
G02*
X144222477Y-34540953I169047J362523D01*
G01*
G37*
%TD.AperFunction*%
%TA.AperFunction,ComponentPad*%
G36*
G01*
X143687523Y-34540953D02*
X143687523Y-34540953D01*
G75*
G02*
X143494047Y-35072523I-362523J-169047D01*
G01*
X143494047Y-35072523D01*
G75*
G02*
X142962477Y-34879047I-169047J362523D01*
G01*
X142962477Y-34879047D01*
G75*
G02*
X143155953Y-34347477I362523J169047D01*
G01*
X143155953Y-34347477D01*
G75*
G02*
X143687523Y-34540953I169047J-362523D01*
G01*
G37*
%TD.AperFunction*%
X145615000Y-35460000D03*
X142295000Y-35460000D03*
%TO.P,U3,5*%
%TO.N,IP+*%
X146005000Y-30660000D03*
X146005000Y-26660000D03*
X146005000Y-27990000D03*
X146005000Y-29330000D03*
X141905000Y-26660000D03*
X141905000Y-30660000D03*
X141905000Y-27990000D03*
X141905000Y-29330000D03*
X145615000Y-25460000D03*
X142295000Y-25460000D03*
X143325000Y-24710000D03*
X144585000Y-24710000D03*
X145615000Y-31860000D03*
X142295000Y-31860000D03*
%TA.AperFunction,ComponentPad*%
G36*
G01*
X142962477Y-32440953D02*
X142962477Y-32440953D01*
G75*
G02*
X143494047Y-32247477I362523J-169047D01*
G01*
X143494047Y-32247477D01*
G75*
G02*
X143687523Y-32779047I-169047J-362523D01*
G01*
X143687523Y-32779047D01*
G75*
G02*
X143155953Y-32972523I-362523J169047D01*
G01*
X143155953Y-32972523D01*
G75*
G02*
X142962477Y-32440953I169047J362523D01*
G01*
G37*
%TD.AperFunction*%
%TA.AperFunction,ComponentPad*%
G36*
G01*
X144947523Y-32440953D02*
X144947523Y-32440953D01*
G75*
G02*
X144754047Y-32972523I-362523J-169047D01*
G01*
X144754047Y-32972523D01*
G75*
G02*
X144222477Y-32779047I-169047J362523D01*
G01*
X144222477Y-32779047D01*
G75*
G02*
X144415953Y-32247477I362523J169047D01*
G01*
X144415953Y-32247477D01*
G75*
G02*
X144947523Y-32440953I169047J-362523D01*
G01*
G37*
%TD.AperFunction*%
D23*
%TO.P,U3,2*%
%TO.N,GND*%
X122555000Y-33660000D03*
%TO.P,U3,3*%
%TO.N,ISense*%
X122555000Y-35570000D03*
D24*
%TO.P,U3,1*%
%TO.N,+3V3*%
X122555000Y-31750000D03*
D25*
%TO.P,U3,4*%
%TO.N,IP-*%
X143955000Y-38660000D03*
D26*
%TO.P,U3,5*%
%TO.N,IP+*%
X143955000Y-28660000D03*
%TD*%
D27*
%TO.N,GND*%
X119507000Y-36028000D02*
X120436000Y-36028000D01*
X120436000Y-36028000D02*
X122682000Y-33782000D01*
%TO.N,ISense*%
X119050999Y-36978001D02*
X121009999Y-36978001D01*
X118158997Y-36085999D02*
X119050999Y-36978001D01*
X111869001Y-36085999D02*
X118158997Y-36085999D01*
X110744000Y-37211000D02*
X111869001Y-36085999D01*
X121009999Y-36978001D02*
X122428000Y-35560000D01*
%TD*%
D28*
%TO.N,IP+*%
G36*
X177457275Y-33274000D02*
G01*
X145825976Y-33274000D01*
X145868901Y-33252949D01*
X146435530Y-32820135D01*
X146906834Y-32285094D01*
X147264701Y-31668387D01*
X147495378Y-30993713D01*
X147590000Y-30287000D01*
X147590000Y-28787000D01*
X146521655Y-28787000D01*
X146531836Y-28696441D01*
X146495395Y-28660000D01*
X146531836Y-28623559D01*
X146521655Y-28533000D01*
X147590000Y-28533000D01*
X147590000Y-27033000D01*
X147495378Y-26326287D01*
X147264701Y-25651613D01*
X146906834Y-25034906D01*
X146435530Y-24499865D01*
X145868901Y-24067051D01*
X145228722Y-23753098D01*
X144648729Y-23591812D01*
X144082000Y-23686071D01*
X144082000Y-23799740D01*
X144081019Y-23800264D01*
X144058164Y-24003559D01*
X144082000Y-24027395D01*
X144082000Y-24188848D01*
X144031441Y-24183164D01*
X143955000Y-24259605D01*
X143878559Y-24183164D01*
X143828000Y-24188848D01*
X143828000Y-24027395D01*
X143851836Y-24003559D01*
X143828981Y-23800264D01*
X143828000Y-23799840D01*
X143828000Y-23686071D01*
X143261271Y-23591812D01*
X142681278Y-23753098D01*
X142041099Y-24067051D01*
X141474470Y-24499865D01*
X141003166Y-25034906D01*
X140645299Y-25651613D01*
X140414622Y-26326287D01*
X140320000Y-27033000D01*
X140320000Y-28533000D01*
X141388345Y-28533000D01*
X141378164Y-28623559D01*
X141414605Y-28660000D01*
X141378164Y-28696441D01*
X141388345Y-28787000D01*
X140320000Y-28787000D01*
X140320000Y-30287000D01*
X140414622Y-30993713D01*
X140645299Y-31668387D01*
X141003166Y-32285094D01*
X141474470Y-32820135D01*
X142041099Y-33252949D01*
X142084024Y-33274000D01*
X126492000Y-33274000D01*
X126492000Y-27384329D01*
X126596284Y-27384329D01*
X126628953Y-27492044D01*
X126739208Y-27729392D01*
X126893649Y-27940670D01*
X127086340Y-28117759D01*
X127309877Y-28253853D01*
X127555670Y-28343722D01*
X127762000Y-28221201D01*
X127762000Y-27178000D01*
X128016000Y-27178000D01*
X128016000Y-28221201D01*
X128222330Y-28343722D01*
X128468123Y-28253853D01*
X128691660Y-28117759D01*
X128884351Y-27940670D01*
X129038792Y-27729392D01*
X129149047Y-27492044D01*
X129181716Y-27384329D01*
X129058374Y-27178000D01*
X128016000Y-27178000D01*
X127762000Y-27178000D01*
X126719626Y-27178000D01*
X126596284Y-27384329D01*
X126492000Y-27384329D01*
X126492000Y-26717671D01*
X126596284Y-26717671D01*
X126719626Y-26924000D01*
X127762000Y-26924000D01*
X127762000Y-25880799D01*
X128016000Y-25880799D01*
X128016000Y-26924000D01*
X129058374Y-26924000D01*
X129181716Y-26717671D01*
X129149047Y-26609956D01*
X129038792Y-26372608D01*
X128884351Y-26161330D01*
X128691660Y-25984241D01*
X128468123Y-25848147D01*
X128222330Y-25758278D01*
X128016000Y-25880799D01*
X127762000Y-25880799D01*
X127555670Y-25758278D01*
X127309877Y-25848147D01*
X127086340Y-25984241D01*
X126893649Y-26161330D01*
X126739208Y-26372608D01*
X126628953Y-26609956D01*
X126596284Y-26717671D01*
X126492000Y-26717671D01*
X126492000Y-15646000D01*
X177518696Y-15646000D01*
X177457275Y-33274000D01*
G37*
X177457275Y-33274000D02*
X145825976Y-33274000D01*
X145868901Y-33252949D01*
X146435530Y-32820135D01*
X146906834Y-32285094D01*
X147264701Y-31668387D01*
X147495378Y-30993713D01*
X147590000Y-30287000D01*
X147590000Y-28787000D01*
X146521655Y-28787000D01*
X146531836Y-28696441D01*
X146495395Y-28660000D01*
X146531836Y-28623559D01*
X146521655Y-28533000D01*
X147590000Y-28533000D01*
X147590000Y-27033000D01*
X147495378Y-26326287D01*
X147264701Y-25651613D01*
X146906834Y-25034906D01*
X146435530Y-24499865D01*
X145868901Y-24067051D01*
X145228722Y-23753098D01*
X144648729Y-23591812D01*
X144082000Y-23686071D01*
X144082000Y-23799740D01*
X144081019Y-23800264D01*
X144058164Y-24003559D01*
X144082000Y-24027395D01*
X144082000Y-24188848D01*
X144031441Y-24183164D01*
X143955000Y-24259605D01*
X143878559Y-24183164D01*
X143828000Y-24188848D01*
X143828000Y-24027395D01*
X143851836Y-24003559D01*
X143828981Y-23800264D01*
X143828000Y-23799840D01*
X143828000Y-23686071D01*
X143261271Y-23591812D01*
X142681278Y-23753098D01*
X142041099Y-24067051D01*
X141474470Y-24499865D01*
X141003166Y-25034906D01*
X140645299Y-25651613D01*
X140414622Y-26326287D01*
X140320000Y-27033000D01*
X140320000Y-28533000D01*
X141388345Y-28533000D01*
X141378164Y-28623559D01*
X141414605Y-28660000D01*
X141378164Y-28696441D01*
X141388345Y-28787000D01*
X140320000Y-28787000D01*
X140320000Y-30287000D01*
X140414622Y-30993713D01*
X140645299Y-31668387D01*
X141003166Y-32285094D01*
X141474470Y-32820135D01*
X142041099Y-33252949D01*
X142084024Y-33274000D01*
X126492000Y-33274000D01*
X126492000Y-27384329D01*
X126596284Y-27384329D01*
X126628953Y-27492044D01*
X126739208Y-27729392D01*
X126893649Y-27940670D01*
X127086340Y-28117759D01*
X127309877Y-28253853D01*
X127555670Y-28343722D01*
X127762000Y-28221201D01*
X127762000Y-27178000D01*
X128016000Y-27178000D01*
X128016000Y-28221201D01*
X128222330Y-28343722D01*
X128468123Y-28253853D01*
X128691660Y-28117759D01*
X128884351Y-27940670D01*
X129038792Y-27729392D01*
X129149047Y-27492044D01*
X129181716Y-27384329D01*
X129058374Y-27178000D01*
X128016000Y-27178000D01*
X127762000Y-27178000D01*
X126719626Y-27178000D01*
X126596284Y-27384329D01*
X126492000Y-27384329D01*
X126492000Y-26717671D01*
X126596284Y-26717671D01*
X126719626Y-26924000D01*
X127762000Y-26924000D01*
X127762000Y-25880799D01*
X128016000Y-25880799D01*
X128016000Y-26924000D01*
X129058374Y-26924000D01*
X129181716Y-26717671D01*
X129149047Y-26609956D01*
X129038792Y-26372608D01*
X128884351Y-26161330D01*
X128691660Y-25984241D01*
X128468123Y-25848147D01*
X128222330Y-25758278D01*
X128016000Y-25880799D01*
X127762000Y-25880799D01*
X127555670Y-25758278D01*
X127309877Y-25848147D01*
X127086340Y-25984241D01*
X126893649Y-26161330D01*
X126739208Y-26372608D01*
X126628953Y-26609956D01*
X126596284Y-26717671D01*
X126492000Y-26717671D01*
X126492000Y-15646000D01*
X177518696Y-15646000D01*
X177457275Y-33274000D01*
G36*
X144031441Y-25236836D02*
G01*
X144082000Y-25231152D01*
X144082000Y-25392605D01*
X144058164Y-25416441D01*
X144081019Y-25619736D01*
X144082000Y-25620160D01*
X144082000Y-28533000D01*
X145488345Y-28533000D01*
X145478164Y-28623559D01*
X145514605Y-28660000D01*
X145478164Y-28696441D01*
X145488345Y-28787000D01*
X144082000Y-28787000D01*
X144082000Y-28807000D01*
X143828000Y-28807000D01*
X143828000Y-28787000D01*
X142421655Y-28787000D01*
X142431836Y-28696441D01*
X142395395Y-28660000D01*
X142431836Y-28623559D01*
X142421655Y-28533000D01*
X143828000Y-28533000D01*
X143828000Y-25620260D01*
X143828981Y-25619736D01*
X143851836Y-25416441D01*
X143828000Y-25392605D01*
X143828000Y-25231152D01*
X143878559Y-25236836D01*
X143955000Y-25160395D01*
X144031441Y-25236836D01*
G37*
X144031441Y-25236836D02*
X144082000Y-25231152D01*
X144082000Y-25392605D01*
X144058164Y-25416441D01*
X144081019Y-25619736D01*
X144082000Y-25620160D01*
X144082000Y-28533000D01*
X145488345Y-28533000D01*
X145478164Y-28623559D01*
X145514605Y-28660000D01*
X145478164Y-28696441D01*
X145488345Y-28787000D01*
X144082000Y-28787000D01*
X144082000Y-28807000D01*
X143828000Y-28807000D01*
X143828000Y-28787000D01*
X142421655Y-28787000D01*
X142431836Y-28696441D01*
X142395395Y-28660000D01*
X142431836Y-28623559D01*
X142421655Y-28533000D01*
X143828000Y-28533000D01*
X143828000Y-25620260D01*
X143828981Y-25619736D01*
X143851836Y-25416441D01*
X143828000Y-25392605D01*
X143828000Y-25231152D01*
X143878559Y-25236836D01*
X143955000Y-25160395D01*
X144031441Y-25236836D01*
%TO.N,IP-*%
G36*
X142041099Y-34067051D02*
G01*
X141474470Y-34499865D01*
X141003166Y-35034906D01*
X140645299Y-35651613D01*
X140414622Y-36326287D01*
X140320000Y-37033000D01*
X140320000Y-38533000D01*
X141388345Y-38533000D01*
X141378164Y-38623559D01*
X141414605Y-38660000D01*
X141378164Y-38696441D01*
X141388345Y-38787000D01*
X140320000Y-38787000D01*
X140320000Y-40287000D01*
X140414622Y-40993713D01*
X140645299Y-41668387D01*
X141003166Y-42285094D01*
X141474470Y-42820135D01*
X142041099Y-43252949D01*
X142681278Y-43566902D01*
X143261271Y-43728188D01*
X143828000Y-43633929D01*
X143828000Y-43520260D01*
X143828981Y-43519736D01*
X143851836Y-43316441D01*
X143828000Y-43292605D01*
X143828000Y-43131152D01*
X143878559Y-43136836D01*
X143955000Y-43060395D01*
X144031441Y-43136836D01*
X144082000Y-43131152D01*
X144082000Y-43292605D01*
X144058164Y-43316441D01*
X144081019Y-43519736D01*
X144082000Y-43520160D01*
X144082000Y-43633929D01*
X144648729Y-43728188D01*
X145228722Y-43566902D01*
X145868901Y-43252949D01*
X146435530Y-42820135D01*
X146906834Y-42285094D01*
X147264701Y-41668387D01*
X147495378Y-40993713D01*
X147590000Y-40287000D01*
X147590000Y-38787000D01*
X146521655Y-38787000D01*
X146531836Y-38696441D01*
X146495395Y-38660000D01*
X146531836Y-38623559D01*
X146521655Y-38533000D01*
X147590000Y-38533000D01*
X147590000Y-37033000D01*
X147495378Y-36326287D01*
X147264701Y-35651613D01*
X146906834Y-35034906D01*
X146435530Y-34499865D01*
X145868901Y-34067051D01*
X145805585Y-34036000D01*
X177454620Y-34036000D01*
X177396297Y-50775000D01*
X126492000Y-50775000D01*
X126492000Y-41307269D01*
X127147336Y-41307269D01*
X127206797Y-41541037D01*
X127445242Y-41651934D01*
X127700740Y-41714183D01*
X127963473Y-41725390D01*
X128223344Y-41685125D01*
X128470366Y-41594935D01*
X128571203Y-41541037D01*
X128630664Y-41307269D01*
X127889000Y-40565605D01*
X127147336Y-41307269D01*
X126492000Y-41307269D01*
X126492000Y-40460473D01*
X126549610Y-40460473D01*
X126589875Y-40720344D01*
X126680065Y-40967366D01*
X126733963Y-41068203D01*
X126967731Y-41127664D01*
X127709395Y-40386000D01*
X128068605Y-40386000D01*
X128810269Y-41127664D01*
X129044037Y-41068203D01*
X129154934Y-40829758D01*
X129217183Y-40574260D01*
X129228390Y-40311527D01*
X129188125Y-40051656D01*
X129097935Y-39804634D01*
X129044037Y-39703797D01*
X128810269Y-39644336D01*
X128068605Y-40386000D01*
X127709395Y-40386000D01*
X126967731Y-39644336D01*
X126733963Y-39703797D01*
X126623066Y-39942242D01*
X126560817Y-40197740D01*
X126549610Y-40460473D01*
X126492000Y-40460473D01*
X126492000Y-39464731D01*
X127147336Y-39464731D01*
X127889000Y-40206395D01*
X128630664Y-39464731D01*
X128571203Y-39230963D01*
X128332758Y-39120066D01*
X128077260Y-39057817D01*
X127814527Y-39046610D01*
X127554656Y-39086875D01*
X127307634Y-39177065D01*
X127206797Y-39230963D01*
X127147336Y-39464731D01*
X126492000Y-39464731D01*
X126492000Y-34036000D01*
X142104415Y-34036000D01*
X142041099Y-34067051D01*
G37*
X142041099Y-34067051D02*
X141474470Y-34499865D01*
X141003166Y-35034906D01*
X140645299Y-35651613D01*
X140414622Y-36326287D01*
X140320000Y-37033000D01*
X140320000Y-38533000D01*
X141388345Y-38533000D01*
X141378164Y-38623559D01*
X141414605Y-38660000D01*
X141378164Y-38696441D01*
X141388345Y-38787000D01*
X140320000Y-38787000D01*
X140320000Y-40287000D01*
X140414622Y-40993713D01*
X140645299Y-41668387D01*
X141003166Y-42285094D01*
X141474470Y-42820135D01*
X142041099Y-43252949D01*
X142681278Y-43566902D01*
X143261271Y-43728188D01*
X143828000Y-43633929D01*
X143828000Y-43520260D01*
X143828981Y-43519736D01*
X143851836Y-43316441D01*
X143828000Y-43292605D01*
X143828000Y-43131152D01*
X143878559Y-43136836D01*
X143955000Y-43060395D01*
X144031441Y-43136836D01*
X144082000Y-43131152D01*
X144082000Y-43292605D01*
X144058164Y-43316441D01*
X144081019Y-43519736D01*
X144082000Y-43520160D01*
X144082000Y-43633929D01*
X144648729Y-43728188D01*
X145228722Y-43566902D01*
X145868901Y-43252949D01*
X146435530Y-42820135D01*
X146906834Y-42285094D01*
X147264701Y-41668387D01*
X147495378Y-40993713D01*
X147590000Y-40287000D01*
X147590000Y-38787000D01*
X146521655Y-38787000D01*
X146531836Y-38696441D01*
X146495395Y-38660000D01*
X146531836Y-38623559D01*
X146521655Y-38533000D01*
X147590000Y-38533000D01*
X147590000Y-37033000D01*
X147495378Y-36326287D01*
X147264701Y-35651613D01*
X146906834Y-35034906D01*
X146435530Y-34499865D01*
X145868901Y-34067051D01*
X145805585Y-34036000D01*
X177454620Y-34036000D01*
X177396297Y-50775000D01*
X126492000Y-50775000D01*
X126492000Y-41307269D01*
X127147336Y-41307269D01*
X127206797Y-41541037D01*
X127445242Y-41651934D01*
X127700740Y-41714183D01*
X127963473Y-41725390D01*
X128223344Y-41685125D01*
X128470366Y-41594935D01*
X128571203Y-41541037D01*
X128630664Y-41307269D01*
X127889000Y-40565605D01*
X127147336Y-41307269D01*
X126492000Y-41307269D01*
X126492000Y-40460473D01*
X126549610Y-40460473D01*
X126589875Y-40720344D01*
X126680065Y-40967366D01*
X126733963Y-41068203D01*
X126967731Y-41127664D01*
X127709395Y-40386000D01*
X128068605Y-40386000D01*
X128810269Y-41127664D01*
X129044037Y-41068203D01*
X129154934Y-40829758D01*
X129217183Y-40574260D01*
X129228390Y-40311527D01*
X129188125Y-40051656D01*
X129097935Y-39804634D01*
X129044037Y-39703797D01*
X128810269Y-39644336D01*
X128068605Y-40386000D01*
X127709395Y-40386000D01*
X126967731Y-39644336D01*
X126733963Y-39703797D01*
X126623066Y-39942242D01*
X126560817Y-40197740D01*
X126549610Y-40460473D01*
X126492000Y-40460473D01*
X126492000Y-39464731D01*
X127147336Y-39464731D01*
X127889000Y-40206395D01*
X128630664Y-39464731D01*
X128571203Y-39230963D01*
X128332758Y-39120066D01*
X128077260Y-39057817D01*
X127814527Y-39046610D01*
X127554656Y-39086875D01*
X127307634Y-39177065D01*
X127206797Y-39230963D01*
X127147336Y-39464731D01*
X126492000Y-39464731D01*
X126492000Y-34036000D01*
X142104415Y-34036000D01*
X142041099Y-34067051D01*
G36*
X144082000Y-38533000D02*
G01*
X145488345Y-38533000D01*
X145478164Y-38623559D01*
X145514605Y-38660000D01*
X145478164Y-38696441D01*
X145488345Y-38787000D01*
X144082000Y-38787000D01*
X144082000Y-41699740D01*
X144081019Y-41700264D01*
X144058164Y-41903559D01*
X144082000Y-41927395D01*
X144082000Y-42088848D01*
X144031441Y-42083164D01*
X143955000Y-42159605D01*
X143878559Y-42083164D01*
X143828000Y-42088848D01*
X143828000Y-41927395D01*
X143851836Y-41903559D01*
X143828981Y-41700264D01*
X143828000Y-41699840D01*
X143828000Y-38787000D01*
X142421655Y-38787000D01*
X142431836Y-38696441D01*
X142395395Y-38660000D01*
X142431836Y-38623559D01*
X142421655Y-38533000D01*
X143828000Y-38533000D01*
X143828000Y-38513000D01*
X144082000Y-38513000D01*
X144082000Y-38533000D01*
G37*
X144082000Y-38533000D02*
X145488345Y-38533000D01*
X145478164Y-38623559D01*
X145514605Y-38660000D01*
X145478164Y-38696441D01*
X145488345Y-38787000D01*
X144082000Y-38787000D01*
X144082000Y-41699740D01*
X144081019Y-41700264D01*
X144058164Y-41903559D01*
X144082000Y-41927395D01*
X144082000Y-42088848D01*
X144031441Y-42083164D01*
X143955000Y-42159605D01*
X143878559Y-42083164D01*
X143828000Y-42088848D01*
X143828000Y-41927395D01*
X143851836Y-41903559D01*
X143828981Y-41700264D01*
X143828000Y-41699840D01*
X143828000Y-38787000D01*
X142421655Y-38787000D01*
X142431836Y-38696441D01*
X142395395Y-38660000D01*
X142431836Y-38623559D01*
X142421655Y-38533000D01*
X143828000Y-38533000D01*
X143828000Y-38513000D01*
X144082000Y-38513000D01*
X144082000Y-38533000D01*
%TO.N,GND*%
G36*
X124460000Y-50775000D02*
G01*
X102895000Y-50775000D01*
X102895000Y-45080514D01*
X111187000Y-45080514D01*
X111187000Y-45343486D01*
X111238304Y-45601405D01*
X111338939Y-45844359D01*
X111485038Y-46063013D01*
X111670987Y-46248962D01*
X111889641Y-46395061D01*
X112132595Y-46495696D01*
X112390514Y-46547000D01*
X112653486Y-46547000D01*
X112911405Y-46495696D01*
X113154359Y-46395061D01*
X113373013Y-46248962D01*
X113472000Y-46149975D01*
X113570987Y-46248962D01*
X113789641Y-46395061D01*
X114032595Y-46495696D01*
X114290514Y-46547000D01*
X114553486Y-46547000D01*
X114811405Y-46495696D01*
X115054359Y-46395061D01*
X115273013Y-46248962D01*
X115458962Y-46063013D01*
X115605061Y-45844359D01*
X115705696Y-45601405D01*
X115757000Y-45343486D01*
X115757000Y-45085439D01*
X116444000Y-45085439D01*
X116444000Y-45338561D01*
X116493381Y-45586821D01*
X116590247Y-45820676D01*
X116730875Y-46031140D01*
X116909860Y-46210125D01*
X117120324Y-46350753D01*
X117354179Y-46447619D01*
X117602439Y-46497000D01*
X117855561Y-46497000D01*
X118103821Y-46447619D01*
X118337676Y-46350753D01*
X118548140Y-46210125D01*
X118660738Y-46097527D01*
X119563078Y-46097527D01*
X119616466Y-46326201D01*
X119846374Y-46432095D01*
X120092524Y-46491102D01*
X120345455Y-46500952D01*
X120595449Y-46461270D01*
X120832896Y-46373578D01*
X120921534Y-46326201D01*
X120974922Y-46097527D01*
X120269000Y-45391605D01*
X119563078Y-46097527D01*
X118660738Y-46097527D01*
X118727125Y-46031140D01*
X118867753Y-45820676D01*
X118964619Y-45586821D01*
X118999540Y-45411256D01*
X119019730Y-45538449D01*
X119107422Y-45775896D01*
X119154799Y-45864534D01*
X119383473Y-45917922D01*
X120089395Y-45212000D01*
X120448605Y-45212000D01*
X121154527Y-45917922D01*
X121383201Y-45864534D01*
X121489095Y-45634626D01*
X121548102Y-45388476D01*
X121557952Y-45135545D01*
X121518270Y-44885551D01*
X121430578Y-44648104D01*
X121383201Y-44559466D01*
X121154527Y-44506078D01*
X120448605Y-45212000D01*
X120089395Y-45212000D01*
X119383473Y-44506078D01*
X119154799Y-44559466D01*
X119048905Y-44789374D01*
X118997644Y-45003211D01*
X118964619Y-44837179D01*
X118867753Y-44603324D01*
X118727125Y-44392860D01*
X118660738Y-44326473D01*
X119563078Y-44326473D01*
X120269000Y-45032395D01*
X120974922Y-44326473D01*
X120921534Y-44097799D01*
X120691626Y-43991905D01*
X120445476Y-43932898D01*
X120192545Y-43923048D01*
X119942551Y-43962730D01*
X119705104Y-44050422D01*
X119616466Y-44097799D01*
X119563078Y-44326473D01*
X118660738Y-44326473D01*
X118548140Y-44213875D01*
X118337676Y-44073247D01*
X118103821Y-43976381D01*
X117855561Y-43927000D01*
X117602439Y-43927000D01*
X117354179Y-43976381D01*
X117120324Y-44073247D01*
X116909860Y-44213875D01*
X116730875Y-44392860D01*
X116590247Y-44603324D01*
X116493381Y-44837179D01*
X116444000Y-45085439D01*
X115757000Y-45085439D01*
X115757000Y-45080514D01*
X115705696Y-44822595D01*
X115605061Y-44579641D01*
X115458962Y-44360987D01*
X115273013Y-44175038D01*
X115054359Y-44028939D01*
X114811405Y-43928304D01*
X114553486Y-43877000D01*
X114290514Y-43877000D01*
X114032595Y-43928304D01*
X113789641Y-44028939D01*
X113570987Y-44175038D01*
X113472000Y-44274025D01*
X113373013Y-44175038D01*
X113154359Y-44028939D01*
X112911405Y-43928304D01*
X112653486Y-43877000D01*
X112390514Y-43877000D01*
X112132595Y-43928304D01*
X111889641Y-44028939D01*
X111670987Y-44175038D01*
X111485038Y-44360987D01*
X111338939Y-44579641D01*
X111238304Y-44822595D01*
X111187000Y-45080514D01*
X102895000Y-45080514D01*
X102895000Y-40257789D01*
X106013250Y-40257789D01*
X106013250Y-40514211D01*
X106063275Y-40765707D01*
X106161404Y-41002610D01*
X106303864Y-41215818D01*
X106485182Y-41397136D01*
X106698390Y-41539596D01*
X106935293Y-41637725D01*
X107186789Y-41687750D01*
X107443211Y-41687750D01*
X107694707Y-41637725D01*
X107931610Y-41539596D01*
X108144818Y-41397136D01*
X108326136Y-41215818D01*
X108468596Y-41002610D01*
X108566725Y-40765707D01*
X108616750Y-40514211D01*
X108616750Y-40257789D01*
X108566725Y-40006293D01*
X108468596Y-39769390D01*
X108435094Y-39719250D01*
X116170178Y-39719250D01*
X116170178Y-41052750D01*
X116182438Y-41177232D01*
X116218748Y-41296930D01*
X116277713Y-41407244D01*
X116357065Y-41503935D01*
X116453756Y-41583287D01*
X116564070Y-41642252D01*
X116683768Y-41678562D01*
X116808250Y-41690822D01*
X118141750Y-41690822D01*
X118266232Y-41678562D01*
X118385930Y-41642252D01*
X118496244Y-41583287D01*
X118592935Y-41503935D01*
X118672287Y-41407244D01*
X118731252Y-41296930D01*
X118767562Y-41177232D01*
X118779822Y-41052750D01*
X118779822Y-40254514D01*
X118934000Y-40254514D01*
X118934000Y-40517486D01*
X118985304Y-40775405D01*
X119085939Y-41018359D01*
X119232038Y-41237013D01*
X119417987Y-41422962D01*
X119636641Y-41569061D01*
X119879595Y-41669696D01*
X120137514Y-41721000D01*
X120400486Y-41721000D01*
X120658405Y-41669696D01*
X120901359Y-41569061D01*
X121120013Y-41422962D01*
X121305962Y-41237013D01*
X121452061Y-41018359D01*
X121552696Y-40775405D01*
X121604000Y-40517486D01*
X121604000Y-40254514D01*
X121552696Y-39996595D01*
X121452061Y-39753641D01*
X121305962Y-39534987D01*
X121120013Y-39349038D01*
X120901359Y-39202939D01*
X120658405Y-39102304D01*
X120400486Y-39051000D01*
X120137514Y-39051000D01*
X119879595Y-39102304D01*
X119636641Y-39202939D01*
X119417987Y-39349038D01*
X119232038Y-39534987D01*
X119085939Y-39753641D01*
X118985304Y-39996595D01*
X118934000Y-40254514D01*
X118779822Y-40254514D01*
X118779822Y-39719250D01*
X118767562Y-39594768D01*
X118731252Y-39475070D01*
X118672287Y-39364756D01*
X118592935Y-39268065D01*
X118496244Y-39188713D01*
X118385930Y-39129748D01*
X118266232Y-39093438D01*
X118141750Y-39081178D01*
X116808250Y-39081178D01*
X116683768Y-39093438D01*
X116564070Y-39129748D01*
X116453756Y-39188713D01*
X116357065Y-39268065D01*
X116277713Y-39364756D01*
X116218748Y-39475070D01*
X116182438Y-39594768D01*
X116170178Y-39719250D01*
X108435094Y-39719250D01*
X108326136Y-39556182D01*
X108144818Y-39374864D01*
X107931610Y-39232404D01*
X107694707Y-39134275D01*
X107443211Y-39084250D01*
X107186789Y-39084250D01*
X106935293Y-39134275D01*
X106698390Y-39232404D01*
X106485182Y-39374864D01*
X106303864Y-39556182D01*
X106161404Y-39769390D01*
X106063275Y-40006293D01*
X106013250Y-40257789D01*
X102895000Y-40257789D01*
X102895000Y-34524740D01*
X102909000Y-34524740D01*
X102909000Y-34817260D01*
X102966068Y-35104158D01*
X103078010Y-35374411D01*
X103240525Y-35617632D01*
X103447368Y-35824475D01*
X103621760Y-35941000D01*
X103447368Y-36057525D01*
X103240525Y-36264368D01*
X103078010Y-36507589D01*
X102966068Y-36777842D01*
X102909000Y-37064740D01*
X102909000Y-37357260D01*
X102966068Y-37644158D01*
X103078010Y-37914411D01*
X103240525Y-38157632D01*
X103447368Y-38364475D01*
X103690589Y-38526990D01*
X103960842Y-38638932D01*
X104247740Y-38696000D01*
X104540260Y-38696000D01*
X104827158Y-38638932D01*
X105097411Y-38526990D01*
X105340632Y-38364475D01*
X105547475Y-38157632D01*
X105709990Y-37914411D01*
X105821932Y-37644158D01*
X105879000Y-37357260D01*
X105879000Y-37064740D01*
X105821932Y-36777842D01*
X105709990Y-36507589D01*
X105645452Y-36411000D01*
X106765928Y-36411000D01*
X106765928Y-38011000D01*
X106778188Y-38135482D01*
X106814498Y-38255180D01*
X106873463Y-38365494D01*
X106952815Y-38462185D01*
X107049506Y-38541537D01*
X107159820Y-38600502D01*
X107279518Y-38636812D01*
X107404000Y-38649072D01*
X109004000Y-38649072D01*
X109128482Y-38636812D01*
X109248180Y-38600502D01*
X109358494Y-38541537D01*
X109455185Y-38462185D01*
X109534537Y-38365494D01*
X109593502Y-38255180D01*
X109629812Y-38135482D01*
X109630643Y-38127039D01*
X109829241Y-38325637D01*
X110064273Y-38482680D01*
X110325426Y-38590853D01*
X110602665Y-38646000D01*
X110885335Y-38646000D01*
X111162574Y-38590853D01*
X111423727Y-38482680D01*
X111658759Y-38325637D01*
X111858637Y-38125759D01*
X112014000Y-37893241D01*
X112169363Y-38125759D01*
X112369241Y-38325637D01*
X112604273Y-38482680D01*
X112865426Y-38590853D01*
X113142665Y-38646000D01*
X113425335Y-38646000D01*
X113702574Y-38590853D01*
X113963727Y-38482680D01*
X114198759Y-38325637D01*
X114398637Y-38125759D01*
X114555680Y-37890727D01*
X114560067Y-37880135D01*
X114671615Y-38066131D01*
X114860586Y-38274519D01*
X115086580Y-38442037D01*
X115340913Y-38562246D01*
X115474961Y-38602904D01*
X115697000Y-38480915D01*
X115697000Y-37338000D01*
X115951000Y-37338000D01*
X115951000Y-38480915D01*
X116173039Y-38602904D01*
X116307087Y-38562246D01*
X116561420Y-38442037D01*
X116787414Y-38274519D01*
X116976385Y-38066131D01*
X117121070Y-37824881D01*
X117215909Y-37560040D01*
X117094624Y-37338000D01*
X115951000Y-37338000D01*
X115697000Y-37338000D01*
X115677000Y-37338000D01*
X115677000Y-37084000D01*
X115697000Y-37084000D01*
X115697000Y-37064000D01*
X115951000Y-37064000D01*
X115951000Y-37084000D01*
X117094624Y-37084000D01*
X117215909Y-36861960D01*
X117210193Y-36845999D01*
X117844196Y-36845999D01*
X118487200Y-37489004D01*
X118510998Y-37518002D01*
X118626723Y-37612975D01*
X118758752Y-37683547D01*
X118902013Y-37727004D01*
X119013666Y-37738001D01*
X119013675Y-37738001D01*
X119050998Y-37741677D01*
X119088321Y-37738001D01*
X120972677Y-37738001D01*
X121009999Y-37741677D01*
X121047321Y-37738001D01*
X121047332Y-37738001D01*
X121158985Y-37727004D01*
X121302246Y-37683547D01*
X121434275Y-37612975D01*
X121550000Y-37518002D01*
X121573803Y-37488998D01*
X122159365Y-36903437D01*
X122418589Y-36955000D01*
X122691411Y-36955000D01*
X122958989Y-36901775D01*
X123211043Y-36797371D01*
X123437886Y-36645799D01*
X123630799Y-36452886D01*
X123782371Y-36226043D01*
X123886775Y-35973989D01*
X123940000Y-35706411D01*
X123940000Y-35433589D01*
X123886775Y-35166011D01*
X123782371Y-34913957D01*
X123630799Y-34687114D01*
X123562990Y-34619305D01*
X123628451Y-34553843D01*
X123511995Y-34437387D01*
X123750860Y-34371863D01*
X123866760Y-34124884D01*
X123932250Y-33860040D01*
X123944812Y-33587508D01*
X123903965Y-33317762D01*
X123811277Y-33061168D01*
X123753616Y-32953293D01*
X123756185Y-32951185D01*
X123835537Y-32854494D01*
X123894502Y-32744180D01*
X123930812Y-32624482D01*
X123943072Y-32500000D01*
X123943072Y-31000000D01*
X123930812Y-30875518D01*
X123894502Y-30755820D01*
X123835537Y-30645506D01*
X123756185Y-30548815D01*
X123659494Y-30469463D01*
X123549180Y-30410498D01*
X123429482Y-30374188D01*
X123305000Y-30361928D01*
X121805000Y-30361928D01*
X121680518Y-30374188D01*
X121560820Y-30410498D01*
X121450506Y-30469463D01*
X121353815Y-30548815D01*
X121274463Y-30645506D01*
X121215498Y-30755820D01*
X121179188Y-30875518D01*
X121166928Y-31000000D01*
X121166928Y-32500000D01*
X121179188Y-32624482D01*
X121215498Y-32744180D01*
X121274463Y-32854494D01*
X121353815Y-32951185D01*
X121356627Y-32953493D01*
X121243240Y-33195116D01*
X121177750Y-33459960D01*
X121165188Y-33732492D01*
X121206035Y-34002238D01*
X121298723Y-34258832D01*
X121359140Y-34371863D01*
X121598005Y-34437387D01*
X121481549Y-34553843D01*
X121547011Y-34619305D01*
X121479201Y-34687114D01*
X121327629Y-34913957D01*
X121223225Y-35166011D01*
X121170000Y-35433589D01*
X121170000Y-35706411D01*
X121176103Y-35737095D01*
X120763356Y-36149843D01*
X120770726Y-35950553D01*
X120731335Y-35705501D01*
X120644893Y-35472842D01*
X120600777Y-35390306D01*
X120374648Y-35339957D01*
X119686605Y-36028000D01*
X119700748Y-36042143D01*
X119524889Y-36218001D01*
X119517396Y-36218001D01*
X119507000Y-36207605D01*
X119496604Y-36218001D01*
X119489111Y-36218001D01*
X119313253Y-36042143D01*
X119327395Y-36028000D01*
X118639352Y-35339957D01*
X118453076Y-35381432D01*
X118451244Y-35380453D01*
X118307983Y-35336996D01*
X118196330Y-35325999D01*
X118196319Y-35325999D01*
X118158997Y-35322323D01*
X118121675Y-35325999D01*
X111906326Y-35325999D01*
X111869001Y-35322323D01*
X111831676Y-35325999D01*
X111831668Y-35325999D01*
X111720015Y-35336996D01*
X111576754Y-35380453D01*
X111444725Y-35451025D01*
X111329000Y-35545998D01*
X111305202Y-35574996D01*
X111067886Y-35812312D01*
X110885335Y-35776000D01*
X110602665Y-35776000D01*
X110325426Y-35831147D01*
X110064273Y-35939320D01*
X109829241Y-36096363D01*
X109630643Y-36294961D01*
X109629812Y-36286518D01*
X109593502Y-36166820D01*
X109534537Y-36056506D01*
X109455185Y-35959815D01*
X109358494Y-35880463D01*
X109248180Y-35821498D01*
X109128482Y-35785188D01*
X109004000Y-35772928D01*
X107404000Y-35772928D01*
X107279518Y-35785188D01*
X107159820Y-35821498D01*
X107049506Y-35880463D01*
X106952815Y-35959815D01*
X106873463Y-36056506D01*
X106814498Y-36166820D01*
X106778188Y-36286518D01*
X106765928Y-36411000D01*
X105645452Y-36411000D01*
X105547475Y-36264368D01*
X105340632Y-36057525D01*
X105166240Y-35941000D01*
X105340632Y-35824475D01*
X105547475Y-35617632D01*
X105709990Y-35374411D01*
X105798655Y-35160352D01*
X118818957Y-35160352D01*
X119507000Y-35848395D01*
X120195043Y-35160352D01*
X120144694Y-34934223D01*
X119919056Y-34830832D01*
X119677582Y-34773447D01*
X119429553Y-34764274D01*
X119184501Y-34803665D01*
X118951842Y-34890107D01*
X118869306Y-34934223D01*
X118818957Y-35160352D01*
X105798655Y-35160352D01*
X105821932Y-35104158D01*
X105879000Y-34817260D01*
X105879000Y-34524740D01*
X105821932Y-34237842D01*
X105709990Y-33967589D01*
X105547475Y-33724368D01*
X105340632Y-33517525D01*
X105158466Y-33395805D01*
X105275355Y-33326178D01*
X105491588Y-33131269D01*
X105665641Y-32897920D01*
X105790825Y-32635099D01*
X105835476Y-32487890D01*
X105714155Y-32258000D01*
X104521000Y-32258000D01*
X104521000Y-32278000D01*
X104267000Y-32278000D01*
X104267000Y-32258000D01*
X103073845Y-32258000D01*
X102952524Y-32487890D01*
X102997175Y-32635099D01*
X103122359Y-32897920D01*
X103296412Y-33131269D01*
X103512645Y-33326178D01*
X103629534Y-33395805D01*
X103447368Y-33517525D01*
X103240525Y-33724368D01*
X103078010Y-33967589D01*
X102966068Y-34237842D01*
X102909000Y-34524740D01*
X102895000Y-34524740D01*
X102895000Y-28741000D01*
X102905928Y-28741000D01*
X102905928Y-30441000D01*
X102918188Y-30565482D01*
X102954498Y-30685180D01*
X103013463Y-30795494D01*
X103092815Y-30892185D01*
X103189506Y-30971537D01*
X103299820Y-31030502D01*
X103380466Y-31054966D01*
X103296412Y-31130731D01*
X103122359Y-31364080D01*
X102997175Y-31626901D01*
X102952524Y-31774110D01*
X103073845Y-32004000D01*
X104267000Y-32004000D01*
X104267000Y-31984000D01*
X104521000Y-31984000D01*
X104521000Y-32004000D01*
X105714155Y-32004000D01*
X105835476Y-31774110D01*
X105790825Y-31626901D01*
X105665641Y-31364080D01*
X105491588Y-31130731D01*
X105407534Y-31054966D01*
X105488180Y-31030502D01*
X105598494Y-30971537D01*
X105695185Y-30892185D01*
X105774537Y-30795494D01*
X105833502Y-30685180D01*
X105869812Y-30565482D01*
X105882072Y-30441000D01*
X105882072Y-29449665D01*
X106769000Y-29449665D01*
X106769000Y-29732335D01*
X106824147Y-30009574D01*
X106932320Y-30270727D01*
X107089363Y-30505759D01*
X107289241Y-30705637D01*
X107524273Y-30862680D01*
X107785426Y-30970853D01*
X108062665Y-31026000D01*
X108345335Y-31026000D01*
X108622574Y-30970853D01*
X108883727Y-30862680D01*
X109118759Y-30705637D01*
X109318637Y-30505759D01*
X109474000Y-30273241D01*
X109629363Y-30505759D01*
X109829241Y-30705637D01*
X110064273Y-30862680D01*
X110325426Y-30970853D01*
X110602665Y-31026000D01*
X110885335Y-31026000D01*
X111162574Y-30970853D01*
X111423727Y-30862680D01*
X111658759Y-30705637D01*
X111858637Y-30505759D01*
X112014000Y-30273241D01*
X112169363Y-30505759D01*
X112369241Y-30705637D01*
X112604273Y-30862680D01*
X112865426Y-30970853D01*
X113142665Y-31026000D01*
X113425335Y-31026000D01*
X113702574Y-30970853D01*
X113963727Y-30862680D01*
X114198759Y-30705637D01*
X114398637Y-30505759D01*
X114554000Y-30273241D01*
X114709363Y-30505759D01*
X114909241Y-30705637D01*
X115144273Y-30862680D01*
X115405426Y-30970853D01*
X115682665Y-31026000D01*
X115965335Y-31026000D01*
X116242574Y-30970853D01*
X116404210Y-30903901D01*
X118247000Y-30903901D01*
X118247000Y-31152099D01*
X118295421Y-31395529D01*
X118390402Y-31624834D01*
X118528294Y-31831203D01*
X118703797Y-32006706D01*
X118910166Y-32144598D01*
X119139471Y-32239579D01*
X119382901Y-32288000D01*
X119631099Y-32288000D01*
X119874529Y-32239579D01*
X120103834Y-32144598D01*
X120310203Y-32006706D01*
X120485706Y-31831203D01*
X120623598Y-31624834D01*
X120718579Y-31395529D01*
X120767000Y-31152099D01*
X120767000Y-30903901D01*
X120718579Y-30660471D01*
X120623598Y-30431166D01*
X120485706Y-30224797D01*
X120310203Y-30049294D01*
X120103834Y-29911402D01*
X119874529Y-29816421D01*
X119631099Y-29768000D01*
X119382901Y-29768000D01*
X119139471Y-29816421D01*
X118910166Y-29911402D01*
X118703797Y-30049294D01*
X118528294Y-30224797D01*
X118390402Y-30431166D01*
X118295421Y-30660471D01*
X118247000Y-30903901D01*
X116404210Y-30903901D01*
X116503727Y-30862680D01*
X116738759Y-30705637D01*
X116938637Y-30505759D01*
X117095680Y-30270727D01*
X117203853Y-30009574D01*
X117259000Y-29732335D01*
X117259000Y-29449665D01*
X117203853Y-29172426D01*
X117095680Y-28911273D01*
X116938637Y-28676241D01*
X116738759Y-28476363D01*
X116503727Y-28319320D01*
X116242574Y-28211147D01*
X115965335Y-28156000D01*
X115682665Y-28156000D01*
X115405426Y-28211147D01*
X115144273Y-28319320D01*
X114909241Y-28476363D01*
X114709363Y-28676241D01*
X114554000Y-28908759D01*
X114398637Y-28676241D01*
X114198759Y-28476363D01*
X113963727Y-28319320D01*
X113702574Y-28211147D01*
X113425335Y-28156000D01*
X113142665Y-28156000D01*
X112865426Y-28211147D01*
X112604273Y-28319320D01*
X112369241Y-28476363D01*
X112169363Y-28676241D01*
X112014000Y-28908759D01*
X111858637Y-28676241D01*
X111658759Y-28476363D01*
X111423727Y-28319320D01*
X111162574Y-28211147D01*
X110885335Y-28156000D01*
X110602665Y-28156000D01*
X110325426Y-28211147D01*
X110064273Y-28319320D01*
X109829241Y-28476363D01*
X109629363Y-28676241D01*
X109474000Y-28908759D01*
X109318637Y-28676241D01*
X109118759Y-28476363D01*
X108883727Y-28319320D01*
X108622574Y-28211147D01*
X108345335Y-28156000D01*
X108062665Y-28156000D01*
X107785426Y-28211147D01*
X107524273Y-28319320D01*
X107289241Y-28476363D01*
X107089363Y-28676241D01*
X106932320Y-28911273D01*
X106824147Y-29172426D01*
X106769000Y-29449665D01*
X105882072Y-29449665D01*
X105882072Y-28741000D01*
X105869812Y-28616518D01*
X105833502Y-28496820D01*
X105774537Y-28386506D01*
X105695185Y-28289815D01*
X105598494Y-28210463D01*
X105488180Y-28151498D01*
X105368482Y-28115188D01*
X105244000Y-28102928D01*
X103544000Y-28102928D01*
X103419518Y-28115188D01*
X103299820Y-28151498D01*
X103189506Y-28210463D01*
X103092815Y-28289815D01*
X103013463Y-28386506D01*
X102954498Y-28496820D01*
X102918188Y-28616518D01*
X102905928Y-28741000D01*
X102895000Y-28741000D01*
X102895000Y-26672901D01*
X108889000Y-26672901D01*
X108889000Y-26921099D01*
X108937421Y-27164529D01*
X109032402Y-27393834D01*
X109170294Y-27600203D01*
X109345797Y-27775706D01*
X109552166Y-27913598D01*
X109781471Y-28008579D01*
X110024901Y-28057000D01*
X110273099Y-28057000D01*
X110516529Y-28008579D01*
X110745834Y-27913598D01*
X110952203Y-27775706D01*
X111063261Y-27664648D01*
X114460957Y-27664648D01*
X114511306Y-27890777D01*
X114736944Y-27994168D01*
X114978418Y-28051553D01*
X115226447Y-28060726D01*
X115471499Y-28021335D01*
X115704158Y-27934893D01*
X115786694Y-27890777D01*
X115837043Y-27664648D01*
X115149000Y-26976605D01*
X114460957Y-27664648D01*
X111063261Y-27664648D01*
X111127706Y-27600203D01*
X111265598Y-27393834D01*
X111360579Y-27164529D01*
X111409000Y-26921099D01*
X111409000Y-26874447D01*
X113885274Y-26874447D01*
X113924665Y-27119499D01*
X114011107Y-27352158D01*
X114055223Y-27434694D01*
X114281352Y-27485043D01*
X114969395Y-26797000D01*
X115328605Y-26797000D01*
X116016648Y-27485043D01*
X116242777Y-27434694D01*
X116346168Y-27209056D01*
X116403553Y-26967582D01*
X116405330Y-26919514D01*
X118934000Y-26919514D01*
X118934000Y-27182486D01*
X118985304Y-27440405D01*
X119085939Y-27683359D01*
X119232038Y-27902013D01*
X119417987Y-28087962D01*
X119636641Y-28234061D01*
X119879595Y-28334696D01*
X120137514Y-28386000D01*
X120400486Y-28386000D01*
X120658405Y-28334696D01*
X120901359Y-28234061D01*
X121120013Y-28087962D01*
X121305962Y-27902013D01*
X121452061Y-27683359D01*
X121552696Y-27440405D01*
X121604000Y-27182486D01*
X121604000Y-26919514D01*
X121552696Y-26661595D01*
X121452061Y-26418641D01*
X121305962Y-26199987D01*
X121120013Y-26014038D01*
X120901359Y-25867939D01*
X120658405Y-25767304D01*
X120400486Y-25716000D01*
X120137514Y-25716000D01*
X119879595Y-25767304D01*
X119636641Y-25867939D01*
X119417987Y-26014038D01*
X119232038Y-26199987D01*
X119085939Y-26418641D01*
X118985304Y-26661595D01*
X118934000Y-26919514D01*
X116405330Y-26919514D01*
X116412726Y-26719553D01*
X116373335Y-26474501D01*
X116286893Y-26241842D01*
X116242777Y-26159306D01*
X116016648Y-26108957D01*
X115328605Y-26797000D01*
X114969395Y-26797000D01*
X114281352Y-26108957D01*
X114055223Y-26159306D01*
X113951832Y-26384944D01*
X113894447Y-26626418D01*
X113885274Y-26874447D01*
X111409000Y-26874447D01*
X111409000Y-26672901D01*
X111360579Y-26429471D01*
X111265598Y-26200166D01*
X111127706Y-25993797D01*
X111063261Y-25929352D01*
X114460957Y-25929352D01*
X115149000Y-26617395D01*
X115837043Y-25929352D01*
X115786694Y-25703223D01*
X115561056Y-25599832D01*
X115319582Y-25542447D01*
X115071553Y-25533274D01*
X114826501Y-25572665D01*
X114593842Y-25659107D01*
X114511306Y-25703223D01*
X114460957Y-25929352D01*
X111063261Y-25929352D01*
X110952203Y-25818294D01*
X110745834Y-25680402D01*
X110516529Y-25585421D01*
X110273099Y-25537000D01*
X110024901Y-25537000D01*
X109781471Y-25585421D01*
X109552166Y-25680402D01*
X109345797Y-25818294D01*
X109170294Y-25993797D01*
X109032402Y-26200166D01*
X108937421Y-26429471D01*
X108889000Y-26672901D01*
X102895000Y-26672901D01*
X102895000Y-21712514D01*
X111441000Y-21712514D01*
X111441000Y-21975486D01*
X111492304Y-22233405D01*
X111592939Y-22476359D01*
X111739038Y-22695013D01*
X111924987Y-22880962D01*
X112143641Y-23027061D01*
X112386595Y-23127696D01*
X112644514Y-23179000D01*
X112907486Y-23179000D01*
X113165405Y-23127696D01*
X113408359Y-23027061D01*
X113627013Y-22880962D01*
X113726000Y-22781975D01*
X113824987Y-22880962D01*
X114043641Y-23027061D01*
X114286595Y-23127696D01*
X114544514Y-23179000D01*
X114807486Y-23179000D01*
X115065405Y-23127696D01*
X115308359Y-23027061D01*
X115527013Y-22880962D01*
X115712962Y-22695013D01*
X115859061Y-22476359D01*
X115959696Y-22233405D01*
X116011000Y-21975486D01*
X116011000Y-21717439D01*
X116317000Y-21717439D01*
X116317000Y-21970561D01*
X116366381Y-22218821D01*
X116463247Y-22452676D01*
X116603875Y-22663140D01*
X116782860Y-22842125D01*
X116993324Y-22982753D01*
X117227179Y-23079619D01*
X117475439Y-23129000D01*
X117728561Y-23129000D01*
X117976821Y-23079619D01*
X118210676Y-22982753D01*
X118421140Y-22842125D01*
X118533738Y-22729527D01*
X119436078Y-22729527D01*
X119489466Y-22958201D01*
X119719374Y-23064095D01*
X119965524Y-23123102D01*
X120218455Y-23132952D01*
X120468449Y-23093270D01*
X120705896Y-23005578D01*
X120794534Y-22958201D01*
X120847922Y-22729527D01*
X120142000Y-22023605D01*
X119436078Y-22729527D01*
X118533738Y-22729527D01*
X118600125Y-22663140D01*
X118740753Y-22452676D01*
X118837619Y-22218821D01*
X118872540Y-22043256D01*
X118892730Y-22170449D01*
X118980422Y-22407896D01*
X119027799Y-22496534D01*
X119256473Y-22549922D01*
X119962395Y-21844000D01*
X120321605Y-21844000D01*
X121027527Y-22549922D01*
X121256201Y-22496534D01*
X121362095Y-22266626D01*
X121421102Y-22020476D01*
X121430952Y-21767545D01*
X121391270Y-21517551D01*
X121303578Y-21280104D01*
X121256201Y-21191466D01*
X121027527Y-21138078D01*
X120321605Y-21844000D01*
X119962395Y-21844000D01*
X119256473Y-21138078D01*
X119027799Y-21191466D01*
X118921905Y-21421374D01*
X118870644Y-21635211D01*
X118837619Y-21469179D01*
X118740753Y-21235324D01*
X118600125Y-21024860D01*
X118533738Y-20958473D01*
X119436078Y-20958473D01*
X120142000Y-21664395D01*
X120847922Y-20958473D01*
X120794534Y-20729799D01*
X120564626Y-20623905D01*
X120318476Y-20564898D01*
X120065545Y-20555048D01*
X119815551Y-20594730D01*
X119578104Y-20682422D01*
X119489466Y-20729799D01*
X119436078Y-20958473D01*
X118533738Y-20958473D01*
X118421140Y-20845875D01*
X118210676Y-20705247D01*
X117976821Y-20608381D01*
X117728561Y-20559000D01*
X117475439Y-20559000D01*
X117227179Y-20608381D01*
X116993324Y-20705247D01*
X116782860Y-20845875D01*
X116603875Y-21024860D01*
X116463247Y-21235324D01*
X116366381Y-21469179D01*
X116317000Y-21717439D01*
X116011000Y-21717439D01*
X116011000Y-21712514D01*
X115959696Y-21454595D01*
X115859061Y-21211641D01*
X115712962Y-20992987D01*
X115527013Y-20807038D01*
X115308359Y-20660939D01*
X115065405Y-20560304D01*
X114807486Y-20509000D01*
X114544514Y-20509000D01*
X114286595Y-20560304D01*
X114043641Y-20660939D01*
X113824987Y-20807038D01*
X113726000Y-20906025D01*
X113627013Y-20807038D01*
X113408359Y-20660939D01*
X113165405Y-20560304D01*
X112907486Y-20509000D01*
X112644514Y-20509000D01*
X112386595Y-20560304D01*
X112143641Y-20660939D01*
X111924987Y-20807038D01*
X111739038Y-20992987D01*
X111592939Y-21211641D01*
X111492304Y-21454595D01*
X111441000Y-21712514D01*
X102895000Y-21712514D01*
X102895000Y-15646000D01*
X124460000Y-15646000D01*
X124460000Y-50775000D01*
G37*
X124460000Y-50775000D02*
X102895000Y-50775000D01*
X102895000Y-45080514D01*
X111187000Y-45080514D01*
X111187000Y-45343486D01*
X111238304Y-45601405D01*
X111338939Y-45844359D01*
X111485038Y-46063013D01*
X111670987Y-46248962D01*
X111889641Y-46395061D01*
X112132595Y-46495696D01*
X112390514Y-46547000D01*
X112653486Y-46547000D01*
X112911405Y-46495696D01*
X113154359Y-46395061D01*
X113373013Y-46248962D01*
X113472000Y-46149975D01*
X113570987Y-46248962D01*
X113789641Y-46395061D01*
X114032595Y-46495696D01*
X114290514Y-46547000D01*
X114553486Y-46547000D01*
X114811405Y-46495696D01*
X115054359Y-46395061D01*
X115273013Y-46248962D01*
X115458962Y-46063013D01*
X115605061Y-45844359D01*
X115705696Y-45601405D01*
X115757000Y-45343486D01*
X115757000Y-45085439D01*
X116444000Y-45085439D01*
X116444000Y-45338561D01*
X116493381Y-45586821D01*
X116590247Y-45820676D01*
X116730875Y-46031140D01*
X116909860Y-46210125D01*
X117120324Y-46350753D01*
X117354179Y-46447619D01*
X117602439Y-46497000D01*
X117855561Y-46497000D01*
X118103821Y-46447619D01*
X118337676Y-46350753D01*
X118548140Y-46210125D01*
X118660738Y-46097527D01*
X119563078Y-46097527D01*
X119616466Y-46326201D01*
X119846374Y-46432095D01*
X120092524Y-46491102D01*
X120345455Y-46500952D01*
X120595449Y-46461270D01*
X120832896Y-46373578D01*
X120921534Y-46326201D01*
X120974922Y-46097527D01*
X120269000Y-45391605D01*
X119563078Y-46097527D01*
X118660738Y-46097527D01*
X118727125Y-46031140D01*
X118867753Y-45820676D01*
X118964619Y-45586821D01*
X118999540Y-45411256D01*
X119019730Y-45538449D01*
X119107422Y-45775896D01*
X119154799Y-45864534D01*
X119383473Y-45917922D01*
X120089395Y-45212000D01*
X120448605Y-45212000D01*
X121154527Y-45917922D01*
X121383201Y-45864534D01*
X121489095Y-45634626D01*
X121548102Y-45388476D01*
X121557952Y-45135545D01*
X121518270Y-44885551D01*
X121430578Y-44648104D01*
X121383201Y-44559466D01*
X121154527Y-44506078D01*
X120448605Y-45212000D01*
X120089395Y-45212000D01*
X119383473Y-44506078D01*
X119154799Y-44559466D01*
X119048905Y-44789374D01*
X118997644Y-45003211D01*
X118964619Y-44837179D01*
X118867753Y-44603324D01*
X118727125Y-44392860D01*
X118660738Y-44326473D01*
X119563078Y-44326473D01*
X120269000Y-45032395D01*
X120974922Y-44326473D01*
X120921534Y-44097799D01*
X120691626Y-43991905D01*
X120445476Y-43932898D01*
X120192545Y-43923048D01*
X119942551Y-43962730D01*
X119705104Y-44050422D01*
X119616466Y-44097799D01*
X119563078Y-44326473D01*
X118660738Y-44326473D01*
X118548140Y-44213875D01*
X118337676Y-44073247D01*
X118103821Y-43976381D01*
X117855561Y-43927000D01*
X117602439Y-43927000D01*
X117354179Y-43976381D01*
X117120324Y-44073247D01*
X116909860Y-44213875D01*
X116730875Y-44392860D01*
X116590247Y-44603324D01*
X116493381Y-44837179D01*
X116444000Y-45085439D01*
X115757000Y-45085439D01*
X115757000Y-45080514D01*
X115705696Y-44822595D01*
X115605061Y-44579641D01*
X115458962Y-44360987D01*
X115273013Y-44175038D01*
X115054359Y-44028939D01*
X114811405Y-43928304D01*
X114553486Y-43877000D01*
X114290514Y-43877000D01*
X114032595Y-43928304D01*
X113789641Y-44028939D01*
X113570987Y-44175038D01*
X113472000Y-44274025D01*
X113373013Y-44175038D01*
X113154359Y-44028939D01*
X112911405Y-43928304D01*
X112653486Y-43877000D01*
X112390514Y-43877000D01*
X112132595Y-43928304D01*
X111889641Y-44028939D01*
X111670987Y-44175038D01*
X111485038Y-44360987D01*
X111338939Y-44579641D01*
X111238304Y-44822595D01*
X111187000Y-45080514D01*
X102895000Y-45080514D01*
X102895000Y-40257789D01*
X106013250Y-40257789D01*
X106013250Y-40514211D01*
X106063275Y-40765707D01*
X106161404Y-41002610D01*
X106303864Y-41215818D01*
X106485182Y-41397136D01*
X106698390Y-41539596D01*
X106935293Y-41637725D01*
X107186789Y-41687750D01*
X107443211Y-41687750D01*
X107694707Y-41637725D01*
X107931610Y-41539596D01*
X108144818Y-41397136D01*
X108326136Y-41215818D01*
X108468596Y-41002610D01*
X108566725Y-40765707D01*
X108616750Y-40514211D01*
X108616750Y-40257789D01*
X108566725Y-40006293D01*
X108468596Y-39769390D01*
X108435094Y-39719250D01*
X116170178Y-39719250D01*
X116170178Y-41052750D01*
X116182438Y-41177232D01*
X116218748Y-41296930D01*
X116277713Y-41407244D01*
X116357065Y-41503935D01*
X116453756Y-41583287D01*
X116564070Y-41642252D01*
X116683768Y-41678562D01*
X116808250Y-41690822D01*
X118141750Y-41690822D01*
X118266232Y-41678562D01*
X118385930Y-41642252D01*
X118496244Y-41583287D01*
X118592935Y-41503935D01*
X118672287Y-41407244D01*
X118731252Y-41296930D01*
X118767562Y-41177232D01*
X118779822Y-41052750D01*
X118779822Y-40254514D01*
X118934000Y-40254514D01*
X118934000Y-40517486D01*
X118985304Y-40775405D01*
X119085939Y-41018359D01*
X119232038Y-41237013D01*
X119417987Y-41422962D01*
X119636641Y-41569061D01*
X119879595Y-41669696D01*
X120137514Y-41721000D01*
X120400486Y-41721000D01*
X120658405Y-41669696D01*
X120901359Y-41569061D01*
X121120013Y-41422962D01*
X121305962Y-41237013D01*
X121452061Y-41018359D01*
X121552696Y-40775405D01*
X121604000Y-40517486D01*
X121604000Y-40254514D01*
X121552696Y-39996595D01*
X121452061Y-39753641D01*
X121305962Y-39534987D01*
X121120013Y-39349038D01*
X120901359Y-39202939D01*
X120658405Y-39102304D01*
X120400486Y-39051000D01*
X120137514Y-39051000D01*
X119879595Y-39102304D01*
X119636641Y-39202939D01*
X119417987Y-39349038D01*
X119232038Y-39534987D01*
X119085939Y-39753641D01*
X118985304Y-39996595D01*
X118934000Y-40254514D01*
X118779822Y-40254514D01*
X118779822Y-39719250D01*
X118767562Y-39594768D01*
X118731252Y-39475070D01*
X118672287Y-39364756D01*
X118592935Y-39268065D01*
X118496244Y-39188713D01*
X118385930Y-39129748D01*
X118266232Y-39093438D01*
X118141750Y-39081178D01*
X116808250Y-39081178D01*
X116683768Y-39093438D01*
X116564070Y-39129748D01*
X116453756Y-39188713D01*
X116357065Y-39268065D01*
X116277713Y-39364756D01*
X116218748Y-39475070D01*
X116182438Y-39594768D01*
X116170178Y-39719250D01*
X108435094Y-39719250D01*
X108326136Y-39556182D01*
X108144818Y-39374864D01*
X107931610Y-39232404D01*
X107694707Y-39134275D01*
X107443211Y-39084250D01*
X107186789Y-39084250D01*
X106935293Y-39134275D01*
X106698390Y-39232404D01*
X106485182Y-39374864D01*
X106303864Y-39556182D01*
X106161404Y-39769390D01*
X106063275Y-40006293D01*
X106013250Y-40257789D01*
X102895000Y-40257789D01*
X102895000Y-34524740D01*
X102909000Y-34524740D01*
X102909000Y-34817260D01*
X102966068Y-35104158D01*
X103078010Y-35374411D01*
X103240525Y-35617632D01*
X103447368Y-35824475D01*
X103621760Y-35941000D01*
X103447368Y-36057525D01*
X103240525Y-36264368D01*
X103078010Y-36507589D01*
X102966068Y-36777842D01*
X102909000Y-37064740D01*
X102909000Y-37357260D01*
X102966068Y-37644158D01*
X103078010Y-37914411D01*
X103240525Y-38157632D01*
X103447368Y-38364475D01*
X103690589Y-38526990D01*
X103960842Y-38638932D01*
X104247740Y-38696000D01*
X104540260Y-38696000D01*
X104827158Y-38638932D01*
X105097411Y-38526990D01*
X105340632Y-38364475D01*
X105547475Y-38157632D01*
X105709990Y-37914411D01*
X105821932Y-37644158D01*
X105879000Y-37357260D01*
X105879000Y-37064740D01*
X105821932Y-36777842D01*
X105709990Y-36507589D01*
X105645452Y-36411000D01*
X106765928Y-36411000D01*
X106765928Y-38011000D01*
X106778188Y-38135482D01*
X106814498Y-38255180D01*
X106873463Y-38365494D01*
X106952815Y-38462185D01*
X107049506Y-38541537D01*
X107159820Y-38600502D01*
X107279518Y-38636812D01*
X107404000Y-38649072D01*
X109004000Y-38649072D01*
X109128482Y-38636812D01*
X109248180Y-38600502D01*
X109358494Y-38541537D01*
X109455185Y-38462185D01*
X109534537Y-38365494D01*
X109593502Y-38255180D01*
X109629812Y-38135482D01*
X109630643Y-38127039D01*
X109829241Y-38325637D01*
X110064273Y-38482680D01*
X110325426Y-38590853D01*
X110602665Y-38646000D01*
X110885335Y-38646000D01*
X111162574Y-38590853D01*
X111423727Y-38482680D01*
X111658759Y-38325637D01*
X111858637Y-38125759D01*
X112014000Y-37893241D01*
X112169363Y-38125759D01*
X112369241Y-38325637D01*
X112604273Y-38482680D01*
X112865426Y-38590853D01*
X113142665Y-38646000D01*
X113425335Y-38646000D01*
X113702574Y-38590853D01*
X113963727Y-38482680D01*
X114198759Y-38325637D01*
X114398637Y-38125759D01*
X114555680Y-37890727D01*
X114560067Y-37880135D01*
X114671615Y-38066131D01*
X114860586Y-38274519D01*
X115086580Y-38442037D01*
X115340913Y-38562246D01*
X115474961Y-38602904D01*
X115697000Y-38480915D01*
X115697000Y-37338000D01*
X115951000Y-37338000D01*
X115951000Y-38480915D01*
X116173039Y-38602904D01*
X116307087Y-38562246D01*
X116561420Y-38442037D01*
X116787414Y-38274519D01*
X116976385Y-38066131D01*
X117121070Y-37824881D01*
X117215909Y-37560040D01*
X117094624Y-37338000D01*
X115951000Y-37338000D01*
X115697000Y-37338000D01*
X115677000Y-37338000D01*
X115677000Y-37084000D01*
X115697000Y-37084000D01*
X115697000Y-37064000D01*
X115951000Y-37064000D01*
X115951000Y-37084000D01*
X117094624Y-37084000D01*
X117215909Y-36861960D01*
X117210193Y-36845999D01*
X117844196Y-36845999D01*
X118487200Y-37489004D01*
X118510998Y-37518002D01*
X118626723Y-37612975D01*
X118758752Y-37683547D01*
X118902013Y-37727004D01*
X119013666Y-37738001D01*
X119013675Y-37738001D01*
X119050998Y-37741677D01*
X119088321Y-37738001D01*
X120972677Y-37738001D01*
X121009999Y-37741677D01*
X121047321Y-37738001D01*
X121047332Y-37738001D01*
X121158985Y-37727004D01*
X121302246Y-37683547D01*
X121434275Y-37612975D01*
X121550000Y-37518002D01*
X121573803Y-37488998D01*
X122159365Y-36903437D01*
X122418589Y-36955000D01*
X122691411Y-36955000D01*
X122958989Y-36901775D01*
X123211043Y-36797371D01*
X123437886Y-36645799D01*
X123630799Y-36452886D01*
X123782371Y-36226043D01*
X123886775Y-35973989D01*
X123940000Y-35706411D01*
X123940000Y-35433589D01*
X123886775Y-35166011D01*
X123782371Y-34913957D01*
X123630799Y-34687114D01*
X123562990Y-34619305D01*
X123628451Y-34553843D01*
X123511995Y-34437387D01*
X123750860Y-34371863D01*
X123866760Y-34124884D01*
X123932250Y-33860040D01*
X123944812Y-33587508D01*
X123903965Y-33317762D01*
X123811277Y-33061168D01*
X123753616Y-32953293D01*
X123756185Y-32951185D01*
X123835537Y-32854494D01*
X123894502Y-32744180D01*
X123930812Y-32624482D01*
X123943072Y-32500000D01*
X123943072Y-31000000D01*
X123930812Y-30875518D01*
X123894502Y-30755820D01*
X123835537Y-30645506D01*
X123756185Y-30548815D01*
X123659494Y-30469463D01*
X123549180Y-30410498D01*
X123429482Y-30374188D01*
X123305000Y-30361928D01*
X121805000Y-30361928D01*
X121680518Y-30374188D01*
X121560820Y-30410498D01*
X121450506Y-30469463D01*
X121353815Y-30548815D01*
X121274463Y-30645506D01*
X121215498Y-30755820D01*
X121179188Y-30875518D01*
X121166928Y-31000000D01*
X121166928Y-32500000D01*
X121179188Y-32624482D01*
X121215498Y-32744180D01*
X121274463Y-32854494D01*
X121353815Y-32951185D01*
X121356627Y-32953493D01*
X121243240Y-33195116D01*
X121177750Y-33459960D01*
X121165188Y-33732492D01*
X121206035Y-34002238D01*
X121298723Y-34258832D01*
X121359140Y-34371863D01*
X121598005Y-34437387D01*
X121481549Y-34553843D01*
X121547011Y-34619305D01*
X121479201Y-34687114D01*
X121327629Y-34913957D01*
X121223225Y-35166011D01*
X121170000Y-35433589D01*
X121170000Y-35706411D01*
X121176103Y-35737095D01*
X120763356Y-36149843D01*
X120770726Y-35950553D01*
X120731335Y-35705501D01*
X120644893Y-35472842D01*
X120600777Y-35390306D01*
X120374648Y-35339957D01*
X119686605Y-36028000D01*
X119700748Y-36042143D01*
X119524889Y-36218001D01*
X119517396Y-36218001D01*
X119507000Y-36207605D01*
X119496604Y-36218001D01*
X119489111Y-36218001D01*
X119313253Y-36042143D01*
X119327395Y-36028000D01*
X118639352Y-35339957D01*
X118453076Y-35381432D01*
X118451244Y-35380453D01*
X118307983Y-35336996D01*
X118196330Y-35325999D01*
X118196319Y-35325999D01*
X118158997Y-35322323D01*
X118121675Y-35325999D01*
X111906326Y-35325999D01*
X111869001Y-35322323D01*
X111831676Y-35325999D01*
X111831668Y-35325999D01*
X111720015Y-35336996D01*
X111576754Y-35380453D01*
X111444725Y-35451025D01*
X111329000Y-35545998D01*
X111305202Y-35574996D01*
X111067886Y-35812312D01*
X110885335Y-35776000D01*
X110602665Y-35776000D01*
X110325426Y-35831147D01*
X110064273Y-35939320D01*
X109829241Y-36096363D01*
X109630643Y-36294961D01*
X109629812Y-36286518D01*
X109593502Y-36166820D01*
X109534537Y-36056506D01*
X109455185Y-35959815D01*
X109358494Y-35880463D01*
X109248180Y-35821498D01*
X109128482Y-35785188D01*
X109004000Y-35772928D01*
X107404000Y-35772928D01*
X107279518Y-35785188D01*
X107159820Y-35821498D01*
X107049506Y-35880463D01*
X106952815Y-35959815D01*
X106873463Y-36056506D01*
X106814498Y-36166820D01*
X106778188Y-36286518D01*
X106765928Y-36411000D01*
X105645452Y-36411000D01*
X105547475Y-36264368D01*
X105340632Y-36057525D01*
X105166240Y-35941000D01*
X105340632Y-35824475D01*
X105547475Y-35617632D01*
X105709990Y-35374411D01*
X105798655Y-35160352D01*
X118818957Y-35160352D01*
X119507000Y-35848395D01*
X120195043Y-35160352D01*
X120144694Y-34934223D01*
X119919056Y-34830832D01*
X119677582Y-34773447D01*
X119429553Y-34764274D01*
X119184501Y-34803665D01*
X118951842Y-34890107D01*
X118869306Y-34934223D01*
X118818957Y-35160352D01*
X105798655Y-35160352D01*
X105821932Y-35104158D01*
X105879000Y-34817260D01*
X105879000Y-34524740D01*
X105821932Y-34237842D01*
X105709990Y-33967589D01*
X105547475Y-33724368D01*
X105340632Y-33517525D01*
X105158466Y-33395805D01*
X105275355Y-33326178D01*
X105491588Y-33131269D01*
X105665641Y-32897920D01*
X105790825Y-32635099D01*
X105835476Y-32487890D01*
X105714155Y-32258000D01*
X104521000Y-32258000D01*
X104521000Y-32278000D01*
X104267000Y-32278000D01*
X104267000Y-32258000D01*
X103073845Y-32258000D01*
X102952524Y-32487890D01*
X102997175Y-32635099D01*
X103122359Y-32897920D01*
X103296412Y-33131269D01*
X103512645Y-33326178D01*
X103629534Y-33395805D01*
X103447368Y-33517525D01*
X103240525Y-33724368D01*
X103078010Y-33967589D01*
X102966068Y-34237842D01*
X102909000Y-34524740D01*
X102895000Y-34524740D01*
X102895000Y-28741000D01*
X102905928Y-28741000D01*
X102905928Y-30441000D01*
X102918188Y-30565482D01*
X102954498Y-30685180D01*
X103013463Y-30795494D01*
X103092815Y-30892185D01*
X103189506Y-30971537D01*
X103299820Y-31030502D01*
X103380466Y-31054966D01*
X103296412Y-31130731D01*
X103122359Y-31364080D01*
X102997175Y-31626901D01*
X102952524Y-31774110D01*
X103073845Y-32004000D01*
X104267000Y-32004000D01*
X104267000Y-31984000D01*
X104521000Y-31984000D01*
X104521000Y-32004000D01*
X105714155Y-32004000D01*
X105835476Y-31774110D01*
X105790825Y-31626901D01*
X105665641Y-31364080D01*
X105491588Y-31130731D01*
X105407534Y-31054966D01*
X105488180Y-31030502D01*
X105598494Y-30971537D01*
X105695185Y-30892185D01*
X105774537Y-30795494D01*
X105833502Y-30685180D01*
X105869812Y-30565482D01*
X105882072Y-30441000D01*
X105882072Y-29449665D01*
X106769000Y-29449665D01*
X106769000Y-29732335D01*
X106824147Y-30009574D01*
X106932320Y-30270727D01*
X107089363Y-30505759D01*
X107289241Y-30705637D01*
X107524273Y-30862680D01*
X107785426Y-30970853D01*
X108062665Y-31026000D01*
X108345335Y-31026000D01*
X108622574Y-30970853D01*
X108883727Y-30862680D01*
X109118759Y-30705637D01*
X109318637Y-30505759D01*
X109474000Y-30273241D01*
X109629363Y-30505759D01*
X109829241Y-30705637D01*
X110064273Y-30862680D01*
X110325426Y-30970853D01*
X110602665Y-31026000D01*
X110885335Y-31026000D01*
X111162574Y-30970853D01*
X111423727Y-30862680D01*
X111658759Y-30705637D01*
X111858637Y-30505759D01*
X112014000Y-30273241D01*
X112169363Y-30505759D01*
X112369241Y-30705637D01*
X112604273Y-30862680D01*
X112865426Y-30970853D01*
X113142665Y-31026000D01*
X113425335Y-31026000D01*
X113702574Y-30970853D01*
X113963727Y-30862680D01*
X114198759Y-30705637D01*
X114398637Y-30505759D01*
X114554000Y-30273241D01*
X114709363Y-30505759D01*
X114909241Y-30705637D01*
X115144273Y-30862680D01*
X115405426Y-30970853D01*
X115682665Y-31026000D01*
X115965335Y-31026000D01*
X116242574Y-30970853D01*
X116404210Y-30903901D01*
X118247000Y-30903901D01*
X118247000Y-31152099D01*
X118295421Y-31395529D01*
X118390402Y-31624834D01*
X118528294Y-31831203D01*
X118703797Y-32006706D01*
X118910166Y-32144598D01*
X119139471Y-32239579D01*
X119382901Y-32288000D01*
X119631099Y-32288000D01*
X119874529Y-32239579D01*
X120103834Y-32144598D01*
X120310203Y-32006706D01*
X120485706Y-31831203D01*
X120623598Y-31624834D01*
X120718579Y-31395529D01*
X120767000Y-31152099D01*
X120767000Y-30903901D01*
X120718579Y-30660471D01*
X120623598Y-30431166D01*
X120485706Y-30224797D01*
X120310203Y-30049294D01*
X120103834Y-29911402D01*
X119874529Y-29816421D01*
X119631099Y-29768000D01*
X119382901Y-29768000D01*
X119139471Y-29816421D01*
X118910166Y-29911402D01*
X118703797Y-30049294D01*
X118528294Y-30224797D01*
X118390402Y-30431166D01*
X118295421Y-30660471D01*
X118247000Y-30903901D01*
X116404210Y-30903901D01*
X116503727Y-30862680D01*
X116738759Y-30705637D01*
X116938637Y-30505759D01*
X117095680Y-30270727D01*
X117203853Y-30009574D01*
X117259000Y-29732335D01*
X117259000Y-29449665D01*
X117203853Y-29172426D01*
X117095680Y-28911273D01*
X116938637Y-28676241D01*
X116738759Y-28476363D01*
X116503727Y-28319320D01*
X116242574Y-28211147D01*
X115965335Y-28156000D01*
X115682665Y-28156000D01*
X115405426Y-28211147D01*
X115144273Y-28319320D01*
X114909241Y-28476363D01*
X114709363Y-28676241D01*
X114554000Y-28908759D01*
X114398637Y-28676241D01*
X114198759Y-28476363D01*
X113963727Y-28319320D01*
X113702574Y-28211147D01*
X113425335Y-28156000D01*
X113142665Y-28156000D01*
X112865426Y-28211147D01*
X112604273Y-28319320D01*
X112369241Y-28476363D01*
X112169363Y-28676241D01*
X112014000Y-28908759D01*
X111858637Y-28676241D01*
X111658759Y-28476363D01*
X111423727Y-28319320D01*
X111162574Y-28211147D01*
X110885335Y-28156000D01*
X110602665Y-28156000D01*
X110325426Y-28211147D01*
X110064273Y-28319320D01*
X109829241Y-28476363D01*
X109629363Y-28676241D01*
X109474000Y-28908759D01*
X109318637Y-28676241D01*
X109118759Y-28476363D01*
X108883727Y-28319320D01*
X108622574Y-28211147D01*
X108345335Y-28156000D01*
X108062665Y-28156000D01*
X107785426Y-28211147D01*
X107524273Y-28319320D01*
X107289241Y-28476363D01*
X107089363Y-28676241D01*
X106932320Y-28911273D01*
X106824147Y-29172426D01*
X106769000Y-29449665D01*
X105882072Y-29449665D01*
X105882072Y-28741000D01*
X105869812Y-28616518D01*
X105833502Y-28496820D01*
X105774537Y-28386506D01*
X105695185Y-28289815D01*
X105598494Y-28210463D01*
X105488180Y-28151498D01*
X105368482Y-28115188D01*
X105244000Y-28102928D01*
X103544000Y-28102928D01*
X103419518Y-28115188D01*
X103299820Y-28151498D01*
X103189506Y-28210463D01*
X103092815Y-28289815D01*
X103013463Y-28386506D01*
X102954498Y-28496820D01*
X102918188Y-28616518D01*
X102905928Y-28741000D01*
X102895000Y-28741000D01*
X102895000Y-26672901D01*
X108889000Y-26672901D01*
X108889000Y-26921099D01*
X108937421Y-27164529D01*
X109032402Y-27393834D01*
X109170294Y-27600203D01*
X109345797Y-27775706D01*
X109552166Y-27913598D01*
X109781471Y-28008579D01*
X110024901Y-28057000D01*
X110273099Y-28057000D01*
X110516529Y-28008579D01*
X110745834Y-27913598D01*
X110952203Y-27775706D01*
X111063261Y-27664648D01*
X114460957Y-27664648D01*
X114511306Y-27890777D01*
X114736944Y-27994168D01*
X114978418Y-28051553D01*
X115226447Y-28060726D01*
X115471499Y-28021335D01*
X115704158Y-27934893D01*
X115786694Y-27890777D01*
X115837043Y-27664648D01*
X115149000Y-26976605D01*
X114460957Y-27664648D01*
X111063261Y-27664648D01*
X111127706Y-27600203D01*
X111265598Y-27393834D01*
X111360579Y-27164529D01*
X111409000Y-26921099D01*
X111409000Y-26874447D01*
X113885274Y-26874447D01*
X113924665Y-27119499D01*
X114011107Y-27352158D01*
X114055223Y-27434694D01*
X114281352Y-27485043D01*
X114969395Y-26797000D01*
X115328605Y-26797000D01*
X116016648Y-27485043D01*
X116242777Y-27434694D01*
X116346168Y-27209056D01*
X116403553Y-26967582D01*
X116405330Y-26919514D01*
X118934000Y-26919514D01*
X118934000Y-27182486D01*
X118985304Y-27440405D01*
X119085939Y-27683359D01*
X119232038Y-27902013D01*
X119417987Y-28087962D01*
X119636641Y-28234061D01*
X119879595Y-28334696D01*
X120137514Y-28386000D01*
X120400486Y-28386000D01*
X120658405Y-28334696D01*
X120901359Y-28234061D01*
X121120013Y-28087962D01*
X121305962Y-27902013D01*
X121452061Y-27683359D01*
X121552696Y-27440405D01*
X121604000Y-27182486D01*
X121604000Y-26919514D01*
X121552696Y-26661595D01*
X121452061Y-26418641D01*
X121305962Y-26199987D01*
X121120013Y-26014038D01*
X120901359Y-25867939D01*
X120658405Y-25767304D01*
X120400486Y-25716000D01*
X120137514Y-25716000D01*
X119879595Y-25767304D01*
X119636641Y-25867939D01*
X119417987Y-26014038D01*
X119232038Y-26199987D01*
X119085939Y-26418641D01*
X118985304Y-26661595D01*
X118934000Y-26919514D01*
X116405330Y-26919514D01*
X116412726Y-26719553D01*
X116373335Y-26474501D01*
X116286893Y-26241842D01*
X116242777Y-26159306D01*
X116016648Y-26108957D01*
X115328605Y-26797000D01*
X114969395Y-26797000D01*
X114281352Y-26108957D01*
X114055223Y-26159306D01*
X113951832Y-26384944D01*
X113894447Y-26626418D01*
X113885274Y-26874447D01*
X111409000Y-26874447D01*
X111409000Y-26672901D01*
X111360579Y-26429471D01*
X111265598Y-26200166D01*
X111127706Y-25993797D01*
X111063261Y-25929352D01*
X114460957Y-25929352D01*
X115149000Y-26617395D01*
X115837043Y-25929352D01*
X115786694Y-25703223D01*
X115561056Y-25599832D01*
X115319582Y-25542447D01*
X115071553Y-25533274D01*
X114826501Y-25572665D01*
X114593842Y-25659107D01*
X114511306Y-25703223D01*
X114460957Y-25929352D01*
X111063261Y-25929352D01*
X110952203Y-25818294D01*
X110745834Y-25680402D01*
X110516529Y-25585421D01*
X110273099Y-25537000D01*
X110024901Y-25537000D01*
X109781471Y-25585421D01*
X109552166Y-25680402D01*
X109345797Y-25818294D01*
X109170294Y-25993797D01*
X109032402Y-26200166D01*
X108937421Y-26429471D01*
X108889000Y-26672901D01*
X102895000Y-26672901D01*
X102895000Y-21712514D01*
X111441000Y-21712514D01*
X111441000Y-21975486D01*
X111492304Y-22233405D01*
X111592939Y-22476359D01*
X111739038Y-22695013D01*
X111924987Y-22880962D01*
X112143641Y-23027061D01*
X112386595Y-23127696D01*
X112644514Y-23179000D01*
X112907486Y-23179000D01*
X113165405Y-23127696D01*
X113408359Y-23027061D01*
X113627013Y-22880962D01*
X113726000Y-22781975D01*
X113824987Y-22880962D01*
X114043641Y-23027061D01*
X114286595Y-23127696D01*
X114544514Y-23179000D01*
X114807486Y-23179000D01*
X115065405Y-23127696D01*
X115308359Y-23027061D01*
X115527013Y-22880962D01*
X115712962Y-22695013D01*
X115859061Y-22476359D01*
X115959696Y-22233405D01*
X116011000Y-21975486D01*
X116011000Y-21717439D01*
X116317000Y-21717439D01*
X116317000Y-21970561D01*
X116366381Y-22218821D01*
X116463247Y-22452676D01*
X116603875Y-22663140D01*
X116782860Y-22842125D01*
X116993324Y-22982753D01*
X117227179Y-23079619D01*
X117475439Y-23129000D01*
X117728561Y-23129000D01*
X117976821Y-23079619D01*
X118210676Y-22982753D01*
X118421140Y-22842125D01*
X118533738Y-22729527D01*
X119436078Y-22729527D01*
X119489466Y-22958201D01*
X119719374Y-23064095D01*
X119965524Y-23123102D01*
X120218455Y-23132952D01*
X120468449Y-23093270D01*
X120705896Y-23005578D01*
X120794534Y-22958201D01*
X120847922Y-22729527D01*
X120142000Y-22023605D01*
X119436078Y-22729527D01*
X118533738Y-22729527D01*
X118600125Y-22663140D01*
X118740753Y-22452676D01*
X118837619Y-22218821D01*
X118872540Y-22043256D01*
X118892730Y-22170449D01*
X118980422Y-22407896D01*
X119027799Y-22496534D01*
X119256473Y-22549922D01*
X119962395Y-21844000D01*
X120321605Y-21844000D01*
X121027527Y-22549922D01*
X121256201Y-22496534D01*
X121362095Y-22266626D01*
X121421102Y-22020476D01*
X121430952Y-21767545D01*
X121391270Y-21517551D01*
X121303578Y-21280104D01*
X121256201Y-21191466D01*
X121027527Y-21138078D01*
X120321605Y-21844000D01*
X119962395Y-21844000D01*
X119256473Y-21138078D01*
X119027799Y-21191466D01*
X118921905Y-21421374D01*
X118870644Y-21635211D01*
X118837619Y-21469179D01*
X118740753Y-21235324D01*
X118600125Y-21024860D01*
X118533738Y-20958473D01*
X119436078Y-20958473D01*
X120142000Y-21664395D01*
X120847922Y-20958473D01*
X120794534Y-20729799D01*
X120564626Y-20623905D01*
X120318476Y-20564898D01*
X120065545Y-20555048D01*
X119815551Y-20594730D01*
X119578104Y-20682422D01*
X119489466Y-20729799D01*
X119436078Y-20958473D01*
X118533738Y-20958473D01*
X118421140Y-20845875D01*
X118210676Y-20705247D01*
X117976821Y-20608381D01*
X117728561Y-20559000D01*
X117475439Y-20559000D01*
X117227179Y-20608381D01*
X116993324Y-20705247D01*
X116782860Y-20845875D01*
X116603875Y-21024860D01*
X116463247Y-21235324D01*
X116366381Y-21469179D01*
X116317000Y-21717439D01*
X116011000Y-21717439D01*
X116011000Y-21712514D01*
X115959696Y-21454595D01*
X115859061Y-21211641D01*
X115712962Y-20992987D01*
X115527013Y-20807038D01*
X115308359Y-20660939D01*
X115065405Y-20560304D01*
X114807486Y-20509000D01*
X114544514Y-20509000D01*
X114286595Y-20560304D01*
X114043641Y-20660939D01*
X113824987Y-20807038D01*
X113726000Y-20906025D01*
X113627013Y-20807038D01*
X113408359Y-20660939D01*
X113165405Y-20560304D01*
X112907486Y-20509000D01*
X112644514Y-20509000D01*
X112386595Y-20560304D01*
X112143641Y-20660939D01*
X111924987Y-20807038D01*
X111739038Y-20992987D01*
X111592939Y-21211641D01*
X111492304Y-21454595D01*
X111441000Y-21712514D01*
X102895000Y-21712514D01*
X102895000Y-15646000D01*
X124460000Y-15646000D01*
X124460000Y-50775000D01*
G36*
X122748748Y-33645858D02*
G01*
X122734605Y-33660000D01*
X122748748Y-33674143D01*
X122569143Y-33853748D01*
X122555000Y-33839605D01*
X122540858Y-33853748D01*
X122361253Y-33674143D01*
X122375395Y-33660000D01*
X122361253Y-33645858D01*
X122540858Y-33466253D01*
X122555000Y-33480395D01*
X122569143Y-33466253D01*
X122748748Y-33645858D01*
G37*
X122748748Y-33645858D02*
X122734605Y-33660000D01*
X122748748Y-33674143D01*
X122569143Y-33853748D01*
X122555000Y-33839605D01*
X122540858Y-33853748D01*
X122361253Y-33674143D01*
X122375395Y-33660000D01*
X122361253Y-33645858D01*
X122540858Y-33466253D01*
X122555000Y-33480395D01*
X122569143Y-33466253D01*
X122748748Y-33645858D01*
%TD*%
M02*
