%TF.GenerationSoftware,KiCad,Pcbnew,5.1.6+dfsg1-1*%
%TF.CreationDate,2021-01-11T22:17:59-08:00*%
%TF.ProjectId,high-current-sense-relay,68696768-2d63-4757-9272-656e742d7365,rev?*%
%TF.SameCoordinates,Original*%
%TF.FileFunction,Copper,L1,Top*%
%TF.FilePolarity,Positive*%
%FSLAX46Y46*%
G04 Gerber Fmt 4.6, Leading zero omitted, Abs format (unit mm)*
G04 Created by KiCad (PCBNEW 5.1.6+dfsg1-1) date 2021-01-11 22:17:59*
%MOMM*%
%LPD*%
G01*
G04 APERTURE LIST*
%TA.AperFunction,ComponentPad*%
%ADD10C,12.800000*%
%TD*%
%TA.AperFunction,ComponentPad*%
%ADD11C,0.900000*%
%TD*%
%TA.AperFunction,ComponentPad*%
%ADD12C,1.250000*%
%TD*%
%TA.AperFunction,ComponentPad*%
%ADD13O,1.400000X1.400000*%
%TD*%
%TA.AperFunction,ComponentPad*%
%ADD14C,1.400000*%
%TD*%
%TA.AperFunction,ComponentPad*%
%ADD15C,1.333500*%
%TD*%
%TA.AperFunction,ComponentPad*%
%ADD16R,1.333500X1.333500*%
%TD*%
%TA.AperFunction,ComponentPad*%
%ADD17C,1.300000*%
%TD*%
%TA.AperFunction,ComponentPad*%
%ADD18R,1.700000X1.700000*%
%TD*%
%TA.AperFunction,ComponentPad*%
%ADD19O,1.700000X1.700000*%
%TD*%
%TA.AperFunction,ComponentPad*%
%ADD20R,1.600000X1.600000*%
%TD*%
%TA.AperFunction,ComponentPad*%
%ADD21O,1.600000X1.600000*%
%TD*%
%TA.AperFunction,SMDPad,CuDef*%
%ADD22R,0.600000X1.200000*%
%TD*%
%TA.AperFunction,ComponentPad*%
%ADD23C,0.800000*%
%TD*%
%TA.AperFunction,ComponentPad*%
%ADD24C,1.500000*%
%TD*%
%TA.AperFunction,ComponentPad*%
%ADD25R,1.500000X1.500000*%
%TD*%
%TA.AperFunction,ComponentPad*%
%ADD26O,6.000000X9.000000*%
%TD*%
%TA.AperFunction,ComponentPad*%
%ADD27O,6.000001X9.000000*%
%TD*%
%TA.AperFunction,Conductor*%
%ADD28C,0.250000*%
%TD*%
%TA.AperFunction,Conductor*%
%ADD29C,0.254000*%
%TD*%
G04 APERTURE END LIST*
D10*
%TO.P,J1,1*%
%TO.N,IP-*%
X155829000Y-43434000D03*
D11*
X151029000Y-43434000D03*
X152434887Y-40039887D03*
X155829000Y-38634000D03*
X159223113Y-40039887D03*
X160629000Y-43434000D03*
X159223113Y-46828113D03*
X155829000Y-48234000D03*
X152434887Y-46828113D03*
%TD*%
D10*
%TO.P,J2,1*%
%TO.N,IP+*%
X155702000Y-23749000D03*
D11*
X150902000Y-23749000D03*
X152307887Y-20354887D03*
X155702000Y-18949000D03*
X159096113Y-20354887D03*
X160502000Y-23749000D03*
X159096113Y-27143113D03*
X155702000Y-28549000D03*
X152307887Y-27143113D03*
%TD*%
D12*
%TO.P,C2,1*%
%TO.N,+3V3*%
X119507000Y-31028000D03*
%TO.P,C2,2*%
%TO.N,GND*%
X119507000Y-36028000D03*
%TD*%
D13*
%TO.P,R2,2*%
%TO.N,IP+*%
X127889000Y-27051000D03*
D14*
%TO.P,R2,1*%
%TO.N,Net-(D1-Pad2)*%
X120269000Y-27051000D03*
%TD*%
D13*
%TO.P,R1,2*%
%TO.N,Net-(D1-Pad2)*%
X120269000Y-40386000D03*
D14*
%TO.P,R1,1*%
%TO.N,IP-*%
X127889000Y-40386000D03*
%TD*%
D12*
%TO.P,C1,1*%
%TO.N,+3V3*%
X110149000Y-26797000D03*
%TO.P,C1,2*%
%TO.N,GND*%
X115149000Y-26797000D03*
%TD*%
D15*
%TO.P,D1,1*%
%TO.N,+3V3*%
X107315000Y-40386000D03*
D16*
%TO.P,D1,2*%
%TO.N,Net-(D1-Pad2)*%
X117475000Y-40386000D03*
%TD*%
D17*
%TO.P,D2,2*%
%TO.N,Net-(D2-Pad2)*%
X117729000Y-45212000D03*
%TO.P,D2,1*%
%TO.N,GND*%
X120269000Y-45212000D03*
%TD*%
%TO.P,D3,1*%
%TO.N,GND*%
X120142000Y-21844000D03*
%TO.P,D3,2*%
%TO.N,Net-(D3-Pad2)*%
X117602000Y-21844000D03*
%TD*%
D18*
%TO.P,J3,1*%
%TO.N,+3V3*%
X104394000Y-29591000D03*
D19*
%TO.P,J3,2*%
%TO.N,GND*%
X104394000Y-32131000D03*
%TO.P,J3,3*%
%TO.N,SDA*%
X104394000Y-34671000D03*
%TO.P,J3,4*%
%TO.N,SCL*%
X104394000Y-37211000D03*
%TD*%
D14*
%TO.P,R3,1*%
%TO.N,+3V3*%
X112522000Y-45212000D03*
D13*
%TO.P,R3,2*%
%TO.N,Net-(D2-Pad2)*%
X114422000Y-45212000D03*
%TD*%
%TO.P,R4,2*%
%TO.N,Net-(D3-Pad2)*%
X114676000Y-21844000D03*
D14*
%TO.P,R4,1*%
%TO.N,IOn*%
X112776000Y-21844000D03*
%TD*%
D20*
%TO.P,U1,1*%
%TO.N,Net-(U1-Pad1)*%
X108204000Y-37211000D03*
D21*
%TO.P,U1,5*%
%TO.N,SDA*%
X115824000Y-29591000D03*
%TO.P,U1,2*%
%TO.N,ISense*%
X110744000Y-37211000D03*
%TO.P,U1,6*%
%TO.N,IOn*%
X113284000Y-29591000D03*
%TO.P,U1,3*%
%TO.N,VSense*%
X113284000Y-37211000D03*
%TO.P,U1,7*%
%TO.N,SCL*%
X110744000Y-29591000D03*
%TO.P,U1,4*%
%TO.N,GND*%
X115824000Y-37211000D03*
%TO.P,U1,8*%
%TO.N,+3V3*%
X108204000Y-29591000D03*
%TD*%
D22*
%TO.P,U2,1*%
%TO.N,VSense*%
X109789000Y-42692000D03*
%TO.P,U2,2*%
%TO.N,GND*%
X108839000Y-42692000D03*
%TO.P,U2,3*%
%TO.N,Net-(D1-Pad2)*%
X107889000Y-42692000D03*
%TO.P,U2,4*%
%TO.N,VSense*%
X107889000Y-45192000D03*
%TO.P,U2,5*%
%TO.N,+3V3*%
X109789000Y-45192000D03*
%TD*%
D23*
%TO.P,U3,4*%
%TO.N,IP-*%
X143325000Y-42610000D03*
X146005000Y-36660000D03*
X146005000Y-37990000D03*
X146005000Y-39330000D03*
X146005000Y-40660000D03*
X141905000Y-36660000D03*
X141905000Y-37990000D03*
X141905000Y-39330000D03*
X141905000Y-40660000D03*
X144585000Y-42610000D03*
X145615000Y-41860000D03*
X142295000Y-41860000D03*
%TA.AperFunction,ComponentPad*%
G36*
G01*
X144222477Y-34540953D02*
X144222477Y-34540953D01*
G75*
G02*
X144754047Y-34347477I362523J-169047D01*
G01*
X144754047Y-34347477D01*
G75*
G02*
X144947523Y-34879047I-169047J-362523D01*
G01*
X144947523Y-34879047D01*
G75*
G02*
X144415953Y-35072523I-362523J169047D01*
G01*
X144415953Y-35072523D01*
G75*
G02*
X144222477Y-34540953I169047J362523D01*
G01*
G37*
%TD.AperFunction*%
%TA.AperFunction,ComponentPad*%
G36*
G01*
X143687523Y-34540953D02*
X143687523Y-34540953D01*
G75*
G02*
X143494047Y-35072523I-362523J-169047D01*
G01*
X143494047Y-35072523D01*
G75*
G02*
X142962477Y-34879047I-169047J362523D01*
G01*
X142962477Y-34879047D01*
G75*
G02*
X143155953Y-34347477I362523J169047D01*
G01*
X143155953Y-34347477D01*
G75*
G02*
X143687523Y-34540953I169047J-362523D01*
G01*
G37*
%TD.AperFunction*%
X145615000Y-35460000D03*
X142295000Y-35460000D03*
%TO.P,U3,5*%
%TO.N,IP+*%
X146005000Y-30660000D03*
X146005000Y-26660000D03*
X146005000Y-27990000D03*
X146005000Y-29330000D03*
X141905000Y-26660000D03*
X141905000Y-30660000D03*
X141905000Y-27990000D03*
X141905000Y-29330000D03*
X145615000Y-25460000D03*
X142295000Y-25460000D03*
X143325000Y-24710000D03*
X144585000Y-24710000D03*
X145615000Y-31860000D03*
X142295000Y-31860000D03*
%TA.AperFunction,ComponentPad*%
G36*
G01*
X142962477Y-32440953D02*
X142962477Y-32440953D01*
G75*
G02*
X143494047Y-32247477I362523J-169047D01*
G01*
X143494047Y-32247477D01*
G75*
G02*
X143687523Y-32779047I-169047J-362523D01*
G01*
X143687523Y-32779047D01*
G75*
G02*
X143155953Y-32972523I-362523J169047D01*
G01*
X143155953Y-32972523D01*
G75*
G02*
X142962477Y-32440953I169047J362523D01*
G01*
G37*
%TD.AperFunction*%
%TA.AperFunction,ComponentPad*%
G36*
G01*
X144947523Y-32440953D02*
X144947523Y-32440953D01*
G75*
G02*
X144754047Y-32972523I-362523J-169047D01*
G01*
X144754047Y-32972523D01*
G75*
G02*
X144222477Y-32779047I-169047J362523D01*
G01*
X144222477Y-32779047D01*
G75*
G02*
X144415953Y-32247477I362523J169047D01*
G01*
X144415953Y-32247477D01*
G75*
G02*
X144947523Y-32440953I169047J-362523D01*
G01*
G37*
%TD.AperFunction*%
D24*
%TO.P,U3,2*%
%TO.N,GND*%
X122555000Y-33660000D03*
%TO.P,U3,3*%
%TO.N,ISense*%
X122555000Y-35570000D03*
D25*
%TO.P,U3,1*%
%TO.N,+3V3*%
X122555000Y-31750000D03*
D26*
%TO.P,U3,4*%
%TO.N,IP-*%
X143955000Y-38660000D03*
D27*
%TO.P,U3,5*%
%TO.N,IP+*%
X143955000Y-28660000D03*
%TD*%
D28*
%TO.N,GND*%
X110349001Y-43617001D02*
X115951000Y-38015002D01*
X108914001Y-43617001D02*
X110349001Y-43617001D01*
X108839000Y-43542000D02*
X108914001Y-43617001D01*
X108839000Y-42692000D02*
X108839000Y-43542000D01*
X115951000Y-38015002D02*
X115951000Y-37465000D01*
%TO.N,Net-(D1-Pad2)*%
X117475000Y-40386000D02*
X120269000Y-40386000D01*
X120968999Y-27750999D02*
X120968999Y-39686001D01*
X120269000Y-27051000D02*
X120968999Y-27750999D01*
X120968999Y-39686001D02*
X120269000Y-40386000D01*
X108414011Y-44067011D02*
X114047989Y-44067011D01*
X107889000Y-43542000D02*
X108414011Y-44067011D01*
X107889000Y-42692000D02*
X107889000Y-43542000D01*
X114047989Y-44067011D02*
X117602000Y-40513000D01*
%TO.N,Net-(D2-Pad2)*%
X114422000Y-45212000D02*
X117602000Y-45212000D01*
%TO.N,Net-(D3-Pad2)*%
X114676000Y-21844000D02*
X117475000Y-21844000D01*
%TO.N,+3V3*%
X109789000Y-45192000D02*
X112502000Y-45192000D01*
%TO.N,SDA*%
X104394000Y-34671000D02*
X110998000Y-34671000D01*
X110998000Y-34671000D02*
X115951000Y-29718000D01*
%TO.N,SCL*%
X104019997Y-33306001D02*
X107028999Y-33306001D01*
X103218999Y-34106999D02*
X104019997Y-33306001D01*
X103218999Y-36035999D02*
X103218999Y-34106999D01*
X104394000Y-37211000D02*
X103218999Y-36035999D01*
X107028999Y-33306001D02*
X110871000Y-29464000D01*
%TO.N,IOn*%
X112776000Y-21844000D02*
X112776000Y-29083000D01*
X112776000Y-29083000D02*
X113284000Y-29591000D01*
%TO.N,VSense*%
X107328999Y-41766999D02*
X108982001Y-41766999D01*
X107263999Y-44566999D02*
X107263999Y-41831999D01*
X107263999Y-41831999D02*
X107328999Y-41766999D01*
X107889000Y-45192000D02*
X107263999Y-44566999D01*
X108982001Y-41766999D02*
X113411000Y-37338000D01*
X109789000Y-42156998D02*
X109399001Y-41766999D01*
X109789000Y-42692000D02*
X109789000Y-42156998D01*
X109399001Y-41766999D02*
X109093000Y-41766999D01*
%TD*%
D29*
%TO.N,IP+*%
G36*
X177457275Y-33274000D02*
G01*
X145825976Y-33274000D01*
X145868901Y-33252949D01*
X146435530Y-32820135D01*
X146906834Y-32285094D01*
X147264701Y-31668387D01*
X147495378Y-30993713D01*
X147590000Y-30287000D01*
X147590000Y-28787000D01*
X146521655Y-28787000D01*
X146531836Y-28696441D01*
X146495395Y-28660000D01*
X146531836Y-28623559D01*
X146521655Y-28533000D01*
X147590000Y-28533000D01*
X147590000Y-27033000D01*
X147495378Y-26326287D01*
X147264701Y-25651613D01*
X146906834Y-25034906D01*
X146435530Y-24499865D01*
X145868901Y-24067051D01*
X145228722Y-23753098D01*
X144648729Y-23591812D01*
X144082000Y-23686071D01*
X144082000Y-23799740D01*
X144081019Y-23800264D01*
X144058164Y-24003559D01*
X144082000Y-24027395D01*
X144082000Y-24188848D01*
X144031441Y-24183164D01*
X143955000Y-24259605D01*
X143878559Y-24183164D01*
X143828000Y-24188848D01*
X143828000Y-24027395D01*
X143851836Y-24003559D01*
X143828981Y-23800264D01*
X143828000Y-23799840D01*
X143828000Y-23686071D01*
X143261271Y-23591812D01*
X142681278Y-23753098D01*
X142041099Y-24067051D01*
X141474470Y-24499865D01*
X141003166Y-25034906D01*
X140645299Y-25651613D01*
X140414622Y-26326287D01*
X140320000Y-27033000D01*
X140320000Y-28533000D01*
X141388345Y-28533000D01*
X141378164Y-28623559D01*
X141414605Y-28660000D01*
X141378164Y-28696441D01*
X141388345Y-28787000D01*
X140320000Y-28787000D01*
X140320000Y-30287000D01*
X140414622Y-30993713D01*
X140645299Y-31668387D01*
X141003166Y-32285094D01*
X141474470Y-32820135D01*
X142041099Y-33252949D01*
X142084024Y-33274000D01*
X126492000Y-33274000D01*
X126492000Y-27384329D01*
X126596284Y-27384329D01*
X126628953Y-27492044D01*
X126739208Y-27729392D01*
X126893649Y-27940670D01*
X127086340Y-28117759D01*
X127309877Y-28253853D01*
X127555670Y-28343722D01*
X127762000Y-28221201D01*
X127762000Y-27178000D01*
X128016000Y-27178000D01*
X128016000Y-28221201D01*
X128222330Y-28343722D01*
X128468123Y-28253853D01*
X128691660Y-28117759D01*
X128884351Y-27940670D01*
X129038792Y-27729392D01*
X129149047Y-27492044D01*
X129181716Y-27384329D01*
X129058374Y-27178000D01*
X128016000Y-27178000D01*
X127762000Y-27178000D01*
X126719626Y-27178000D01*
X126596284Y-27384329D01*
X126492000Y-27384329D01*
X126492000Y-26717671D01*
X126596284Y-26717671D01*
X126719626Y-26924000D01*
X127762000Y-26924000D01*
X127762000Y-25880799D01*
X128016000Y-25880799D01*
X128016000Y-26924000D01*
X129058374Y-26924000D01*
X129181716Y-26717671D01*
X129149047Y-26609956D01*
X129038792Y-26372608D01*
X128884351Y-26161330D01*
X128691660Y-25984241D01*
X128468123Y-25848147D01*
X128222330Y-25758278D01*
X128016000Y-25880799D01*
X127762000Y-25880799D01*
X127555670Y-25758278D01*
X127309877Y-25848147D01*
X127086340Y-25984241D01*
X126893649Y-26161330D01*
X126739208Y-26372608D01*
X126628953Y-26609956D01*
X126596284Y-26717671D01*
X126492000Y-26717671D01*
X126492000Y-15646000D01*
X177518696Y-15646000D01*
X177457275Y-33274000D01*
G37*
X177457275Y-33274000D02*
X145825976Y-33274000D01*
X145868901Y-33252949D01*
X146435530Y-32820135D01*
X146906834Y-32285094D01*
X147264701Y-31668387D01*
X147495378Y-30993713D01*
X147590000Y-30287000D01*
X147590000Y-28787000D01*
X146521655Y-28787000D01*
X146531836Y-28696441D01*
X146495395Y-28660000D01*
X146531836Y-28623559D01*
X146521655Y-28533000D01*
X147590000Y-28533000D01*
X147590000Y-27033000D01*
X147495378Y-26326287D01*
X147264701Y-25651613D01*
X146906834Y-25034906D01*
X146435530Y-24499865D01*
X145868901Y-24067051D01*
X145228722Y-23753098D01*
X144648729Y-23591812D01*
X144082000Y-23686071D01*
X144082000Y-23799740D01*
X144081019Y-23800264D01*
X144058164Y-24003559D01*
X144082000Y-24027395D01*
X144082000Y-24188848D01*
X144031441Y-24183164D01*
X143955000Y-24259605D01*
X143878559Y-24183164D01*
X143828000Y-24188848D01*
X143828000Y-24027395D01*
X143851836Y-24003559D01*
X143828981Y-23800264D01*
X143828000Y-23799840D01*
X143828000Y-23686071D01*
X143261271Y-23591812D01*
X142681278Y-23753098D01*
X142041099Y-24067051D01*
X141474470Y-24499865D01*
X141003166Y-25034906D01*
X140645299Y-25651613D01*
X140414622Y-26326287D01*
X140320000Y-27033000D01*
X140320000Y-28533000D01*
X141388345Y-28533000D01*
X141378164Y-28623559D01*
X141414605Y-28660000D01*
X141378164Y-28696441D01*
X141388345Y-28787000D01*
X140320000Y-28787000D01*
X140320000Y-30287000D01*
X140414622Y-30993713D01*
X140645299Y-31668387D01*
X141003166Y-32285094D01*
X141474470Y-32820135D01*
X142041099Y-33252949D01*
X142084024Y-33274000D01*
X126492000Y-33274000D01*
X126492000Y-27384329D01*
X126596284Y-27384329D01*
X126628953Y-27492044D01*
X126739208Y-27729392D01*
X126893649Y-27940670D01*
X127086340Y-28117759D01*
X127309877Y-28253853D01*
X127555670Y-28343722D01*
X127762000Y-28221201D01*
X127762000Y-27178000D01*
X128016000Y-27178000D01*
X128016000Y-28221201D01*
X128222330Y-28343722D01*
X128468123Y-28253853D01*
X128691660Y-28117759D01*
X128884351Y-27940670D01*
X129038792Y-27729392D01*
X129149047Y-27492044D01*
X129181716Y-27384329D01*
X129058374Y-27178000D01*
X128016000Y-27178000D01*
X127762000Y-27178000D01*
X126719626Y-27178000D01*
X126596284Y-27384329D01*
X126492000Y-27384329D01*
X126492000Y-26717671D01*
X126596284Y-26717671D01*
X126719626Y-26924000D01*
X127762000Y-26924000D01*
X127762000Y-25880799D01*
X128016000Y-25880799D01*
X128016000Y-26924000D01*
X129058374Y-26924000D01*
X129181716Y-26717671D01*
X129149047Y-26609956D01*
X129038792Y-26372608D01*
X128884351Y-26161330D01*
X128691660Y-25984241D01*
X128468123Y-25848147D01*
X128222330Y-25758278D01*
X128016000Y-25880799D01*
X127762000Y-25880799D01*
X127555670Y-25758278D01*
X127309877Y-25848147D01*
X127086340Y-25984241D01*
X126893649Y-26161330D01*
X126739208Y-26372608D01*
X126628953Y-26609956D01*
X126596284Y-26717671D01*
X126492000Y-26717671D01*
X126492000Y-15646000D01*
X177518696Y-15646000D01*
X177457275Y-33274000D01*
G36*
X144031441Y-25236836D02*
G01*
X144082000Y-25231152D01*
X144082000Y-25392605D01*
X144058164Y-25416441D01*
X144081019Y-25619736D01*
X144082000Y-25620160D01*
X144082000Y-28533000D01*
X145488345Y-28533000D01*
X145478164Y-28623559D01*
X145514605Y-28660000D01*
X145478164Y-28696441D01*
X145488345Y-28787000D01*
X144082000Y-28787000D01*
X144082000Y-28807000D01*
X143828000Y-28807000D01*
X143828000Y-28787000D01*
X142421655Y-28787000D01*
X142431836Y-28696441D01*
X142395395Y-28660000D01*
X142431836Y-28623559D01*
X142421655Y-28533000D01*
X143828000Y-28533000D01*
X143828000Y-25620260D01*
X143828981Y-25619736D01*
X143851836Y-25416441D01*
X143828000Y-25392605D01*
X143828000Y-25231152D01*
X143878559Y-25236836D01*
X143955000Y-25160395D01*
X144031441Y-25236836D01*
G37*
X144031441Y-25236836D02*
X144082000Y-25231152D01*
X144082000Y-25392605D01*
X144058164Y-25416441D01*
X144081019Y-25619736D01*
X144082000Y-25620160D01*
X144082000Y-28533000D01*
X145488345Y-28533000D01*
X145478164Y-28623559D01*
X145514605Y-28660000D01*
X145478164Y-28696441D01*
X145488345Y-28787000D01*
X144082000Y-28787000D01*
X144082000Y-28807000D01*
X143828000Y-28807000D01*
X143828000Y-28787000D01*
X142421655Y-28787000D01*
X142431836Y-28696441D01*
X142395395Y-28660000D01*
X142431836Y-28623559D01*
X142421655Y-28533000D01*
X143828000Y-28533000D01*
X143828000Y-25620260D01*
X143828981Y-25619736D01*
X143851836Y-25416441D01*
X143828000Y-25392605D01*
X143828000Y-25231152D01*
X143878559Y-25236836D01*
X143955000Y-25160395D01*
X144031441Y-25236836D01*
%TO.N,IP-*%
G36*
X142041099Y-34067051D02*
G01*
X141474470Y-34499865D01*
X141003166Y-35034906D01*
X140645299Y-35651613D01*
X140414622Y-36326287D01*
X140320000Y-37033000D01*
X140320000Y-38533000D01*
X141388345Y-38533000D01*
X141378164Y-38623559D01*
X141414605Y-38660000D01*
X141378164Y-38696441D01*
X141388345Y-38787000D01*
X140320000Y-38787000D01*
X140320000Y-40287000D01*
X140414622Y-40993713D01*
X140645299Y-41668387D01*
X141003166Y-42285094D01*
X141474470Y-42820135D01*
X142041099Y-43252949D01*
X142681278Y-43566902D01*
X143261271Y-43728188D01*
X143828000Y-43633929D01*
X143828000Y-43520260D01*
X143828981Y-43519736D01*
X143851836Y-43316441D01*
X143828000Y-43292605D01*
X143828000Y-43131152D01*
X143878559Y-43136836D01*
X143955000Y-43060395D01*
X144031441Y-43136836D01*
X144082000Y-43131152D01*
X144082000Y-43292605D01*
X144058164Y-43316441D01*
X144081019Y-43519736D01*
X144082000Y-43520160D01*
X144082000Y-43633929D01*
X144648729Y-43728188D01*
X145228722Y-43566902D01*
X145868901Y-43252949D01*
X146435530Y-42820135D01*
X146906834Y-42285094D01*
X147264701Y-41668387D01*
X147495378Y-40993713D01*
X147590000Y-40287000D01*
X147590000Y-38787000D01*
X146521655Y-38787000D01*
X146531836Y-38696441D01*
X146495395Y-38660000D01*
X146531836Y-38623559D01*
X146521655Y-38533000D01*
X147590000Y-38533000D01*
X147590000Y-37033000D01*
X147495378Y-36326287D01*
X147264701Y-35651613D01*
X146906834Y-35034906D01*
X146435530Y-34499865D01*
X145868901Y-34067051D01*
X145805585Y-34036000D01*
X177454620Y-34036000D01*
X177396297Y-50775000D01*
X126492000Y-50775000D01*
X126492000Y-41307269D01*
X127147336Y-41307269D01*
X127206797Y-41541037D01*
X127445242Y-41651934D01*
X127700740Y-41714183D01*
X127963473Y-41725390D01*
X128223344Y-41685125D01*
X128470366Y-41594935D01*
X128571203Y-41541037D01*
X128630664Y-41307269D01*
X127889000Y-40565605D01*
X127147336Y-41307269D01*
X126492000Y-41307269D01*
X126492000Y-40460473D01*
X126549610Y-40460473D01*
X126589875Y-40720344D01*
X126680065Y-40967366D01*
X126733963Y-41068203D01*
X126967731Y-41127664D01*
X127709395Y-40386000D01*
X128068605Y-40386000D01*
X128810269Y-41127664D01*
X129044037Y-41068203D01*
X129154934Y-40829758D01*
X129217183Y-40574260D01*
X129228390Y-40311527D01*
X129188125Y-40051656D01*
X129097935Y-39804634D01*
X129044037Y-39703797D01*
X128810269Y-39644336D01*
X128068605Y-40386000D01*
X127709395Y-40386000D01*
X126967731Y-39644336D01*
X126733963Y-39703797D01*
X126623066Y-39942242D01*
X126560817Y-40197740D01*
X126549610Y-40460473D01*
X126492000Y-40460473D01*
X126492000Y-39464731D01*
X127147336Y-39464731D01*
X127889000Y-40206395D01*
X128630664Y-39464731D01*
X128571203Y-39230963D01*
X128332758Y-39120066D01*
X128077260Y-39057817D01*
X127814527Y-39046610D01*
X127554656Y-39086875D01*
X127307634Y-39177065D01*
X127206797Y-39230963D01*
X127147336Y-39464731D01*
X126492000Y-39464731D01*
X126492000Y-34036000D01*
X142104415Y-34036000D01*
X142041099Y-34067051D01*
G37*
X142041099Y-34067051D02*
X141474470Y-34499865D01*
X141003166Y-35034906D01*
X140645299Y-35651613D01*
X140414622Y-36326287D01*
X140320000Y-37033000D01*
X140320000Y-38533000D01*
X141388345Y-38533000D01*
X141378164Y-38623559D01*
X141414605Y-38660000D01*
X141378164Y-38696441D01*
X141388345Y-38787000D01*
X140320000Y-38787000D01*
X140320000Y-40287000D01*
X140414622Y-40993713D01*
X140645299Y-41668387D01*
X141003166Y-42285094D01*
X141474470Y-42820135D01*
X142041099Y-43252949D01*
X142681278Y-43566902D01*
X143261271Y-43728188D01*
X143828000Y-43633929D01*
X143828000Y-43520260D01*
X143828981Y-43519736D01*
X143851836Y-43316441D01*
X143828000Y-43292605D01*
X143828000Y-43131152D01*
X143878559Y-43136836D01*
X143955000Y-43060395D01*
X144031441Y-43136836D01*
X144082000Y-43131152D01*
X144082000Y-43292605D01*
X144058164Y-43316441D01*
X144081019Y-43519736D01*
X144082000Y-43520160D01*
X144082000Y-43633929D01*
X144648729Y-43728188D01*
X145228722Y-43566902D01*
X145868901Y-43252949D01*
X146435530Y-42820135D01*
X146906834Y-42285094D01*
X147264701Y-41668387D01*
X147495378Y-40993713D01*
X147590000Y-40287000D01*
X147590000Y-38787000D01*
X146521655Y-38787000D01*
X146531836Y-38696441D01*
X146495395Y-38660000D01*
X146531836Y-38623559D01*
X146521655Y-38533000D01*
X147590000Y-38533000D01*
X147590000Y-37033000D01*
X147495378Y-36326287D01*
X147264701Y-35651613D01*
X146906834Y-35034906D01*
X146435530Y-34499865D01*
X145868901Y-34067051D01*
X145805585Y-34036000D01*
X177454620Y-34036000D01*
X177396297Y-50775000D01*
X126492000Y-50775000D01*
X126492000Y-41307269D01*
X127147336Y-41307269D01*
X127206797Y-41541037D01*
X127445242Y-41651934D01*
X127700740Y-41714183D01*
X127963473Y-41725390D01*
X128223344Y-41685125D01*
X128470366Y-41594935D01*
X128571203Y-41541037D01*
X128630664Y-41307269D01*
X127889000Y-40565605D01*
X127147336Y-41307269D01*
X126492000Y-41307269D01*
X126492000Y-40460473D01*
X126549610Y-40460473D01*
X126589875Y-40720344D01*
X126680065Y-40967366D01*
X126733963Y-41068203D01*
X126967731Y-41127664D01*
X127709395Y-40386000D01*
X128068605Y-40386000D01*
X128810269Y-41127664D01*
X129044037Y-41068203D01*
X129154934Y-40829758D01*
X129217183Y-40574260D01*
X129228390Y-40311527D01*
X129188125Y-40051656D01*
X129097935Y-39804634D01*
X129044037Y-39703797D01*
X128810269Y-39644336D01*
X128068605Y-40386000D01*
X127709395Y-40386000D01*
X126967731Y-39644336D01*
X126733963Y-39703797D01*
X126623066Y-39942242D01*
X126560817Y-40197740D01*
X126549610Y-40460473D01*
X126492000Y-40460473D01*
X126492000Y-39464731D01*
X127147336Y-39464731D01*
X127889000Y-40206395D01*
X128630664Y-39464731D01*
X128571203Y-39230963D01*
X128332758Y-39120066D01*
X128077260Y-39057817D01*
X127814527Y-39046610D01*
X127554656Y-39086875D01*
X127307634Y-39177065D01*
X127206797Y-39230963D01*
X127147336Y-39464731D01*
X126492000Y-39464731D01*
X126492000Y-34036000D01*
X142104415Y-34036000D01*
X142041099Y-34067051D01*
G36*
X144082000Y-38533000D02*
G01*
X145488345Y-38533000D01*
X145478164Y-38623559D01*
X145514605Y-38660000D01*
X145478164Y-38696441D01*
X145488345Y-38787000D01*
X144082000Y-38787000D01*
X144082000Y-41699740D01*
X144081019Y-41700264D01*
X144058164Y-41903559D01*
X144082000Y-41927395D01*
X144082000Y-42088848D01*
X144031441Y-42083164D01*
X143955000Y-42159605D01*
X143878559Y-42083164D01*
X143828000Y-42088848D01*
X143828000Y-41927395D01*
X143851836Y-41903559D01*
X143828981Y-41700264D01*
X143828000Y-41699840D01*
X143828000Y-38787000D01*
X142421655Y-38787000D01*
X142431836Y-38696441D01*
X142395395Y-38660000D01*
X142431836Y-38623559D01*
X142421655Y-38533000D01*
X143828000Y-38533000D01*
X143828000Y-38513000D01*
X144082000Y-38513000D01*
X144082000Y-38533000D01*
G37*
X144082000Y-38533000D02*
X145488345Y-38533000D01*
X145478164Y-38623559D01*
X145514605Y-38660000D01*
X145478164Y-38696441D01*
X145488345Y-38787000D01*
X144082000Y-38787000D01*
X144082000Y-41699740D01*
X144081019Y-41700264D01*
X144058164Y-41903559D01*
X144082000Y-41927395D01*
X144082000Y-42088848D01*
X144031441Y-42083164D01*
X143955000Y-42159605D01*
X143878559Y-42083164D01*
X143828000Y-42088848D01*
X143828000Y-41927395D01*
X143851836Y-41903559D01*
X143828981Y-41700264D01*
X143828000Y-41699840D01*
X143828000Y-38787000D01*
X142421655Y-38787000D01*
X142431836Y-38696441D01*
X142395395Y-38660000D01*
X142431836Y-38623559D01*
X142421655Y-38533000D01*
X143828000Y-38533000D01*
X143828000Y-38513000D01*
X144082000Y-38513000D01*
X144082000Y-38533000D01*
%TO.N,+3V3*%
G36*
X124460000Y-50775000D02*
G01*
X102895000Y-50775000D01*
X102895000Y-41831999D01*
X106500323Y-41831999D01*
X106504000Y-41869331D01*
X106503999Y-44529676D01*
X106500323Y-44566999D01*
X106503999Y-44604321D01*
X106503999Y-44604331D01*
X106514996Y-44715984D01*
X106558453Y-44859245D01*
X106629025Y-44991275D01*
X106655669Y-45023740D01*
X106723998Y-45107000D01*
X106753001Y-45130802D01*
X106950928Y-45328729D01*
X106950928Y-45792000D01*
X106963188Y-45916482D01*
X106999498Y-46036180D01*
X107058463Y-46146494D01*
X107137815Y-46243185D01*
X107234506Y-46322537D01*
X107344820Y-46381502D01*
X107464518Y-46417812D01*
X107589000Y-46430072D01*
X108189000Y-46430072D01*
X108313482Y-46417812D01*
X108433180Y-46381502D01*
X108543494Y-46322537D01*
X108640185Y-46243185D01*
X108719537Y-46146494D01*
X108778502Y-46036180D01*
X108814812Y-45916482D01*
X108827072Y-45792000D01*
X108850928Y-45792000D01*
X108863188Y-45916482D01*
X108899498Y-46036180D01*
X108958463Y-46146494D01*
X109037815Y-46243185D01*
X109134506Y-46322537D01*
X109244820Y-46381502D01*
X109364518Y-46417812D01*
X109489000Y-46430072D01*
X109503250Y-46427000D01*
X109662000Y-46268250D01*
X109662000Y-45319000D01*
X109916000Y-45319000D01*
X109916000Y-46268250D01*
X110074750Y-46427000D01*
X110089000Y-46430072D01*
X110213482Y-46417812D01*
X110333180Y-46381502D01*
X110443494Y-46322537D01*
X110540185Y-46243185D01*
X110619537Y-46146494D01*
X110626606Y-46133269D01*
X111780336Y-46133269D01*
X111839797Y-46367037D01*
X112078242Y-46477934D01*
X112333740Y-46540183D01*
X112596473Y-46551390D01*
X112856344Y-46511125D01*
X113103366Y-46420935D01*
X113204203Y-46367037D01*
X113263664Y-46133269D01*
X112522000Y-45391605D01*
X111780336Y-46133269D01*
X110626606Y-46133269D01*
X110678502Y-46036180D01*
X110714812Y-45916482D01*
X110727072Y-45792000D01*
X110724000Y-45477750D01*
X110565250Y-45319000D01*
X109916000Y-45319000D01*
X109662000Y-45319000D01*
X109012750Y-45319000D01*
X108854000Y-45477750D01*
X108850928Y-45792000D01*
X108827072Y-45792000D01*
X108827072Y-44827011D01*
X108853225Y-44827011D01*
X108854000Y-44906250D01*
X109012750Y-45065000D01*
X109662000Y-45065000D01*
X109662000Y-45045000D01*
X109916000Y-45045000D01*
X109916000Y-45065000D01*
X110565250Y-45065000D01*
X110724000Y-44906250D01*
X110724775Y-44827011D01*
X111241748Y-44827011D01*
X111193817Y-45023740D01*
X111182610Y-45286473D01*
X111222875Y-45546344D01*
X111313065Y-45793366D01*
X111366963Y-45894203D01*
X111600731Y-45953664D01*
X112342395Y-45212000D01*
X112328253Y-45197858D01*
X112507858Y-45018253D01*
X112522000Y-45032395D01*
X112536143Y-45018253D01*
X112715748Y-45197858D01*
X112701605Y-45212000D01*
X113171746Y-45682141D01*
X113238939Y-45844359D01*
X113385038Y-46063013D01*
X113570987Y-46248962D01*
X113789641Y-46395061D01*
X114032595Y-46495696D01*
X114290514Y-46547000D01*
X114553486Y-46547000D01*
X114811405Y-46495696D01*
X115054359Y-46395061D01*
X115273013Y-46248962D01*
X115458962Y-46063013D01*
X115519775Y-45972000D01*
X116691359Y-45972000D01*
X116730875Y-46031140D01*
X116909860Y-46210125D01*
X117120324Y-46350753D01*
X117354179Y-46447619D01*
X117602439Y-46497000D01*
X117855561Y-46497000D01*
X118103821Y-46447619D01*
X118337676Y-46350753D01*
X118548140Y-46210125D01*
X118727125Y-46031140D01*
X118867753Y-45820676D01*
X118964619Y-45586821D01*
X118999000Y-45413973D01*
X119033381Y-45586821D01*
X119130247Y-45820676D01*
X119270875Y-46031140D01*
X119449860Y-46210125D01*
X119660324Y-46350753D01*
X119894179Y-46447619D01*
X120142439Y-46497000D01*
X120395561Y-46497000D01*
X120643821Y-46447619D01*
X120877676Y-46350753D01*
X121088140Y-46210125D01*
X121267125Y-46031140D01*
X121407753Y-45820676D01*
X121504619Y-45586821D01*
X121554000Y-45338561D01*
X121554000Y-45085439D01*
X121504619Y-44837179D01*
X121407753Y-44603324D01*
X121267125Y-44392860D01*
X121088140Y-44213875D01*
X120877676Y-44073247D01*
X120643821Y-43976381D01*
X120395561Y-43927000D01*
X120142439Y-43927000D01*
X119894179Y-43976381D01*
X119660324Y-44073247D01*
X119449860Y-44213875D01*
X119270875Y-44392860D01*
X119130247Y-44603324D01*
X119033381Y-44837179D01*
X118999000Y-45010027D01*
X118964619Y-44837179D01*
X118867753Y-44603324D01*
X118727125Y-44392860D01*
X118548140Y-44213875D01*
X118337676Y-44073247D01*
X118103821Y-43976381D01*
X117855561Y-43927000D01*
X117602439Y-43927000D01*
X117354179Y-43976381D01*
X117120324Y-44073247D01*
X116909860Y-44213875D01*
X116730875Y-44392860D01*
X116691359Y-44452000D01*
X115519775Y-44452000D01*
X115458962Y-44360987D01*
X115273013Y-44175038D01*
X115118203Y-44071598D01*
X117498980Y-41690822D01*
X118141750Y-41690822D01*
X118266232Y-41678562D01*
X118385930Y-41642252D01*
X118496244Y-41583287D01*
X118592935Y-41503935D01*
X118672287Y-41407244D01*
X118731252Y-41296930D01*
X118767562Y-41177232D01*
X118770638Y-41146000D01*
X119171225Y-41146000D01*
X119232038Y-41237013D01*
X119417987Y-41422962D01*
X119636641Y-41569061D01*
X119879595Y-41669696D01*
X120137514Y-41721000D01*
X120400486Y-41721000D01*
X120658405Y-41669696D01*
X120901359Y-41569061D01*
X121120013Y-41422962D01*
X121305962Y-41237013D01*
X121452061Y-41018359D01*
X121552696Y-40775405D01*
X121604000Y-40517486D01*
X121604000Y-40254514D01*
X121580901Y-40138391D01*
X121603973Y-40110278D01*
X121674545Y-39978248D01*
X121679557Y-39961724D01*
X121718002Y-39834987D01*
X121728999Y-39723334D01*
X121728999Y-39723325D01*
X121732675Y-39686002D01*
X121728999Y-39648679D01*
X121728999Y-36683808D01*
X121898957Y-36797371D01*
X122151011Y-36901775D01*
X122418589Y-36955000D01*
X122691411Y-36955000D01*
X122958989Y-36901775D01*
X123211043Y-36797371D01*
X123437886Y-36645799D01*
X123630799Y-36452886D01*
X123782371Y-36226043D01*
X123886775Y-35973989D01*
X123940000Y-35706411D01*
X123940000Y-35433589D01*
X123886775Y-35166011D01*
X123782371Y-34913957D01*
X123630799Y-34687114D01*
X123558685Y-34615000D01*
X123630799Y-34542886D01*
X123782371Y-34316043D01*
X123886775Y-34063989D01*
X123940000Y-33796411D01*
X123940000Y-33523589D01*
X123886775Y-33256011D01*
X123782371Y-33003957D01*
X123750324Y-32955995D01*
X123756185Y-32951185D01*
X123835537Y-32854494D01*
X123894502Y-32744180D01*
X123930812Y-32624482D01*
X123943072Y-32500000D01*
X123940000Y-32035750D01*
X123781250Y-31877000D01*
X122682000Y-31877000D01*
X122682000Y-31897000D01*
X122428000Y-31897000D01*
X122428000Y-31877000D01*
X122408000Y-31877000D01*
X122408000Y-31623000D01*
X122428000Y-31623000D01*
X122428000Y-30523750D01*
X122682000Y-30523750D01*
X122682000Y-31623000D01*
X123781250Y-31623000D01*
X123940000Y-31464250D01*
X123943072Y-31000000D01*
X123930812Y-30875518D01*
X123894502Y-30755820D01*
X123835537Y-30645506D01*
X123756185Y-30548815D01*
X123659494Y-30469463D01*
X123549180Y-30410498D01*
X123429482Y-30374188D01*
X123305000Y-30361928D01*
X122840750Y-30365000D01*
X122682000Y-30523750D01*
X122428000Y-30523750D01*
X122269250Y-30365000D01*
X121805000Y-30361928D01*
X121728999Y-30369413D01*
X121728999Y-27788321D01*
X121732675Y-27750998D01*
X121728999Y-27713675D01*
X121728999Y-27713666D01*
X121718002Y-27602013D01*
X121674545Y-27458752D01*
X121639845Y-27393834D01*
X121603973Y-27326722D01*
X121580901Y-27298609D01*
X121604000Y-27182486D01*
X121604000Y-26919514D01*
X121552696Y-26661595D01*
X121452061Y-26418641D01*
X121305962Y-26199987D01*
X121120013Y-26014038D01*
X120901359Y-25867939D01*
X120658405Y-25767304D01*
X120400486Y-25716000D01*
X120137514Y-25716000D01*
X119879595Y-25767304D01*
X119636641Y-25867939D01*
X119417987Y-26014038D01*
X119232038Y-26199987D01*
X119085939Y-26418641D01*
X118985304Y-26661595D01*
X118934000Y-26919514D01*
X118934000Y-27182486D01*
X118985304Y-27440405D01*
X119085939Y-27683359D01*
X119232038Y-27902013D01*
X119417987Y-28087962D01*
X119636641Y-28234061D01*
X119879595Y-28334696D01*
X120137514Y-28386000D01*
X120208999Y-28386000D01*
X120208999Y-30146393D01*
X120195042Y-30160350D01*
X120144694Y-29934223D01*
X119919056Y-29830832D01*
X119677582Y-29773447D01*
X119429553Y-29764274D01*
X119184501Y-29803665D01*
X118951842Y-29890107D01*
X118869306Y-29934223D01*
X118818957Y-30160352D01*
X119507000Y-30848395D01*
X119521143Y-30834253D01*
X119700748Y-31013858D01*
X119686605Y-31028000D01*
X119700748Y-31042143D01*
X119521143Y-31221748D01*
X119507000Y-31207605D01*
X118818957Y-31895648D01*
X118869306Y-32121777D01*
X119094944Y-32225168D01*
X119336418Y-32282553D01*
X119584447Y-32291726D01*
X119829499Y-32252335D01*
X120062158Y-32165893D01*
X120144694Y-32121777D01*
X120195042Y-31895650D01*
X120208999Y-31909607D01*
X120209000Y-34981672D01*
X120103834Y-34911402D01*
X119874529Y-34816421D01*
X119631099Y-34768000D01*
X119382901Y-34768000D01*
X119139471Y-34816421D01*
X118910166Y-34911402D01*
X118703797Y-35049294D01*
X118528294Y-35224797D01*
X118390402Y-35431166D01*
X118295421Y-35660471D01*
X118247000Y-35903901D01*
X118247000Y-36152099D01*
X118295421Y-36395529D01*
X118390402Y-36624834D01*
X118528294Y-36831203D01*
X118703797Y-37006706D01*
X118910166Y-37144598D01*
X119139471Y-37239579D01*
X119382901Y-37288000D01*
X119631099Y-37288000D01*
X119874529Y-37239579D01*
X120103834Y-37144598D01*
X120209000Y-37074328D01*
X120209000Y-39051000D01*
X120137514Y-39051000D01*
X119879595Y-39102304D01*
X119636641Y-39202939D01*
X119417987Y-39349038D01*
X119232038Y-39534987D01*
X119171225Y-39626000D01*
X118770638Y-39626000D01*
X118767562Y-39594768D01*
X118731252Y-39475070D01*
X118672287Y-39364756D01*
X118592935Y-39268065D01*
X118496244Y-39188713D01*
X118385930Y-39129748D01*
X118266232Y-39093438D01*
X118141750Y-39081178D01*
X116808250Y-39081178D01*
X116683768Y-39093438D01*
X116564070Y-39129748D01*
X116453756Y-39188713D01*
X116357065Y-39268065D01*
X116277713Y-39364756D01*
X116218748Y-39475070D01*
X116182438Y-39594768D01*
X116170178Y-39719250D01*
X116170178Y-40870020D01*
X113733188Y-43307011D01*
X111733792Y-43307011D01*
X116462004Y-38578800D01*
X116491001Y-38555003D01*
X116567175Y-38462185D01*
X116585974Y-38439279D01*
X116595581Y-38421305D01*
X116738759Y-38325637D01*
X116938637Y-38125759D01*
X117095680Y-37890727D01*
X117203853Y-37629574D01*
X117259000Y-37352335D01*
X117259000Y-37069665D01*
X117203853Y-36792426D01*
X117095680Y-36531273D01*
X116938637Y-36296241D01*
X116738759Y-36096363D01*
X116503727Y-35939320D01*
X116242574Y-35831147D01*
X115965335Y-35776000D01*
X115682665Y-35776000D01*
X115405426Y-35831147D01*
X115144273Y-35939320D01*
X114909241Y-36096363D01*
X114709363Y-36296241D01*
X114554000Y-36528759D01*
X114398637Y-36296241D01*
X114198759Y-36096363D01*
X113963727Y-35939320D01*
X113702574Y-35831147D01*
X113425335Y-35776000D01*
X113142665Y-35776000D01*
X112865426Y-35831147D01*
X112604273Y-35939320D01*
X112369241Y-36096363D01*
X112169363Y-36296241D01*
X112014000Y-36528759D01*
X111858637Y-36296241D01*
X111658759Y-36096363D01*
X111423727Y-35939320D01*
X111162574Y-35831147D01*
X110885335Y-35776000D01*
X110602665Y-35776000D01*
X110325426Y-35831147D01*
X110064273Y-35939320D01*
X109829241Y-36096363D01*
X109630643Y-36294961D01*
X109629812Y-36286518D01*
X109593502Y-36166820D01*
X109534537Y-36056506D01*
X109455185Y-35959815D01*
X109358494Y-35880463D01*
X109248180Y-35821498D01*
X109128482Y-35785188D01*
X109004000Y-35772928D01*
X107404000Y-35772928D01*
X107279518Y-35785188D01*
X107159820Y-35821498D01*
X107049506Y-35880463D01*
X106952815Y-35959815D01*
X106873463Y-36056506D01*
X106814498Y-36166820D01*
X106778188Y-36286518D01*
X106765928Y-36411000D01*
X106765928Y-38011000D01*
X106778188Y-38135482D01*
X106814498Y-38255180D01*
X106873463Y-38365494D01*
X106952815Y-38462185D01*
X107049506Y-38541537D01*
X107159820Y-38600502D01*
X107279518Y-38636812D01*
X107404000Y-38649072D01*
X109004000Y-38649072D01*
X109128482Y-38636812D01*
X109248180Y-38600502D01*
X109358494Y-38541537D01*
X109455185Y-38462185D01*
X109534537Y-38365494D01*
X109593502Y-38255180D01*
X109629812Y-38135482D01*
X109630643Y-38127039D01*
X109829241Y-38325637D01*
X110064273Y-38482680D01*
X110325426Y-38590853D01*
X110602665Y-38646000D01*
X110885335Y-38646000D01*
X111063672Y-38610526D01*
X108667200Y-41006999D01*
X108462050Y-41006999D01*
X108550454Y-40815706D01*
X108610547Y-40566424D01*
X108620852Y-40310208D01*
X108580974Y-40056905D01*
X108492445Y-39816249D01*
X108442883Y-39723526D01*
X108212503Y-39668102D01*
X107494605Y-40386000D01*
X107508748Y-40400143D01*
X107329143Y-40579748D01*
X107315000Y-40565605D01*
X106597102Y-41283503D01*
X106627619Y-41410353D01*
X106558453Y-41539753D01*
X106549563Y-41569061D01*
X106514997Y-41683013D01*
X106511256Y-41721000D01*
X106500323Y-41831999D01*
X102895000Y-41831999D01*
X102895000Y-40461792D01*
X106009148Y-40461792D01*
X106049026Y-40715095D01*
X106137555Y-40955751D01*
X106187117Y-41048474D01*
X106417497Y-41103898D01*
X107135395Y-40386000D01*
X106417497Y-39668102D01*
X106187117Y-39723526D01*
X106079546Y-39956294D01*
X106019453Y-40205576D01*
X106009148Y-40461792D01*
X102895000Y-40461792D01*
X102895000Y-39488497D01*
X106597102Y-39488497D01*
X107315000Y-40206395D01*
X108032898Y-39488497D01*
X107977474Y-39258117D01*
X107744706Y-39150546D01*
X107495424Y-39090453D01*
X107239208Y-39080148D01*
X106985905Y-39120026D01*
X106745249Y-39208555D01*
X106652526Y-39258117D01*
X106597102Y-39488497D01*
X102895000Y-39488497D01*
X102895000Y-36786801D01*
X102952791Y-36844592D01*
X102909000Y-37064740D01*
X102909000Y-37357260D01*
X102966068Y-37644158D01*
X103078010Y-37914411D01*
X103240525Y-38157632D01*
X103447368Y-38364475D01*
X103690589Y-38526990D01*
X103960842Y-38638932D01*
X104247740Y-38696000D01*
X104540260Y-38696000D01*
X104827158Y-38638932D01*
X105097411Y-38526990D01*
X105340632Y-38364475D01*
X105547475Y-38157632D01*
X105709990Y-37914411D01*
X105821932Y-37644158D01*
X105879000Y-37357260D01*
X105879000Y-37064740D01*
X105821932Y-36777842D01*
X105709990Y-36507589D01*
X105547475Y-36264368D01*
X105340632Y-36057525D01*
X105166240Y-35941000D01*
X105340632Y-35824475D01*
X105547475Y-35617632D01*
X105672178Y-35431000D01*
X110960678Y-35431000D01*
X110998000Y-35434676D01*
X111035322Y-35431000D01*
X111035333Y-35431000D01*
X111146986Y-35420003D01*
X111290247Y-35376546D01*
X111422276Y-35305974D01*
X111538001Y-35211001D01*
X111561804Y-35181997D01*
X115638354Y-31105447D01*
X118243274Y-31105447D01*
X118282665Y-31350499D01*
X118369107Y-31583158D01*
X118413223Y-31665694D01*
X118639352Y-31716043D01*
X119327395Y-31028000D01*
X118639352Y-30339957D01*
X118413223Y-30390306D01*
X118309832Y-30615944D01*
X118252447Y-30857418D01*
X118243274Y-31105447D01*
X115638354Y-31105447D01*
X115717802Y-31026000D01*
X115965335Y-31026000D01*
X116242574Y-30970853D01*
X116503727Y-30862680D01*
X116738759Y-30705637D01*
X116938637Y-30505759D01*
X117095680Y-30270727D01*
X117203853Y-30009574D01*
X117259000Y-29732335D01*
X117259000Y-29449665D01*
X117203853Y-29172426D01*
X117095680Y-28911273D01*
X116938637Y-28676241D01*
X116738759Y-28476363D01*
X116503727Y-28319320D01*
X116242574Y-28211147D01*
X115965335Y-28156000D01*
X115682665Y-28156000D01*
X115405426Y-28211147D01*
X115144273Y-28319320D01*
X114909241Y-28476363D01*
X114709363Y-28676241D01*
X114554000Y-28908759D01*
X114398637Y-28676241D01*
X114198759Y-28476363D01*
X113963727Y-28319320D01*
X113702574Y-28211147D01*
X113536000Y-28178013D01*
X113536000Y-26672901D01*
X113889000Y-26672901D01*
X113889000Y-26921099D01*
X113937421Y-27164529D01*
X114032402Y-27393834D01*
X114170294Y-27600203D01*
X114345797Y-27775706D01*
X114552166Y-27913598D01*
X114781471Y-28008579D01*
X115024901Y-28057000D01*
X115273099Y-28057000D01*
X115516529Y-28008579D01*
X115745834Y-27913598D01*
X115952203Y-27775706D01*
X116127706Y-27600203D01*
X116265598Y-27393834D01*
X116360579Y-27164529D01*
X116409000Y-26921099D01*
X116409000Y-26672901D01*
X116360579Y-26429471D01*
X116265598Y-26200166D01*
X116127706Y-25993797D01*
X115952203Y-25818294D01*
X115745834Y-25680402D01*
X115516529Y-25585421D01*
X115273099Y-25537000D01*
X115024901Y-25537000D01*
X114781471Y-25585421D01*
X114552166Y-25680402D01*
X114345797Y-25818294D01*
X114170294Y-25993797D01*
X114032402Y-26200166D01*
X113937421Y-26429471D01*
X113889000Y-26672901D01*
X113536000Y-26672901D01*
X113536000Y-22941775D01*
X113627013Y-22880962D01*
X113726000Y-22781975D01*
X113824987Y-22880962D01*
X114043641Y-23027061D01*
X114286595Y-23127696D01*
X114544514Y-23179000D01*
X114807486Y-23179000D01*
X115065405Y-23127696D01*
X115308359Y-23027061D01*
X115527013Y-22880962D01*
X115712962Y-22695013D01*
X115773775Y-22604000D01*
X116564359Y-22604000D01*
X116603875Y-22663140D01*
X116782860Y-22842125D01*
X116993324Y-22982753D01*
X117227179Y-23079619D01*
X117475439Y-23129000D01*
X117728561Y-23129000D01*
X117976821Y-23079619D01*
X118210676Y-22982753D01*
X118421140Y-22842125D01*
X118600125Y-22663140D01*
X118740753Y-22452676D01*
X118837619Y-22218821D01*
X118872000Y-22045973D01*
X118906381Y-22218821D01*
X119003247Y-22452676D01*
X119143875Y-22663140D01*
X119322860Y-22842125D01*
X119533324Y-22982753D01*
X119767179Y-23079619D01*
X120015439Y-23129000D01*
X120268561Y-23129000D01*
X120516821Y-23079619D01*
X120750676Y-22982753D01*
X120961140Y-22842125D01*
X121140125Y-22663140D01*
X121280753Y-22452676D01*
X121377619Y-22218821D01*
X121427000Y-21970561D01*
X121427000Y-21717439D01*
X121377619Y-21469179D01*
X121280753Y-21235324D01*
X121140125Y-21024860D01*
X120961140Y-20845875D01*
X120750676Y-20705247D01*
X120516821Y-20608381D01*
X120268561Y-20559000D01*
X120015439Y-20559000D01*
X119767179Y-20608381D01*
X119533324Y-20705247D01*
X119322860Y-20845875D01*
X119143875Y-21024860D01*
X119003247Y-21235324D01*
X118906381Y-21469179D01*
X118872000Y-21642027D01*
X118837619Y-21469179D01*
X118740753Y-21235324D01*
X118600125Y-21024860D01*
X118421140Y-20845875D01*
X118210676Y-20705247D01*
X117976821Y-20608381D01*
X117728561Y-20559000D01*
X117475439Y-20559000D01*
X117227179Y-20608381D01*
X116993324Y-20705247D01*
X116782860Y-20845875D01*
X116603875Y-21024860D01*
X116564359Y-21084000D01*
X115773775Y-21084000D01*
X115712962Y-20992987D01*
X115527013Y-20807038D01*
X115308359Y-20660939D01*
X115065405Y-20560304D01*
X114807486Y-20509000D01*
X114544514Y-20509000D01*
X114286595Y-20560304D01*
X114043641Y-20660939D01*
X113824987Y-20807038D01*
X113726000Y-20906025D01*
X113627013Y-20807038D01*
X113408359Y-20660939D01*
X113165405Y-20560304D01*
X112907486Y-20509000D01*
X112644514Y-20509000D01*
X112386595Y-20560304D01*
X112143641Y-20660939D01*
X111924987Y-20807038D01*
X111739038Y-20992987D01*
X111592939Y-21211641D01*
X111492304Y-21454595D01*
X111441000Y-21712514D01*
X111441000Y-21975486D01*
X111492304Y-22233405D01*
X111592939Y-22476359D01*
X111739038Y-22695013D01*
X111924987Y-22880962D01*
X112016000Y-22941775D01*
X112016001Y-28905764D01*
X112014000Y-28908759D01*
X111858637Y-28676241D01*
X111658759Y-28476363D01*
X111423727Y-28319320D01*
X111162574Y-28211147D01*
X110885335Y-28156000D01*
X110602665Y-28156000D01*
X110325426Y-28211147D01*
X110064273Y-28319320D01*
X109829241Y-28476363D01*
X109629363Y-28676241D01*
X109472320Y-28911273D01*
X109467933Y-28921865D01*
X109356385Y-28735869D01*
X109167414Y-28527481D01*
X108941420Y-28359963D01*
X108687087Y-28239754D01*
X108553039Y-28199096D01*
X108331000Y-28321085D01*
X108331000Y-29464000D01*
X108351000Y-29464000D01*
X108351000Y-29718000D01*
X108331000Y-29718000D01*
X108331000Y-30860915D01*
X108375071Y-30885128D01*
X106714198Y-32546001D01*
X105825544Y-32546001D01*
X105879000Y-32277260D01*
X105879000Y-31984740D01*
X105821932Y-31697842D01*
X105709990Y-31427589D01*
X105547475Y-31184368D01*
X105415620Y-31052513D01*
X105488180Y-31030502D01*
X105598494Y-30971537D01*
X105695185Y-30892185D01*
X105774537Y-30795494D01*
X105833502Y-30685180D01*
X105869812Y-30565482D01*
X105882072Y-30441000D01*
X105879345Y-29940040D01*
X106812091Y-29940040D01*
X106906930Y-30204881D01*
X107051615Y-30446131D01*
X107240586Y-30654519D01*
X107466580Y-30822037D01*
X107720913Y-30942246D01*
X107854961Y-30982904D01*
X108077000Y-30860915D01*
X108077000Y-29718000D01*
X106933376Y-29718000D01*
X106812091Y-29940040D01*
X105879345Y-29940040D01*
X105879000Y-29876750D01*
X105720250Y-29718000D01*
X104521000Y-29718000D01*
X104521000Y-29738000D01*
X104267000Y-29738000D01*
X104267000Y-29718000D01*
X103067750Y-29718000D01*
X102909000Y-29876750D01*
X102905928Y-30441000D01*
X102918188Y-30565482D01*
X102954498Y-30685180D01*
X103013463Y-30795494D01*
X103092815Y-30892185D01*
X103189506Y-30971537D01*
X103299820Y-31030502D01*
X103372380Y-31052513D01*
X103240525Y-31184368D01*
X103078010Y-31427589D01*
X102966068Y-31697842D01*
X102909000Y-31984740D01*
X102909000Y-32277260D01*
X102966068Y-32564158D01*
X103078010Y-32834411D01*
X103213704Y-33037492D01*
X102895000Y-33356197D01*
X102895000Y-28741000D01*
X102905928Y-28741000D01*
X102909000Y-29305250D01*
X103067750Y-29464000D01*
X104267000Y-29464000D01*
X104267000Y-28264750D01*
X104521000Y-28264750D01*
X104521000Y-29464000D01*
X105720250Y-29464000D01*
X105879000Y-29305250D01*
X105879344Y-29241960D01*
X106812091Y-29241960D01*
X106933376Y-29464000D01*
X108077000Y-29464000D01*
X108077000Y-28321085D01*
X107854961Y-28199096D01*
X107720913Y-28239754D01*
X107466580Y-28359963D01*
X107240586Y-28527481D01*
X107051615Y-28735869D01*
X106906930Y-28977119D01*
X106812091Y-29241960D01*
X105879344Y-29241960D01*
X105882072Y-28741000D01*
X105869812Y-28616518D01*
X105833502Y-28496820D01*
X105774537Y-28386506D01*
X105695185Y-28289815D01*
X105598494Y-28210463D01*
X105488180Y-28151498D01*
X105368482Y-28115188D01*
X105244000Y-28102928D01*
X104679750Y-28106000D01*
X104521000Y-28264750D01*
X104267000Y-28264750D01*
X104108250Y-28106000D01*
X103544000Y-28102928D01*
X103419518Y-28115188D01*
X103299820Y-28151498D01*
X103189506Y-28210463D01*
X103092815Y-28289815D01*
X103013463Y-28386506D01*
X102954498Y-28496820D01*
X102918188Y-28616518D01*
X102905928Y-28741000D01*
X102895000Y-28741000D01*
X102895000Y-27664648D01*
X109460957Y-27664648D01*
X109511306Y-27890777D01*
X109736944Y-27994168D01*
X109978418Y-28051553D01*
X110226447Y-28060726D01*
X110471499Y-28021335D01*
X110704158Y-27934893D01*
X110786694Y-27890777D01*
X110837043Y-27664648D01*
X110149000Y-26976605D01*
X109460957Y-27664648D01*
X102895000Y-27664648D01*
X102895000Y-26874447D01*
X108885274Y-26874447D01*
X108924665Y-27119499D01*
X109011107Y-27352158D01*
X109055223Y-27434694D01*
X109281352Y-27485043D01*
X109969395Y-26797000D01*
X110328605Y-26797000D01*
X111016648Y-27485043D01*
X111242777Y-27434694D01*
X111346168Y-27209056D01*
X111403553Y-26967582D01*
X111412726Y-26719553D01*
X111373335Y-26474501D01*
X111286893Y-26241842D01*
X111242777Y-26159306D01*
X111016648Y-26108957D01*
X110328605Y-26797000D01*
X109969395Y-26797000D01*
X109281352Y-26108957D01*
X109055223Y-26159306D01*
X108951832Y-26384944D01*
X108894447Y-26626418D01*
X108885274Y-26874447D01*
X102895000Y-26874447D01*
X102895000Y-25929352D01*
X109460957Y-25929352D01*
X110149000Y-26617395D01*
X110837043Y-25929352D01*
X110786694Y-25703223D01*
X110561056Y-25599832D01*
X110319582Y-25542447D01*
X110071553Y-25533274D01*
X109826501Y-25572665D01*
X109593842Y-25659107D01*
X109511306Y-25703223D01*
X109460957Y-25929352D01*
X102895000Y-25929352D01*
X102895000Y-15646000D01*
X124460000Y-15646000D01*
X124460000Y-50775000D01*
G37*
X124460000Y-50775000D02*
X102895000Y-50775000D01*
X102895000Y-41831999D01*
X106500323Y-41831999D01*
X106504000Y-41869331D01*
X106503999Y-44529676D01*
X106500323Y-44566999D01*
X106503999Y-44604321D01*
X106503999Y-44604331D01*
X106514996Y-44715984D01*
X106558453Y-44859245D01*
X106629025Y-44991275D01*
X106655669Y-45023740D01*
X106723998Y-45107000D01*
X106753001Y-45130802D01*
X106950928Y-45328729D01*
X106950928Y-45792000D01*
X106963188Y-45916482D01*
X106999498Y-46036180D01*
X107058463Y-46146494D01*
X107137815Y-46243185D01*
X107234506Y-46322537D01*
X107344820Y-46381502D01*
X107464518Y-46417812D01*
X107589000Y-46430072D01*
X108189000Y-46430072D01*
X108313482Y-46417812D01*
X108433180Y-46381502D01*
X108543494Y-46322537D01*
X108640185Y-46243185D01*
X108719537Y-46146494D01*
X108778502Y-46036180D01*
X108814812Y-45916482D01*
X108827072Y-45792000D01*
X108850928Y-45792000D01*
X108863188Y-45916482D01*
X108899498Y-46036180D01*
X108958463Y-46146494D01*
X109037815Y-46243185D01*
X109134506Y-46322537D01*
X109244820Y-46381502D01*
X109364518Y-46417812D01*
X109489000Y-46430072D01*
X109503250Y-46427000D01*
X109662000Y-46268250D01*
X109662000Y-45319000D01*
X109916000Y-45319000D01*
X109916000Y-46268250D01*
X110074750Y-46427000D01*
X110089000Y-46430072D01*
X110213482Y-46417812D01*
X110333180Y-46381502D01*
X110443494Y-46322537D01*
X110540185Y-46243185D01*
X110619537Y-46146494D01*
X110626606Y-46133269D01*
X111780336Y-46133269D01*
X111839797Y-46367037D01*
X112078242Y-46477934D01*
X112333740Y-46540183D01*
X112596473Y-46551390D01*
X112856344Y-46511125D01*
X113103366Y-46420935D01*
X113204203Y-46367037D01*
X113263664Y-46133269D01*
X112522000Y-45391605D01*
X111780336Y-46133269D01*
X110626606Y-46133269D01*
X110678502Y-46036180D01*
X110714812Y-45916482D01*
X110727072Y-45792000D01*
X110724000Y-45477750D01*
X110565250Y-45319000D01*
X109916000Y-45319000D01*
X109662000Y-45319000D01*
X109012750Y-45319000D01*
X108854000Y-45477750D01*
X108850928Y-45792000D01*
X108827072Y-45792000D01*
X108827072Y-44827011D01*
X108853225Y-44827011D01*
X108854000Y-44906250D01*
X109012750Y-45065000D01*
X109662000Y-45065000D01*
X109662000Y-45045000D01*
X109916000Y-45045000D01*
X109916000Y-45065000D01*
X110565250Y-45065000D01*
X110724000Y-44906250D01*
X110724775Y-44827011D01*
X111241748Y-44827011D01*
X111193817Y-45023740D01*
X111182610Y-45286473D01*
X111222875Y-45546344D01*
X111313065Y-45793366D01*
X111366963Y-45894203D01*
X111600731Y-45953664D01*
X112342395Y-45212000D01*
X112328253Y-45197858D01*
X112507858Y-45018253D01*
X112522000Y-45032395D01*
X112536143Y-45018253D01*
X112715748Y-45197858D01*
X112701605Y-45212000D01*
X113171746Y-45682141D01*
X113238939Y-45844359D01*
X113385038Y-46063013D01*
X113570987Y-46248962D01*
X113789641Y-46395061D01*
X114032595Y-46495696D01*
X114290514Y-46547000D01*
X114553486Y-46547000D01*
X114811405Y-46495696D01*
X115054359Y-46395061D01*
X115273013Y-46248962D01*
X115458962Y-46063013D01*
X115519775Y-45972000D01*
X116691359Y-45972000D01*
X116730875Y-46031140D01*
X116909860Y-46210125D01*
X117120324Y-46350753D01*
X117354179Y-46447619D01*
X117602439Y-46497000D01*
X117855561Y-46497000D01*
X118103821Y-46447619D01*
X118337676Y-46350753D01*
X118548140Y-46210125D01*
X118727125Y-46031140D01*
X118867753Y-45820676D01*
X118964619Y-45586821D01*
X118999000Y-45413973D01*
X119033381Y-45586821D01*
X119130247Y-45820676D01*
X119270875Y-46031140D01*
X119449860Y-46210125D01*
X119660324Y-46350753D01*
X119894179Y-46447619D01*
X120142439Y-46497000D01*
X120395561Y-46497000D01*
X120643821Y-46447619D01*
X120877676Y-46350753D01*
X121088140Y-46210125D01*
X121267125Y-46031140D01*
X121407753Y-45820676D01*
X121504619Y-45586821D01*
X121554000Y-45338561D01*
X121554000Y-45085439D01*
X121504619Y-44837179D01*
X121407753Y-44603324D01*
X121267125Y-44392860D01*
X121088140Y-44213875D01*
X120877676Y-44073247D01*
X120643821Y-43976381D01*
X120395561Y-43927000D01*
X120142439Y-43927000D01*
X119894179Y-43976381D01*
X119660324Y-44073247D01*
X119449860Y-44213875D01*
X119270875Y-44392860D01*
X119130247Y-44603324D01*
X119033381Y-44837179D01*
X118999000Y-45010027D01*
X118964619Y-44837179D01*
X118867753Y-44603324D01*
X118727125Y-44392860D01*
X118548140Y-44213875D01*
X118337676Y-44073247D01*
X118103821Y-43976381D01*
X117855561Y-43927000D01*
X117602439Y-43927000D01*
X117354179Y-43976381D01*
X117120324Y-44073247D01*
X116909860Y-44213875D01*
X116730875Y-44392860D01*
X116691359Y-44452000D01*
X115519775Y-44452000D01*
X115458962Y-44360987D01*
X115273013Y-44175038D01*
X115118203Y-44071598D01*
X117498980Y-41690822D01*
X118141750Y-41690822D01*
X118266232Y-41678562D01*
X118385930Y-41642252D01*
X118496244Y-41583287D01*
X118592935Y-41503935D01*
X118672287Y-41407244D01*
X118731252Y-41296930D01*
X118767562Y-41177232D01*
X118770638Y-41146000D01*
X119171225Y-41146000D01*
X119232038Y-41237013D01*
X119417987Y-41422962D01*
X119636641Y-41569061D01*
X119879595Y-41669696D01*
X120137514Y-41721000D01*
X120400486Y-41721000D01*
X120658405Y-41669696D01*
X120901359Y-41569061D01*
X121120013Y-41422962D01*
X121305962Y-41237013D01*
X121452061Y-41018359D01*
X121552696Y-40775405D01*
X121604000Y-40517486D01*
X121604000Y-40254514D01*
X121580901Y-40138391D01*
X121603973Y-40110278D01*
X121674545Y-39978248D01*
X121679557Y-39961724D01*
X121718002Y-39834987D01*
X121728999Y-39723334D01*
X121728999Y-39723325D01*
X121732675Y-39686002D01*
X121728999Y-39648679D01*
X121728999Y-36683808D01*
X121898957Y-36797371D01*
X122151011Y-36901775D01*
X122418589Y-36955000D01*
X122691411Y-36955000D01*
X122958989Y-36901775D01*
X123211043Y-36797371D01*
X123437886Y-36645799D01*
X123630799Y-36452886D01*
X123782371Y-36226043D01*
X123886775Y-35973989D01*
X123940000Y-35706411D01*
X123940000Y-35433589D01*
X123886775Y-35166011D01*
X123782371Y-34913957D01*
X123630799Y-34687114D01*
X123558685Y-34615000D01*
X123630799Y-34542886D01*
X123782371Y-34316043D01*
X123886775Y-34063989D01*
X123940000Y-33796411D01*
X123940000Y-33523589D01*
X123886775Y-33256011D01*
X123782371Y-33003957D01*
X123750324Y-32955995D01*
X123756185Y-32951185D01*
X123835537Y-32854494D01*
X123894502Y-32744180D01*
X123930812Y-32624482D01*
X123943072Y-32500000D01*
X123940000Y-32035750D01*
X123781250Y-31877000D01*
X122682000Y-31877000D01*
X122682000Y-31897000D01*
X122428000Y-31897000D01*
X122428000Y-31877000D01*
X122408000Y-31877000D01*
X122408000Y-31623000D01*
X122428000Y-31623000D01*
X122428000Y-30523750D01*
X122682000Y-30523750D01*
X122682000Y-31623000D01*
X123781250Y-31623000D01*
X123940000Y-31464250D01*
X123943072Y-31000000D01*
X123930812Y-30875518D01*
X123894502Y-30755820D01*
X123835537Y-30645506D01*
X123756185Y-30548815D01*
X123659494Y-30469463D01*
X123549180Y-30410498D01*
X123429482Y-30374188D01*
X123305000Y-30361928D01*
X122840750Y-30365000D01*
X122682000Y-30523750D01*
X122428000Y-30523750D01*
X122269250Y-30365000D01*
X121805000Y-30361928D01*
X121728999Y-30369413D01*
X121728999Y-27788321D01*
X121732675Y-27750998D01*
X121728999Y-27713675D01*
X121728999Y-27713666D01*
X121718002Y-27602013D01*
X121674545Y-27458752D01*
X121639845Y-27393834D01*
X121603973Y-27326722D01*
X121580901Y-27298609D01*
X121604000Y-27182486D01*
X121604000Y-26919514D01*
X121552696Y-26661595D01*
X121452061Y-26418641D01*
X121305962Y-26199987D01*
X121120013Y-26014038D01*
X120901359Y-25867939D01*
X120658405Y-25767304D01*
X120400486Y-25716000D01*
X120137514Y-25716000D01*
X119879595Y-25767304D01*
X119636641Y-25867939D01*
X119417987Y-26014038D01*
X119232038Y-26199987D01*
X119085939Y-26418641D01*
X118985304Y-26661595D01*
X118934000Y-26919514D01*
X118934000Y-27182486D01*
X118985304Y-27440405D01*
X119085939Y-27683359D01*
X119232038Y-27902013D01*
X119417987Y-28087962D01*
X119636641Y-28234061D01*
X119879595Y-28334696D01*
X120137514Y-28386000D01*
X120208999Y-28386000D01*
X120208999Y-30146393D01*
X120195042Y-30160350D01*
X120144694Y-29934223D01*
X119919056Y-29830832D01*
X119677582Y-29773447D01*
X119429553Y-29764274D01*
X119184501Y-29803665D01*
X118951842Y-29890107D01*
X118869306Y-29934223D01*
X118818957Y-30160352D01*
X119507000Y-30848395D01*
X119521143Y-30834253D01*
X119700748Y-31013858D01*
X119686605Y-31028000D01*
X119700748Y-31042143D01*
X119521143Y-31221748D01*
X119507000Y-31207605D01*
X118818957Y-31895648D01*
X118869306Y-32121777D01*
X119094944Y-32225168D01*
X119336418Y-32282553D01*
X119584447Y-32291726D01*
X119829499Y-32252335D01*
X120062158Y-32165893D01*
X120144694Y-32121777D01*
X120195042Y-31895650D01*
X120208999Y-31909607D01*
X120209000Y-34981672D01*
X120103834Y-34911402D01*
X119874529Y-34816421D01*
X119631099Y-34768000D01*
X119382901Y-34768000D01*
X119139471Y-34816421D01*
X118910166Y-34911402D01*
X118703797Y-35049294D01*
X118528294Y-35224797D01*
X118390402Y-35431166D01*
X118295421Y-35660471D01*
X118247000Y-35903901D01*
X118247000Y-36152099D01*
X118295421Y-36395529D01*
X118390402Y-36624834D01*
X118528294Y-36831203D01*
X118703797Y-37006706D01*
X118910166Y-37144598D01*
X119139471Y-37239579D01*
X119382901Y-37288000D01*
X119631099Y-37288000D01*
X119874529Y-37239579D01*
X120103834Y-37144598D01*
X120209000Y-37074328D01*
X120209000Y-39051000D01*
X120137514Y-39051000D01*
X119879595Y-39102304D01*
X119636641Y-39202939D01*
X119417987Y-39349038D01*
X119232038Y-39534987D01*
X119171225Y-39626000D01*
X118770638Y-39626000D01*
X118767562Y-39594768D01*
X118731252Y-39475070D01*
X118672287Y-39364756D01*
X118592935Y-39268065D01*
X118496244Y-39188713D01*
X118385930Y-39129748D01*
X118266232Y-39093438D01*
X118141750Y-39081178D01*
X116808250Y-39081178D01*
X116683768Y-39093438D01*
X116564070Y-39129748D01*
X116453756Y-39188713D01*
X116357065Y-39268065D01*
X116277713Y-39364756D01*
X116218748Y-39475070D01*
X116182438Y-39594768D01*
X116170178Y-39719250D01*
X116170178Y-40870020D01*
X113733188Y-43307011D01*
X111733792Y-43307011D01*
X116462004Y-38578800D01*
X116491001Y-38555003D01*
X116567175Y-38462185D01*
X116585974Y-38439279D01*
X116595581Y-38421305D01*
X116738759Y-38325637D01*
X116938637Y-38125759D01*
X117095680Y-37890727D01*
X117203853Y-37629574D01*
X117259000Y-37352335D01*
X117259000Y-37069665D01*
X117203853Y-36792426D01*
X117095680Y-36531273D01*
X116938637Y-36296241D01*
X116738759Y-36096363D01*
X116503727Y-35939320D01*
X116242574Y-35831147D01*
X115965335Y-35776000D01*
X115682665Y-35776000D01*
X115405426Y-35831147D01*
X115144273Y-35939320D01*
X114909241Y-36096363D01*
X114709363Y-36296241D01*
X114554000Y-36528759D01*
X114398637Y-36296241D01*
X114198759Y-36096363D01*
X113963727Y-35939320D01*
X113702574Y-35831147D01*
X113425335Y-35776000D01*
X113142665Y-35776000D01*
X112865426Y-35831147D01*
X112604273Y-35939320D01*
X112369241Y-36096363D01*
X112169363Y-36296241D01*
X112014000Y-36528759D01*
X111858637Y-36296241D01*
X111658759Y-36096363D01*
X111423727Y-35939320D01*
X111162574Y-35831147D01*
X110885335Y-35776000D01*
X110602665Y-35776000D01*
X110325426Y-35831147D01*
X110064273Y-35939320D01*
X109829241Y-36096363D01*
X109630643Y-36294961D01*
X109629812Y-36286518D01*
X109593502Y-36166820D01*
X109534537Y-36056506D01*
X109455185Y-35959815D01*
X109358494Y-35880463D01*
X109248180Y-35821498D01*
X109128482Y-35785188D01*
X109004000Y-35772928D01*
X107404000Y-35772928D01*
X107279518Y-35785188D01*
X107159820Y-35821498D01*
X107049506Y-35880463D01*
X106952815Y-35959815D01*
X106873463Y-36056506D01*
X106814498Y-36166820D01*
X106778188Y-36286518D01*
X106765928Y-36411000D01*
X106765928Y-38011000D01*
X106778188Y-38135482D01*
X106814498Y-38255180D01*
X106873463Y-38365494D01*
X106952815Y-38462185D01*
X107049506Y-38541537D01*
X107159820Y-38600502D01*
X107279518Y-38636812D01*
X107404000Y-38649072D01*
X109004000Y-38649072D01*
X109128482Y-38636812D01*
X109248180Y-38600502D01*
X109358494Y-38541537D01*
X109455185Y-38462185D01*
X109534537Y-38365494D01*
X109593502Y-38255180D01*
X109629812Y-38135482D01*
X109630643Y-38127039D01*
X109829241Y-38325637D01*
X110064273Y-38482680D01*
X110325426Y-38590853D01*
X110602665Y-38646000D01*
X110885335Y-38646000D01*
X111063672Y-38610526D01*
X108667200Y-41006999D01*
X108462050Y-41006999D01*
X108550454Y-40815706D01*
X108610547Y-40566424D01*
X108620852Y-40310208D01*
X108580974Y-40056905D01*
X108492445Y-39816249D01*
X108442883Y-39723526D01*
X108212503Y-39668102D01*
X107494605Y-40386000D01*
X107508748Y-40400143D01*
X107329143Y-40579748D01*
X107315000Y-40565605D01*
X106597102Y-41283503D01*
X106627619Y-41410353D01*
X106558453Y-41539753D01*
X106549563Y-41569061D01*
X106514997Y-41683013D01*
X106511256Y-41721000D01*
X106500323Y-41831999D01*
X102895000Y-41831999D01*
X102895000Y-40461792D01*
X106009148Y-40461792D01*
X106049026Y-40715095D01*
X106137555Y-40955751D01*
X106187117Y-41048474D01*
X106417497Y-41103898D01*
X107135395Y-40386000D01*
X106417497Y-39668102D01*
X106187117Y-39723526D01*
X106079546Y-39956294D01*
X106019453Y-40205576D01*
X106009148Y-40461792D01*
X102895000Y-40461792D01*
X102895000Y-39488497D01*
X106597102Y-39488497D01*
X107315000Y-40206395D01*
X108032898Y-39488497D01*
X107977474Y-39258117D01*
X107744706Y-39150546D01*
X107495424Y-39090453D01*
X107239208Y-39080148D01*
X106985905Y-39120026D01*
X106745249Y-39208555D01*
X106652526Y-39258117D01*
X106597102Y-39488497D01*
X102895000Y-39488497D01*
X102895000Y-36786801D01*
X102952791Y-36844592D01*
X102909000Y-37064740D01*
X102909000Y-37357260D01*
X102966068Y-37644158D01*
X103078010Y-37914411D01*
X103240525Y-38157632D01*
X103447368Y-38364475D01*
X103690589Y-38526990D01*
X103960842Y-38638932D01*
X104247740Y-38696000D01*
X104540260Y-38696000D01*
X104827158Y-38638932D01*
X105097411Y-38526990D01*
X105340632Y-38364475D01*
X105547475Y-38157632D01*
X105709990Y-37914411D01*
X105821932Y-37644158D01*
X105879000Y-37357260D01*
X105879000Y-37064740D01*
X105821932Y-36777842D01*
X105709990Y-36507589D01*
X105547475Y-36264368D01*
X105340632Y-36057525D01*
X105166240Y-35941000D01*
X105340632Y-35824475D01*
X105547475Y-35617632D01*
X105672178Y-35431000D01*
X110960678Y-35431000D01*
X110998000Y-35434676D01*
X111035322Y-35431000D01*
X111035333Y-35431000D01*
X111146986Y-35420003D01*
X111290247Y-35376546D01*
X111422276Y-35305974D01*
X111538001Y-35211001D01*
X111561804Y-35181997D01*
X115638354Y-31105447D01*
X118243274Y-31105447D01*
X118282665Y-31350499D01*
X118369107Y-31583158D01*
X118413223Y-31665694D01*
X118639352Y-31716043D01*
X119327395Y-31028000D01*
X118639352Y-30339957D01*
X118413223Y-30390306D01*
X118309832Y-30615944D01*
X118252447Y-30857418D01*
X118243274Y-31105447D01*
X115638354Y-31105447D01*
X115717802Y-31026000D01*
X115965335Y-31026000D01*
X116242574Y-30970853D01*
X116503727Y-30862680D01*
X116738759Y-30705637D01*
X116938637Y-30505759D01*
X117095680Y-30270727D01*
X117203853Y-30009574D01*
X117259000Y-29732335D01*
X117259000Y-29449665D01*
X117203853Y-29172426D01*
X117095680Y-28911273D01*
X116938637Y-28676241D01*
X116738759Y-28476363D01*
X116503727Y-28319320D01*
X116242574Y-28211147D01*
X115965335Y-28156000D01*
X115682665Y-28156000D01*
X115405426Y-28211147D01*
X115144273Y-28319320D01*
X114909241Y-28476363D01*
X114709363Y-28676241D01*
X114554000Y-28908759D01*
X114398637Y-28676241D01*
X114198759Y-28476363D01*
X113963727Y-28319320D01*
X113702574Y-28211147D01*
X113536000Y-28178013D01*
X113536000Y-26672901D01*
X113889000Y-26672901D01*
X113889000Y-26921099D01*
X113937421Y-27164529D01*
X114032402Y-27393834D01*
X114170294Y-27600203D01*
X114345797Y-27775706D01*
X114552166Y-27913598D01*
X114781471Y-28008579D01*
X115024901Y-28057000D01*
X115273099Y-28057000D01*
X115516529Y-28008579D01*
X115745834Y-27913598D01*
X115952203Y-27775706D01*
X116127706Y-27600203D01*
X116265598Y-27393834D01*
X116360579Y-27164529D01*
X116409000Y-26921099D01*
X116409000Y-26672901D01*
X116360579Y-26429471D01*
X116265598Y-26200166D01*
X116127706Y-25993797D01*
X115952203Y-25818294D01*
X115745834Y-25680402D01*
X115516529Y-25585421D01*
X115273099Y-25537000D01*
X115024901Y-25537000D01*
X114781471Y-25585421D01*
X114552166Y-25680402D01*
X114345797Y-25818294D01*
X114170294Y-25993797D01*
X114032402Y-26200166D01*
X113937421Y-26429471D01*
X113889000Y-26672901D01*
X113536000Y-26672901D01*
X113536000Y-22941775D01*
X113627013Y-22880962D01*
X113726000Y-22781975D01*
X113824987Y-22880962D01*
X114043641Y-23027061D01*
X114286595Y-23127696D01*
X114544514Y-23179000D01*
X114807486Y-23179000D01*
X115065405Y-23127696D01*
X115308359Y-23027061D01*
X115527013Y-22880962D01*
X115712962Y-22695013D01*
X115773775Y-22604000D01*
X116564359Y-22604000D01*
X116603875Y-22663140D01*
X116782860Y-22842125D01*
X116993324Y-22982753D01*
X117227179Y-23079619D01*
X117475439Y-23129000D01*
X117728561Y-23129000D01*
X117976821Y-23079619D01*
X118210676Y-22982753D01*
X118421140Y-22842125D01*
X118600125Y-22663140D01*
X118740753Y-22452676D01*
X118837619Y-22218821D01*
X118872000Y-22045973D01*
X118906381Y-22218821D01*
X119003247Y-22452676D01*
X119143875Y-22663140D01*
X119322860Y-22842125D01*
X119533324Y-22982753D01*
X119767179Y-23079619D01*
X120015439Y-23129000D01*
X120268561Y-23129000D01*
X120516821Y-23079619D01*
X120750676Y-22982753D01*
X120961140Y-22842125D01*
X121140125Y-22663140D01*
X121280753Y-22452676D01*
X121377619Y-22218821D01*
X121427000Y-21970561D01*
X121427000Y-21717439D01*
X121377619Y-21469179D01*
X121280753Y-21235324D01*
X121140125Y-21024860D01*
X120961140Y-20845875D01*
X120750676Y-20705247D01*
X120516821Y-20608381D01*
X120268561Y-20559000D01*
X120015439Y-20559000D01*
X119767179Y-20608381D01*
X119533324Y-20705247D01*
X119322860Y-20845875D01*
X119143875Y-21024860D01*
X119003247Y-21235324D01*
X118906381Y-21469179D01*
X118872000Y-21642027D01*
X118837619Y-21469179D01*
X118740753Y-21235324D01*
X118600125Y-21024860D01*
X118421140Y-20845875D01*
X118210676Y-20705247D01*
X117976821Y-20608381D01*
X117728561Y-20559000D01*
X117475439Y-20559000D01*
X117227179Y-20608381D01*
X116993324Y-20705247D01*
X116782860Y-20845875D01*
X116603875Y-21024860D01*
X116564359Y-21084000D01*
X115773775Y-21084000D01*
X115712962Y-20992987D01*
X115527013Y-20807038D01*
X115308359Y-20660939D01*
X115065405Y-20560304D01*
X114807486Y-20509000D01*
X114544514Y-20509000D01*
X114286595Y-20560304D01*
X114043641Y-20660939D01*
X113824987Y-20807038D01*
X113726000Y-20906025D01*
X113627013Y-20807038D01*
X113408359Y-20660939D01*
X113165405Y-20560304D01*
X112907486Y-20509000D01*
X112644514Y-20509000D01*
X112386595Y-20560304D01*
X112143641Y-20660939D01*
X111924987Y-20807038D01*
X111739038Y-20992987D01*
X111592939Y-21211641D01*
X111492304Y-21454595D01*
X111441000Y-21712514D01*
X111441000Y-21975486D01*
X111492304Y-22233405D01*
X111592939Y-22476359D01*
X111739038Y-22695013D01*
X111924987Y-22880962D01*
X112016000Y-22941775D01*
X112016001Y-28905764D01*
X112014000Y-28908759D01*
X111858637Y-28676241D01*
X111658759Y-28476363D01*
X111423727Y-28319320D01*
X111162574Y-28211147D01*
X110885335Y-28156000D01*
X110602665Y-28156000D01*
X110325426Y-28211147D01*
X110064273Y-28319320D01*
X109829241Y-28476363D01*
X109629363Y-28676241D01*
X109472320Y-28911273D01*
X109467933Y-28921865D01*
X109356385Y-28735869D01*
X109167414Y-28527481D01*
X108941420Y-28359963D01*
X108687087Y-28239754D01*
X108553039Y-28199096D01*
X108331000Y-28321085D01*
X108331000Y-29464000D01*
X108351000Y-29464000D01*
X108351000Y-29718000D01*
X108331000Y-29718000D01*
X108331000Y-30860915D01*
X108375071Y-30885128D01*
X106714198Y-32546001D01*
X105825544Y-32546001D01*
X105879000Y-32277260D01*
X105879000Y-31984740D01*
X105821932Y-31697842D01*
X105709990Y-31427589D01*
X105547475Y-31184368D01*
X105415620Y-31052513D01*
X105488180Y-31030502D01*
X105598494Y-30971537D01*
X105695185Y-30892185D01*
X105774537Y-30795494D01*
X105833502Y-30685180D01*
X105869812Y-30565482D01*
X105882072Y-30441000D01*
X105879345Y-29940040D01*
X106812091Y-29940040D01*
X106906930Y-30204881D01*
X107051615Y-30446131D01*
X107240586Y-30654519D01*
X107466580Y-30822037D01*
X107720913Y-30942246D01*
X107854961Y-30982904D01*
X108077000Y-30860915D01*
X108077000Y-29718000D01*
X106933376Y-29718000D01*
X106812091Y-29940040D01*
X105879345Y-29940040D01*
X105879000Y-29876750D01*
X105720250Y-29718000D01*
X104521000Y-29718000D01*
X104521000Y-29738000D01*
X104267000Y-29738000D01*
X104267000Y-29718000D01*
X103067750Y-29718000D01*
X102909000Y-29876750D01*
X102905928Y-30441000D01*
X102918188Y-30565482D01*
X102954498Y-30685180D01*
X103013463Y-30795494D01*
X103092815Y-30892185D01*
X103189506Y-30971537D01*
X103299820Y-31030502D01*
X103372380Y-31052513D01*
X103240525Y-31184368D01*
X103078010Y-31427589D01*
X102966068Y-31697842D01*
X102909000Y-31984740D01*
X102909000Y-32277260D01*
X102966068Y-32564158D01*
X103078010Y-32834411D01*
X103213704Y-33037492D01*
X102895000Y-33356197D01*
X102895000Y-28741000D01*
X102905928Y-28741000D01*
X102909000Y-29305250D01*
X103067750Y-29464000D01*
X104267000Y-29464000D01*
X104267000Y-28264750D01*
X104521000Y-28264750D01*
X104521000Y-29464000D01*
X105720250Y-29464000D01*
X105879000Y-29305250D01*
X105879344Y-29241960D01*
X106812091Y-29241960D01*
X106933376Y-29464000D01*
X108077000Y-29464000D01*
X108077000Y-28321085D01*
X107854961Y-28199096D01*
X107720913Y-28239754D01*
X107466580Y-28359963D01*
X107240586Y-28527481D01*
X107051615Y-28735869D01*
X106906930Y-28977119D01*
X106812091Y-29241960D01*
X105879344Y-29241960D01*
X105882072Y-28741000D01*
X105869812Y-28616518D01*
X105833502Y-28496820D01*
X105774537Y-28386506D01*
X105695185Y-28289815D01*
X105598494Y-28210463D01*
X105488180Y-28151498D01*
X105368482Y-28115188D01*
X105244000Y-28102928D01*
X104679750Y-28106000D01*
X104521000Y-28264750D01*
X104267000Y-28264750D01*
X104108250Y-28106000D01*
X103544000Y-28102928D01*
X103419518Y-28115188D01*
X103299820Y-28151498D01*
X103189506Y-28210463D01*
X103092815Y-28289815D01*
X103013463Y-28386506D01*
X102954498Y-28496820D01*
X102918188Y-28616518D01*
X102905928Y-28741000D01*
X102895000Y-28741000D01*
X102895000Y-27664648D01*
X109460957Y-27664648D01*
X109511306Y-27890777D01*
X109736944Y-27994168D01*
X109978418Y-28051553D01*
X110226447Y-28060726D01*
X110471499Y-28021335D01*
X110704158Y-27934893D01*
X110786694Y-27890777D01*
X110837043Y-27664648D01*
X110149000Y-26976605D01*
X109460957Y-27664648D01*
X102895000Y-27664648D01*
X102895000Y-26874447D01*
X108885274Y-26874447D01*
X108924665Y-27119499D01*
X109011107Y-27352158D01*
X109055223Y-27434694D01*
X109281352Y-27485043D01*
X109969395Y-26797000D01*
X110328605Y-26797000D01*
X111016648Y-27485043D01*
X111242777Y-27434694D01*
X111346168Y-27209056D01*
X111403553Y-26967582D01*
X111412726Y-26719553D01*
X111373335Y-26474501D01*
X111286893Y-26241842D01*
X111242777Y-26159306D01*
X111016648Y-26108957D01*
X110328605Y-26797000D01*
X109969395Y-26797000D01*
X109281352Y-26108957D01*
X109055223Y-26159306D01*
X108951832Y-26384944D01*
X108894447Y-26626418D01*
X108885274Y-26874447D01*
X102895000Y-26874447D01*
X102895000Y-25929352D01*
X109460957Y-25929352D01*
X110149000Y-26617395D01*
X110837043Y-25929352D01*
X110786694Y-25703223D01*
X110561056Y-25599832D01*
X110319582Y-25542447D01*
X110071553Y-25533274D01*
X109826501Y-25572665D01*
X109593842Y-25659107D01*
X109511306Y-25703223D01*
X109460957Y-25929352D01*
X102895000Y-25929352D01*
X102895000Y-15646000D01*
X124460000Y-15646000D01*
X124460000Y-50775000D01*
%TD*%
M02*
