%TF.GenerationSoftware,KiCad,Pcbnew,5.1.6+dfsg1-1*%
%TF.CreationDate,2021-01-11T22:17:59-08:00*%
%TF.ProjectId,high-current-sense-relay,68696768-2d63-4757-9272-656e742d7365,rev?*%
%TF.SameCoordinates,Original*%
%TF.FileFunction,Soldermask,Top*%
%TF.FilePolarity,Negative*%
%FSLAX46Y46*%
G04 Gerber Fmt 4.6, Leading zero omitted, Abs format (unit mm)*
G04 Created by KiCad (PCBNEW 5.1.6+dfsg1-1) date 2021-01-11 22:17:59*
%MOMM*%
%LPD*%
G01*
G04 APERTURE LIST*
%ADD10C,12.900000*%
%ADD11C,1.000000*%
%ADD12C,1.350000*%
%ADD13O,1.500000X1.500000*%
%ADD14C,1.500000*%
%ADD15C,1.433500*%
%ADD16R,1.433500X1.433500*%
%ADD17C,1.400000*%
%ADD18R,1.800000X1.800000*%
%ADD19O,1.800000X1.800000*%
%ADD20R,1.700000X1.700000*%
%ADD21O,1.700000X1.700000*%
%ADD22R,0.700000X1.300000*%
%ADD23C,0.900000*%
%ADD24C,1.600000*%
%ADD25R,1.600000X1.600000*%
%ADD26O,6.100000X9.100000*%
%ADD27O,6.100001X9.100000*%
G04 APERTURE END LIST*
D10*
%TO.C,J1*%
X155829000Y-43434000D03*
D11*
X151029000Y-43434000D03*
X152434887Y-40039887D03*
X155829000Y-38634000D03*
X159223113Y-40039887D03*
X160629000Y-43434000D03*
X159223113Y-46828113D03*
X155829000Y-48234000D03*
X152434887Y-46828113D03*
%TD*%
D10*
%TO.C,J2*%
X155702000Y-23749000D03*
D11*
X150902000Y-23749000D03*
X152307887Y-20354887D03*
X155702000Y-18949000D03*
X159096113Y-20354887D03*
X160502000Y-23749000D03*
X159096113Y-27143113D03*
X155702000Y-28549000D03*
X152307887Y-27143113D03*
%TD*%
D12*
%TO.C,C2*%
X119507000Y-31028000D03*
X119507000Y-36028000D03*
%TD*%
D13*
%TO.C,R2*%
X127889000Y-27051000D03*
D14*
X120269000Y-27051000D03*
%TD*%
D13*
%TO.C,R1*%
X120269000Y-40386000D03*
D14*
X127889000Y-40386000D03*
%TD*%
D12*
%TO.C,C1*%
X110149000Y-26797000D03*
X115149000Y-26797000D03*
%TD*%
D15*
%TO.C,D1*%
X107315000Y-40386000D03*
D16*
X117475000Y-40386000D03*
%TD*%
D17*
%TO.C,D2*%
X117729000Y-45212000D03*
X120269000Y-45212000D03*
%TD*%
%TO.C,D3*%
X120142000Y-21844000D03*
X117602000Y-21844000D03*
%TD*%
D18*
%TO.C,J3*%
X104394000Y-29591000D03*
D19*
X104394000Y-32131000D03*
X104394000Y-34671000D03*
X104394000Y-37211000D03*
%TD*%
D14*
%TO.C,R3*%
X112522000Y-45212000D03*
D13*
X114422000Y-45212000D03*
%TD*%
%TO.C,R4*%
X114676000Y-21844000D03*
D14*
X112776000Y-21844000D03*
%TD*%
D20*
%TO.C,U1*%
X108204000Y-37211000D03*
D21*
X115824000Y-29591000D03*
X110744000Y-37211000D03*
X113284000Y-29591000D03*
X113284000Y-37211000D03*
X110744000Y-29591000D03*
X115824000Y-37211000D03*
X108204000Y-29591000D03*
%TD*%
D22*
%TO.C,U2*%
X109789000Y-42692000D03*
X108839000Y-42692000D03*
X107889000Y-42692000D03*
X107889000Y-45192000D03*
X109789000Y-45192000D03*
%TD*%
D23*
%TO.C,U3*%
X143325000Y-42610000D03*
X146005000Y-36660000D03*
X146005000Y-37990000D03*
X146005000Y-39330000D03*
X146005000Y-40660000D03*
X141905000Y-36660000D03*
X141905000Y-37990000D03*
X141905000Y-39330000D03*
X141905000Y-40660000D03*
X144585000Y-42610000D03*
X145615000Y-41860000D03*
X142295000Y-41860000D03*
G36*
G01*
X144177161Y-34519822D02*
X144177161Y-34519822D01*
G75*
G02*
X144775178Y-34302161I407839J-190178D01*
G01*
X144775178Y-34302161D01*
G75*
G02*
X144992839Y-34900178I-190178J-407839D01*
G01*
X144992839Y-34900178D01*
G75*
G02*
X144394822Y-35117839I-407839J190178D01*
G01*
X144394822Y-35117839D01*
G75*
G02*
X144177161Y-34519822I190178J407839D01*
G01*
G37*
G36*
G01*
X143732839Y-34519822D02*
X143732839Y-34519822D01*
G75*
G02*
X143515178Y-35117839I-407839J-190178D01*
G01*
X143515178Y-35117839D01*
G75*
G02*
X142917161Y-34900178I-190178J407839D01*
G01*
X142917161Y-34900178D01*
G75*
G02*
X143134822Y-34302161I407839J190178D01*
G01*
X143134822Y-34302161D01*
G75*
G02*
X143732839Y-34519822I190178J-407839D01*
G01*
G37*
X145615000Y-35460000D03*
X142295000Y-35460000D03*
X146005000Y-30660000D03*
X146005000Y-26660000D03*
X146005000Y-27990000D03*
X146005000Y-29330000D03*
X141905000Y-26660000D03*
X141905000Y-30660000D03*
X141905000Y-27990000D03*
X141905000Y-29330000D03*
X145615000Y-25460000D03*
X142295000Y-25460000D03*
X143325000Y-24710000D03*
X144585000Y-24710000D03*
X145615000Y-31860000D03*
X142295000Y-31860000D03*
G36*
G01*
X142917161Y-32419822D02*
X142917161Y-32419822D01*
G75*
G02*
X143515178Y-32202161I407839J-190178D01*
G01*
X143515178Y-32202161D01*
G75*
G02*
X143732839Y-32800178I-190178J-407839D01*
G01*
X143732839Y-32800178D01*
G75*
G02*
X143134822Y-33017839I-407839J190178D01*
G01*
X143134822Y-33017839D01*
G75*
G02*
X142917161Y-32419822I190178J407839D01*
G01*
G37*
G36*
G01*
X144992839Y-32419822D02*
X144992839Y-32419822D01*
G75*
G02*
X144775178Y-33017839I-407839J-190178D01*
G01*
X144775178Y-33017839D01*
G75*
G02*
X144177161Y-32800178I-190178J407839D01*
G01*
X144177161Y-32800178D01*
G75*
G02*
X144394822Y-32202161I407839J190178D01*
G01*
X144394822Y-32202161D01*
G75*
G02*
X144992839Y-32419822I190178J-407839D01*
G01*
G37*
D24*
X122555000Y-33660000D03*
X122555000Y-35570000D03*
D25*
X122555000Y-31750000D03*
D26*
X143955000Y-38660000D03*
D27*
X143955000Y-28660000D03*
%TD*%
M02*
