%TF.GenerationSoftware,KiCad,Pcbnew,5.1.6+dfsg1-1*%
%TF.CreationDate,2021-01-11T22:17:59-08:00*%
%TF.ProjectId,high-current-sense-relay,68696768-2d63-4757-9272-656e742d7365,rev?*%
%TF.SameCoordinates,Original*%
%TF.FileFunction,Legend,Top*%
%TF.FilePolarity,Positive*%
%FSLAX46Y46*%
G04 Gerber Fmt 4.6, Leading zero omitted, Abs format (unit mm)*
G04 Created by KiCad (PCBNEW 5.1.6+dfsg1-1) date 2021-01-11 22:17:59*
%MOMM*%
%LPD*%
G01*
G04 APERTURE LIST*
%ADD10C,0.120000*%
%ADD11C,0.200000*%
%ADD12C,0.152400*%
%ADD13C,0.100000*%
%ADD14C,0.150000*%
%ADD15C,0.254000*%
G04 APERTURE END LIST*
D10*
%TO.C,J1*%
X176429000Y-49784000D02*
X149429000Y-49784000D01*
X176429000Y-37084000D02*
X176429000Y-49784000D01*
X149429000Y-37084000D02*
X176429000Y-37084000D01*
X149429000Y-49784000D02*
X149429000Y-37084000D01*
%TO.C,J2*%
X176302000Y-30099000D02*
X149302000Y-30099000D01*
X176302000Y-17399000D02*
X176302000Y-30099000D01*
X149302000Y-17399000D02*
X176302000Y-17399000D01*
X149302000Y-30099000D02*
X149302000Y-17399000D01*
D11*
%TO.C,C2*%
X120807000Y-31528000D02*
X120807000Y-35528000D01*
X118207000Y-31528000D02*
X118207000Y-35528000D01*
D10*
%TO.C,R2*%
X122159000Y-26131000D02*
X122159000Y-27971000D01*
X122159000Y-27971000D02*
X125999000Y-27971000D01*
X125999000Y-27971000D02*
X125999000Y-26131000D01*
X125999000Y-26131000D02*
X122159000Y-26131000D01*
X121209000Y-27051000D02*
X122159000Y-27051000D01*
X126949000Y-27051000D02*
X125999000Y-27051000D01*
%TO.C,R1*%
X125999000Y-41306000D02*
X125999000Y-39466000D01*
X125999000Y-39466000D02*
X122159000Y-39466000D01*
X122159000Y-39466000D02*
X122159000Y-41306000D01*
X122159000Y-41306000D02*
X125999000Y-41306000D01*
X126949000Y-40386000D02*
X125999000Y-40386000D01*
X121209000Y-40386000D02*
X122159000Y-40386000D01*
D11*
%TO.C,C1*%
X110649000Y-25497000D02*
X114649000Y-25497000D01*
X110649000Y-28097000D02*
X114649000Y-28097000D01*
D12*
%TO.C,D1*%
X113207800Y-38277800D02*
X112191800Y-38277800D01*
X112191800Y-38277800D02*
X111937800Y-38277800D01*
X112191800Y-37642800D02*
X112191800Y-38277800D01*
X112191800Y-38277800D02*
X112191800Y-38912800D01*
X112191800Y-38277800D02*
X112953800Y-37642800D01*
X112191800Y-38277800D02*
X112953800Y-37769800D01*
X112191800Y-38277800D02*
X112953800Y-37896800D01*
X112191800Y-38277800D02*
X112953800Y-38023800D01*
X112191800Y-38277800D02*
X112953800Y-38150800D01*
X112191800Y-38277800D02*
X112953800Y-38912800D01*
X112191800Y-38277800D02*
X112953800Y-38785800D01*
X112191800Y-38277800D02*
X112953800Y-38658800D01*
X112191800Y-38277800D02*
X112953800Y-38531800D01*
X112191800Y-38277800D02*
X112953800Y-38404800D01*
X112953800Y-37642800D02*
X112953800Y-38912800D01*
X110109000Y-41351200D02*
X114681000Y-41351200D01*
X114681000Y-41351200D02*
X114681000Y-39420800D01*
X114681000Y-39420800D02*
X110109000Y-39420800D01*
X110109000Y-39420800D02*
X110109000Y-41351200D01*
D13*
%TO.C,D2*%
X118999000Y-43212000D02*
X118999000Y-47212000D01*
X118999000Y-47212000D02*
X118999000Y-43212000D01*
%TO.C,D3*%
X118872000Y-23844000D02*
X118872000Y-19844000D01*
X118872000Y-19844000D02*
X118872000Y-23844000D01*
D10*
%TO.C,J3*%
X103064000Y-28261000D02*
X104394000Y-28261000D01*
X103064000Y-29591000D02*
X103064000Y-28261000D01*
X103064000Y-30861000D02*
X105724000Y-30861000D01*
X105724000Y-30861000D02*
X105724000Y-38541000D01*
X103064000Y-30861000D02*
X103064000Y-38541000D01*
X103064000Y-38541000D02*
X105724000Y-38541000D01*
%TO.C,R3*%
X112842095Y-45961359D02*
G75*
G02*
X112939133Y-44512000I-320095J749359D01*
G01*
%TO.C,R4*%
X113096095Y-22593359D02*
G75*
G02*
X113193133Y-21144000I-320095J749359D01*
G01*
%TO.C,U1*%
X106874000Y-30751000D02*
X106874000Y-32401000D01*
X117154000Y-30751000D02*
X106874000Y-30751000D01*
X117154000Y-36051000D02*
X117154000Y-30751000D01*
X106874000Y-36051000D02*
X117154000Y-36051000D01*
X106874000Y-34401000D02*
X106874000Y-36051000D01*
X106874000Y-32401000D02*
G75*
G02*
X106874000Y-34401000I0J-1000000D01*
G01*
D11*
%TO.C,U2*%
X110314000Y-43642000D02*
X110314000Y-44242000D01*
X110314000Y-44242000D02*
X107364000Y-44242000D01*
X107364000Y-44242000D02*
X107364000Y-43642000D01*
X107364000Y-43642000D02*
X110314000Y-43642000D01*
X110339000Y-42092000D02*
X110339000Y-43292000D01*
D10*
%TO.C,U3*%
X125335000Y-35825000D02*
X123455000Y-35825000D01*
X125335000Y-33915000D02*
X123455000Y-33915000D01*
X125335000Y-32005000D02*
X123455000Y-32005000D01*
X125335000Y-31495000D02*
X123455000Y-31495000D01*
X125335000Y-33405000D02*
X123455000Y-33405000D01*
X125335000Y-35315000D02*
X123455000Y-35315000D01*
X125335000Y-38780000D02*
X129735000Y-38780000D01*
X125335000Y-28540000D02*
X129735000Y-28540000D01*
X125335000Y-38780000D02*
X125335000Y-28540000D01*
X138575000Y-30780000D02*
X138575000Y-36540000D01*
X138575000Y-30780000D02*
X140655000Y-30780000D01*
X138575000Y-36540000D02*
X140655000Y-36540000D01*
X129735000Y-28540000D02*
X129735000Y-26540000D01*
X129735000Y-38780000D02*
X129735000Y-40780000D01*
X129735000Y-26540000D02*
X140655000Y-26540000D01*
X129735000Y-40780000D02*
X140655000Y-40780000D01*
%TO.C,J1*%
D14*
X155495666Y-49286380D02*
X155495666Y-50000666D01*
X155448047Y-50143523D01*
X155352809Y-50238761D01*
X155209952Y-50286380D01*
X155114714Y-50286380D01*
X156495666Y-50286380D02*
X155924238Y-50286380D01*
X156209952Y-50286380D02*
X156209952Y-49286380D01*
X156114714Y-49429238D01*
X156019476Y-49524476D01*
X155924238Y-49572095D01*
%TO.C,J2*%
X155368666Y-29601380D02*
X155368666Y-30315666D01*
X155321047Y-30458523D01*
X155225809Y-30553761D01*
X155082952Y-30601380D01*
X154987714Y-30601380D01*
X155797238Y-29696619D02*
X155844857Y-29649000D01*
X155940095Y-29601380D01*
X156178190Y-29601380D01*
X156273428Y-29649000D01*
X156321047Y-29696619D01*
X156368666Y-29791857D01*
X156368666Y-29887095D01*
X156321047Y-30029952D01*
X155749619Y-30601380D01*
X156368666Y-30601380D01*
%TO.C,C2*%
D15*
X120119571Y-33494666D02*
X120180047Y-33555142D01*
X120240523Y-33736571D01*
X120240523Y-33857523D01*
X120180047Y-34038952D01*
X120059095Y-34159904D01*
X119938142Y-34220380D01*
X119696238Y-34280857D01*
X119514809Y-34280857D01*
X119272904Y-34220380D01*
X119151952Y-34159904D01*
X119031000Y-34038952D01*
X118970523Y-33857523D01*
X118970523Y-33736571D01*
X119031000Y-33555142D01*
X119091476Y-33494666D01*
X119091476Y-33010857D02*
X119031000Y-32950380D01*
X118970523Y-32829428D01*
X118970523Y-32527047D01*
X119031000Y-32406095D01*
X119091476Y-32345619D01*
X119212428Y-32285142D01*
X119333380Y-32285142D01*
X119514809Y-32345619D01*
X120240523Y-33071333D01*
X120240523Y-32285142D01*
%TO.C,R2*%
D14*
X121052333Y-25583380D02*
X120719000Y-25107190D01*
X120480904Y-25583380D02*
X120480904Y-24583380D01*
X120861857Y-24583380D01*
X120957095Y-24631000D01*
X121004714Y-24678619D01*
X121052333Y-24773857D01*
X121052333Y-24916714D01*
X121004714Y-25011952D01*
X120957095Y-25059571D01*
X120861857Y-25107190D01*
X120480904Y-25107190D01*
X121433285Y-24678619D02*
X121480904Y-24631000D01*
X121576142Y-24583380D01*
X121814238Y-24583380D01*
X121909476Y-24631000D01*
X121957095Y-24678619D01*
X122004714Y-24773857D01*
X122004714Y-24869095D01*
X121957095Y-25011952D01*
X121385666Y-25583380D01*
X122004714Y-25583380D01*
%TO.C,R1*%
X126772333Y-42758380D02*
X126439000Y-42282190D01*
X126200904Y-42758380D02*
X126200904Y-41758380D01*
X126581857Y-41758380D01*
X126677095Y-41806000D01*
X126724714Y-41853619D01*
X126772333Y-41948857D01*
X126772333Y-42091714D01*
X126724714Y-42186952D01*
X126677095Y-42234571D01*
X126581857Y-42282190D01*
X126200904Y-42282190D01*
X127724714Y-42758380D02*
X127153285Y-42758380D01*
X127439000Y-42758380D02*
X127439000Y-41758380D01*
X127343761Y-41901238D01*
X127248523Y-41996476D01*
X127153285Y-42044095D01*
%TO.C,C1*%
D15*
X112192333Y-27091571D02*
X112131857Y-27152047D01*
X111950428Y-27212523D01*
X111829476Y-27212523D01*
X111648047Y-27152047D01*
X111527095Y-27031095D01*
X111466619Y-26910142D01*
X111406142Y-26668238D01*
X111406142Y-26486809D01*
X111466619Y-26244904D01*
X111527095Y-26123952D01*
X111648047Y-26003000D01*
X111829476Y-25942523D01*
X111950428Y-25942523D01*
X112131857Y-26003000D01*
X112192333Y-26063476D01*
X113401857Y-27212523D02*
X112676142Y-27212523D01*
X113039000Y-27212523D02*
X113039000Y-25942523D01*
X112918047Y-26123952D01*
X112797095Y-26244904D01*
X112676142Y-26305380D01*
%TO.C,D1*%
X109298619Y-38801523D02*
X109298619Y-37531523D01*
X109601000Y-37531523D01*
X109782428Y-37592000D01*
X109903380Y-37712952D01*
X109963857Y-37833904D01*
X110024333Y-38075809D01*
X110024333Y-38257238D01*
X109963857Y-38499142D01*
X109903380Y-38620095D01*
X109782428Y-38741047D01*
X109601000Y-38801523D01*
X109298619Y-38801523D01*
X111233857Y-38801523D02*
X110508142Y-38801523D01*
X110871000Y-38801523D02*
X110871000Y-37531523D01*
X110750047Y-37712952D01*
X110629095Y-37833904D01*
X110508142Y-37894380D01*
%TO.C,D2*%
X118061619Y-45786523D02*
X118061619Y-44516523D01*
X118364000Y-44516523D01*
X118545428Y-44577000D01*
X118666380Y-44697952D01*
X118726857Y-44818904D01*
X118787333Y-45060809D01*
X118787333Y-45242238D01*
X118726857Y-45484142D01*
X118666380Y-45605095D01*
X118545428Y-45726047D01*
X118364000Y-45786523D01*
X118061619Y-45786523D01*
X119271142Y-44637476D02*
X119331619Y-44577000D01*
X119452571Y-44516523D01*
X119754952Y-44516523D01*
X119875904Y-44577000D01*
X119936380Y-44637476D01*
X119996857Y-44758428D01*
X119996857Y-44879380D01*
X119936380Y-45060809D01*
X119210666Y-45786523D01*
X119996857Y-45786523D01*
%TO.C,D3*%
X117934619Y-22418523D02*
X117934619Y-21148523D01*
X118237000Y-21148523D01*
X118418428Y-21209000D01*
X118539380Y-21329952D01*
X118599857Y-21450904D01*
X118660333Y-21692809D01*
X118660333Y-21874238D01*
X118599857Y-22116142D01*
X118539380Y-22237095D01*
X118418428Y-22358047D01*
X118237000Y-22418523D01*
X117934619Y-22418523D01*
X119083666Y-21148523D02*
X119869857Y-21148523D01*
X119446523Y-21632333D01*
X119627952Y-21632333D01*
X119748904Y-21692809D01*
X119809380Y-21753285D01*
X119869857Y-21874238D01*
X119869857Y-22176619D01*
X119809380Y-22297571D01*
X119748904Y-22358047D01*
X119627952Y-22418523D01*
X119265095Y-22418523D01*
X119144142Y-22358047D01*
X119083666Y-22297571D01*
%TO.C,J3*%
D14*
X104060666Y-26713380D02*
X104060666Y-27427666D01*
X104013047Y-27570523D01*
X103917809Y-27665761D01*
X103774952Y-27713380D01*
X103679714Y-27713380D01*
X104441619Y-26713380D02*
X105060666Y-26713380D01*
X104727333Y-27094333D01*
X104870190Y-27094333D01*
X104965428Y-27141952D01*
X105013047Y-27189571D01*
X105060666Y-27284809D01*
X105060666Y-27522904D01*
X105013047Y-27618142D01*
X104965428Y-27665761D01*
X104870190Y-27713380D01*
X104584476Y-27713380D01*
X104489238Y-27665761D01*
X104441619Y-27618142D01*
%TO.C,R3*%
X113305333Y-43744380D02*
X112972000Y-43268190D01*
X112733904Y-43744380D02*
X112733904Y-42744380D01*
X113114857Y-42744380D01*
X113210095Y-42792000D01*
X113257714Y-42839619D01*
X113305333Y-42934857D01*
X113305333Y-43077714D01*
X113257714Y-43172952D01*
X113210095Y-43220571D01*
X113114857Y-43268190D01*
X112733904Y-43268190D01*
X113638666Y-42744380D02*
X114257714Y-42744380D01*
X113924380Y-43125333D01*
X114067238Y-43125333D01*
X114162476Y-43172952D01*
X114210095Y-43220571D01*
X114257714Y-43315809D01*
X114257714Y-43553904D01*
X114210095Y-43649142D01*
X114162476Y-43696761D01*
X114067238Y-43744380D01*
X113781523Y-43744380D01*
X113686285Y-43696761D01*
X113638666Y-43649142D01*
%TO.C,R4*%
X113559333Y-20376380D02*
X113226000Y-19900190D01*
X112987904Y-20376380D02*
X112987904Y-19376380D01*
X113368857Y-19376380D01*
X113464095Y-19424000D01*
X113511714Y-19471619D01*
X113559333Y-19566857D01*
X113559333Y-19709714D01*
X113511714Y-19804952D01*
X113464095Y-19852571D01*
X113368857Y-19900190D01*
X112987904Y-19900190D01*
X114416476Y-19709714D02*
X114416476Y-20376380D01*
X114178380Y-19328761D02*
X113940285Y-20043047D01*
X114559333Y-20043047D01*
%TO.C,U1*%
X105326380Y-34162904D02*
X106135904Y-34162904D01*
X106231142Y-34115285D01*
X106278761Y-34067666D01*
X106326380Y-33972428D01*
X106326380Y-33781952D01*
X106278761Y-33686714D01*
X106231142Y-33639095D01*
X106135904Y-33591476D01*
X105326380Y-33591476D01*
X106326380Y-32591476D02*
X106326380Y-33162904D01*
X106326380Y-32877190D02*
X105326380Y-32877190D01*
X105469238Y-32972428D01*
X105564476Y-33067666D01*
X105612095Y-33162904D01*
%TO.C,U2*%
D15*
X108143523Y-44909619D02*
X109171619Y-44909619D01*
X109292571Y-44849142D01*
X109353047Y-44788666D01*
X109413523Y-44667714D01*
X109413523Y-44425809D01*
X109353047Y-44304857D01*
X109292571Y-44244380D01*
X109171619Y-44183904D01*
X108143523Y-44183904D01*
X108264476Y-43639619D02*
X108204000Y-43579142D01*
X108143523Y-43458190D01*
X108143523Y-43155809D01*
X108204000Y-43034857D01*
X108264476Y-42974380D01*
X108385428Y-42913904D01*
X108506380Y-42913904D01*
X108687809Y-42974380D01*
X109413523Y-43700095D01*
X109413523Y-42913904D01*
%TO.C,U3*%
D14*
X138707380Y-34421904D02*
X139516904Y-34421904D01*
X139612142Y-34374285D01*
X139659761Y-34326666D01*
X139707380Y-34231428D01*
X139707380Y-34040952D01*
X139659761Y-33945714D01*
X139612142Y-33898095D01*
X139516904Y-33850476D01*
X138707380Y-33850476D01*
X138707380Y-33469523D02*
X138707380Y-32850476D01*
X139088333Y-33183809D01*
X139088333Y-33040952D01*
X139135952Y-32945714D01*
X139183571Y-32898095D01*
X139278809Y-32850476D01*
X139516904Y-32850476D01*
X139612142Y-32898095D01*
X139659761Y-32945714D01*
X139707380Y-33040952D01*
X139707380Y-33326666D01*
X139659761Y-33421904D01*
X139612142Y-33469523D01*
%TD*%
M02*
